<?xml version="1.0" standalone="no"?>
<!DOCTYPE svg PUBLIC "-//W3C//DTD SVG 1.1//EN" "http://www.w3.org/Graphics/SVG/1.1/DTD/svg11.dtd" >
<svg xmlns="http://www.w3.org/2000/svg" xmlns:xlink="http://www.w3.org/1999/xlink" version="1.1">
<metadata>
Created by FontForge 20150318 at Fri Apr 17 13:36:01 2015
 By uniteet7
Copyright (c) 2013 by Lucas Sharp. All rights reserved.
</metadata>
<defs>
<font id="SharpSansNo1SemiboldItalic" horiz-adv-x="588" >
  <font-face 
    font-family="SharpSansNo1SemiboldItalic"
    font-weight="600"
    font-style="italic"
    font-stretch="normal"
    units-per-em="1000"
    panose-1="1 0 0 0 0 0 0 0 0 0"
    ascent="750"
    descent="-250"
    x-height="500"
    cap-height="730"
    bbox="-132 -459 1699 1096"
    underline-thickness="50"
    underline-position="-50"
    unicode-range="U+0020-F60B"
  />
<missing-glyph horiz-adv-x="900" 
d="M85 0v730h730v-730h-730zM450 331l-283 -283h566zM167 682l283 -283l283 283h-566zM484 365l283 -283v566zM416 365l-283 283v-566z" />
    <glyph glyph-name="interrobang" unicode="&#x21;&#x3f;" horiz-adv-x="548" 
d="M202 189l2 16q13 108 66 408l5 31q-69 -15 -102 -72l-87 54q35 54 95 84t135 30q106 0 168.5 -62.5t46.5 -148.5q-8 -47 -33.5 -80.5t-57 -54t-63.5 -42.5t-58.5 -60t-36.5 -93l-2 -10h-78zM157 0l24 137h107l-24 -137h-107zM426 538q5 33 -10.5 58.5t-46.5 38.5l-4 -22
q-16 -85 -47 -204q12 12 43 36.5t45.5 43.5t19.5 49z" />
    <glyph glyph-name="interrobangdown" unicode="&#xa1;&#xbf;" horiz-adv-x="548" 
d="M223 -241q-106 0 -169 62.5t-46 148.5q8 47 33 80.5t57 54.5t64 43t58.5 60t36.5 93l2 10h78l-2 -16q-13 -99 -67 -409l-5 -30q69 14 102 72l87 -55q-35 -54 -94.5 -84t-134.5 -30zM250 363l24 137h108l-24 -137h-108zM112 -38q-6 -33 10 -58.5t48 -38.5l4 21
q13 79 46 206q-13 -13 -43.5 -37t-45 -43.5t-19.5 -49.5z" />
    <glyph glyph-name=".notdef" horiz-adv-x="900" 
d="M85 0v730h730v-730h-730zM450 331l-283 -283h566zM167 682l283 -283l283 283h-566zM484 365l283 -283v566zM416 365l-283 283v-566z" />
    <glyph glyph-name=".null" horiz-adv-x="0" 
 />
    <glyph glyph-name="nonmarkingreturn" horiz-adv-x="333" 
 />
    <glyph glyph-name="space" unicode=" " horiz-adv-x="248" 
 />
    <glyph glyph-name="exclam" unicode="!" horiz-adv-x="219" 
d="M67 193q11 196 51 420l20 117h108l-20 -117q-42 -232 -99 -420h-60zM10 0l24 137h108l-24 -137h-108z" />
    <glyph glyph-name="quotedbl" unicode="&#x22;" horiz-adv-x="309" 
d="M115 500q-3 21 -4 70.5t2 75.5l15 84h85l-15 -84q-3 -22 -22 -73t-30 -73h-31zM247 500q-3 21 -4 70.5t2 75.5l15 84h85l-15 -84q-3 -22 -22 -73t-30 -73h-31z" />
    <glyph glyph-name="numbersign" unicode="#" horiz-adv-x="812" 
d="M456 0l30 171h-184l-30 -171h-110l30 171h-170l20 105h168l33 188h-168l19 105h168l28 161h110l-28 -161h184l28 161h110l-28 -161h169l-20 -105h-168l-33 -188h168l-19 -105h-167l-30 -171h-110zM353 464l-33 -188h184l33 188h-184z" />
    <glyph glyph-name="dollar" unicode="$" 
d="M188 -82l14 79q-68 13 -119 49.5t-79 86.5l101 64q33 -71 115 -96l43 244q-42 19 -68 35t-54 42t-38 62t-2 82q13 78 75 124t156 50l13 71h94l-14 -80q104 -26 162 -107l-93 -64q-33 54 -87 72l-39 -219q41 -19 68.5 -36t55 -44.5t37.5 -65.5t2 -87q-14 -81 -74 -132.5
t-163 -56.5l-13 -73h-93zM420 191q11 67 -71 113l-37 -209q93 13 108 96zM212 555q-11 -58 70 -101l33 187q-44 -5 -70.5 -28t-32.5 -58z" />
    <glyph glyph-name="percent" unicode="%" horiz-adv-x="835" 
d="M-7 0l756 730h137l-755 -730h-138zM254 391q-78 0 -123.5 57.5t-32.5 134.5q11 65 65 111t123 46q76 0 122.5 -57t33.5 -132q-12 -68 -64.5 -114t-123.5 -46zM263 482q33 0 58.5 22t30.5 54q6 36 -16 64t-59 28q-33 0 -58 -21.5t-31 -53.5q-6 -37 15 -65t60 -28zM592 -11
q-77 0 -123 57.5t-32 134.5q11 65 65 111.5t123 46.5q76 0 122.5 -57t33.5 -133q-11 -67 -64.5 -113.5t-124.5 -46.5zM601 80q33 0 59 22.5t31 54.5q6 35 -16 63.5t-59 28.5q-33 0 -58 -22t-31 -54q-6 -36 15 -64.5t59 -28.5z" />
    <glyph glyph-name="ampersand" unicode="&#x26;" horiz-adv-x="735" 
d="M536 0l-43 54q-100 -65 -215 -65q-74 0 -128 22.5t-82 59t-39 79t-4 87.5q11 69 53.5 116.5t113.5 80.5q-42 72 -32 138q10 75 67 121.5t143 46.5q65 0 110.5 -30t61.5 -79l-106 -42q-15 55 -75 55q-37 0 -62 -19.5t-29 -52.5q-4 -27 7.5 -57t28 -53.5t62.5 -82.5
l146 -185q64 68 92 156h-142l18 102h251l-9 -50q-14 -75 -52 -148.5t-95 -131.5l96 -122h-137zM290 85q73 0 140 40l-152 193q-5 6 -16 19.5t-16 20.5q-51 -23 -78 -51.5t-34 -74.5q-11 -57 31.5 -102t124.5 -45z" />
    <glyph glyph-name="quotesingle" unicode="'" horiz-adv-x="177" 
d="M146 500h-31q-3 21 -4 70.5t2 75.5l15 84h85l-15 -84q-3 -22 -22 -73t-30 -73z" />
    <glyph glyph-name="parenleft" unicode="(" horiz-adv-x="400" 
d="M313 -155l-75 -86q-251 201 -195 527q27 161 124 278.5t236 188.5l62 -89q-259 -126 -309 -392q-46 -269 157 -427z" />
    <glyph glyph-name="parenright" unicode=")" horiz-adv-x="400" 
d="M88 661l75 87q249 -202 194 -525q-27 -163 -122.5 -283t-232.5 -190l-63 90q255 125 305 397q45 267 -156 424z" />
    <glyph glyph-name="asterisk" unicode="*" horiz-adv-x="415" 
d="M364 425l-86 83l-3 -131h-95l45 132l-120 -84l-31 82l132 47l-115 49l62 81l88 -85l1 132h95l-44 -131l118 83l33 -82l-134 -47l116 -48z" />
    <glyph glyph-name="plus" unicode="+" horiz-adv-x="452" 
d="M50 319l17 92h139l25 138h91l-25 -138h140l-17 -92h-139l-24 -140h-91l24 140h-140z" />
    <glyph glyph-name="comma" unicode="," horiz-adv-x="200" 
d="M-38 -117l74 204h96l-103 -204h-67z" />
    <glyph glyph-name="hyphen" unicode="-" horiz-adv-x="452" 
d="M34 209l17 92h370l-17 -92h-370z" />
    <glyph glyph-name="period" unicode="." horiz-adv-x="200" 
d="M-1 0l25 137h107l-24 -137h-108z" />
    <glyph glyph-name="slash" unicode="/" horiz-adv-x="493" 
d="M-31 0l473 730h117l-471 -730h-119z" />
    <glyph glyph-name="zero" unicode="0" 
d="M274 -10q-125 0 -182 77t-37 193l47 265q18 95 85.5 155t170.5 60q119 0 177.5 -78.5t38.5 -191.5l-47 -265q-17 -99 -80.5 -157t-172.5 -58zM279 93q57 0 94.5 34.5t47.5 93.5l45 259q11 69 -17.5 112.5t-96.5 44.5q-57 0 -95 -34.5t-48 -91.5l-45 -261
q-12 -68 18 -112.5t97 -44.5z" />
    <glyph glyph-name="one" unicode="1" 
d="M4 0l18 104h186l81 458q-18 -28 -53 -46.5t-76 -18.5h-11l20 113h5q66 0 104 37t46 83h105l-110 -626h194l-17 -104h-492z" />
    <glyph glyph-name="two" unicode="2" 
d="M10 0l18 104q7 43 30.5 81t64 71t72.5 54t85 52q113 66 146 95q45 39 52 78q9 47 -25 79t-93 32q-50 0 -91 -25t-63 -66l-92 45q37 66 103 103t148 37q108 0 172.5 -61.5t46.5 -158.5q-7 -38 -28.5 -72t-59.5 -64.5t-68.5 -50t-81.5 -48.5q-40 -23 -58 -34t-50 -32.5
t-47 -36.5t-29.5 -36t-18.5 -42h366l-18 -104h-481z" />
    <glyph glyph-name="three" unicode="3" 
d="M266 -10q-91 0 -158 35.5t-100 95.5l96 55q48 -88 162 -88q56 0 100.5 30t53.5 83q10 54 -26 90t-101 36h-81l17 100h76q63 0 107.5 30.5t52.5 77.5q9 50 -27.5 82.5t-97.5 32.5q-94 0 -154 -80l-83 58q39 51 102 81.5t142 30.5q111 0 175.5 -61t46.5 -158
q-19 -103 -126 -148q107 -66 85 -195q-16 -87 -87.5 -137.5t-174.5 -50.5z" />
    <glyph glyph-name="four" unicode="4" 
d="M312 0l27 154h-312l16 100l394 476h110l-84 -477h97l-18 -99h-96l-27 -154h-107zM165 253h191l52 293z" />
    <glyph glyph-name="five" unicode="5" 
d="M257 -10q-84 0 -145 37t-86 102l106 48q15 -40 49.5 -63.5t81.5 -23.5q57 0 102 34.5t58 90.5q15 71 -18.5 119t-105.5 48q-77 0 -127 -58l-92 42l110 364h409l-18 -103h-317l-52 -173q47 26 117 26q107 -1 166.5 -81t36.5 -187q-22 -102 -93.5 -162t-181.5 -60z" />
    <glyph glyph-name="six" unicode="6" 
d="M272 -10q-118 0 -182.5 79.5t-45.5 186.5q13 77 67 141l271 333h130l-215 -257q19 3 38 3q103 0 162.5 -79.5t40.5 -185.5q-17 -94 -85.5 -156.5t-180.5 -64.5zM278 88q58 0 101.5 38t53.5 94q11 64 -25 113.5t-103 49.5q-57 0 -101 -39.5t-54 -97.5q-12 -63 25 -110.5
t103 -47.5z" />
    <glyph glyph-name="seven" unicode="7" 
d="M77 0l404 627h-367l18 103h484l-16 -94l-399 -636h-124z" />
    <glyph glyph-name="eight" unicode="8" 
d="M271 -10q-112 0 -176.5 68t-46.5 176q9 54 44 97.5t88 69.5q-69 65 -52 161q14 80 76.5 129t156.5 49q97 0 158 -63.5t45 -154.5q-18 -101 -108 -150q89 -71 72 -177q-15 -93 -83.5 -149t-173.5 -56zM275 88q62 0 100.5 32t47.5 84q11 57 -25 96t-101 39
q-58 0 -97.5 -32.5t-48.5 -85.5q-9 -56 27 -94.5t97 -38.5zM334 431q52 0 87 27t43 74q8 48 -24 81.5t-86 33.5q-50 0 -85 -28t-43 -71q-8 -50 22 -83.5t86 -33.5z" />
    <glyph glyph-name="nine" unicode="9" 
d="M116 -5l215 258q-19 -3 -38 -3q-103 0 -162.5 79t-40.5 186q17 93 85.5 155.5t180.5 64.5q118 0 182.5 -79.5t45.5 -186.5q-13 -76 -67 -141l-271 -333h-130zM323 342q57 0 101 39.5t54 97.5q12 64 -25 111.5t-103 47.5q-58 0 -101.5 -38t-53.5 -94q-11 -64 25 -114
t103 -50z" />
    <glyph glyph-name="colon" unicode=":" horiz-adv-x="200" 
d="M-1 0l25 137h107l-24 -137h-108zM64 363l24 137h107l-24 -137h-107z" />
    <glyph glyph-name="semicolon" unicode=";" horiz-adv-x="200" 
d="M64 363l24 137h107l-24 -137h-107zM-38 -117l74 204h96l-103 -204h-67z" />
    <glyph glyph-name="less" unicode="&#x3c;" horiz-adv-x="452" 
d="M396 181l-345 138l16 92l394 136l-17 -97l-271 -87l240 -89z" />
    <glyph glyph-name="equal" unicode="=" horiz-adv-x="452" 
d="M65 400l17 92h370l-17 -92h-370zM36 235l16 92h370l-16 -92h-370z" />
    <glyph glyph-name="greater" unicode="&#x3e;" horiz-adv-x="452" 
d="M27 181l17 98l271 87l-240 89l16 92l346 -138l-17 -91z" />
    <glyph glyph-name="question" unicode="?" horiz-adv-x="529" 
d="M176 189l2 10q12 71 39.5 120.5t58.5 75t61 44.5t53 42.5t28 54.5q8 48 -22.5 79t-86.5 31q-81 0 -125 -65l-87 55q33 48 90.5 76t129.5 28q106 0 166.5 -62t43.5 -149q-8 -47 -33.5 -80.5t-57.5 -54t-64.5 -42.5t-59.5 -60t-37 -93l-2 -10h-97zM141 0l24 137h108
l-24 -137h-108z" />
    <glyph glyph-name="at" unicode="@" horiz-adv-x="811" 
d="M374 -129q-112 0 -195.5 57t-119 152t-16.5 206q25 143 139.5 239.5t267.5 96.5q99 0 181 -48t124 -133.5t24 -185.5q-14 -81 -61.5 -133t-122.5 -52q-73 0 -103 50q-45 -50 -119 -50q-80 0 -121.5 56.5t-27.5 135.5q12 70 65.5 120t124.5 50q69 0 103 -49l8 42h90
l-41 -181q-21 -83 37 -83q31 0 52 32.5t28 74.5q20 110 -53 188.5t-193 78.5q-113 0 -202.5 -75t-108.5 -184q-23 -126 47 -222t201 -96q113 0 195 83l72 -58q-107 -112 -275 -112zM390 155q40 0 67 27t35 66q10 42 -10.5 71.5t-57.5 29.5q-42 0 -72 -28.5t-37 -67.5
q-6 -40 15 -69t60 -29z" />
    <glyph glyph-name="A" unicode="A" horiz-adv-x="687" 
d="M-23 0l403 730h109l132 -730h-111l-27 156h-305l-84 -156h-117zM410 581l-175 -321h230z" />
    <glyph glyph-name="B" unicode="B" horiz-adv-x="611" 
d="M12 0l128 730h251q105 0 162.5 -64.5t40.5 -153.5q-18 -100 -105 -147q97 -59 76 -179q-16 -86 -87 -136t-181 -50h-285zM333 322h-154l-39 -220h165q63 0 102 27.5t47 75.5q9 53 -23 85t-98 32zM377 631h-144l-37 -211h158q56 0 90.5 28t42.5 69q9 49 -20.5 81.5
t-89.5 32.5z" />
    <glyph glyph-name="C" unicode="C" horiz-adv-x="763" 
d="M401 -10q-175 -1 -271.5 122.5t-65.5 294.5q25 143 138 238t265 95q108 0 191 -53.5t124 -141.5l-105 -51q-58 141 -219 141q-105 0 -186 -68.5t-100 -175.5q-21 -118 45.5 -206t190.5 -88q147 0 230 131l97 -55q-121 -182 -334 -183z" />
    <glyph glyph-name="D" unicode="D" horiz-adv-x="687" 
d="M12 0l128 730h207q160 -1 254.5 -115t66.5 -271q-26 -148 -136.5 -246t-263.5 -98h-256zM333 629h-101l-92 -527h136q103 0 183 71t99 178q20 115 -44.5 196.5t-180.5 81.5z" />
    <glyph glyph-name="E" unicode="E" horiz-adv-x="540" 
d="M12 0l128 730h438l-18 -102h-327l-37 -208h328l-19 -103h-327l-38 -214h328l-18 -103h-438z" />
    <glyph glyph-name="F" unicode="F" horiz-adv-x="515" 
d="M12 0l128 730h413l-18 -103h-303l-37 -209h304l-19 -103h-303l-55 -315h-110z" />
    <glyph glyph-name="G" unicode="G" horiz-adv-x="812" 
d="M402 -10q-112 0 -197 57t-123.5 152t-19.5 204q24 143 136 240t268 97q107 0 189.5 -52t123.5 -134l-105 -56q-64 137 -219 137q-109 0 -187.5 -70.5t-97.5 -172.5q-21 -118 48 -206.5t194 -88.5q96 0 161 52.5t92 140.5h-262l19 104h380l-7 -42q-25 -165 -131.5 -263.5
t-261.5 -98.5z" />
    <glyph glyph-name="H" unicode="H" horiz-adv-x="635" 
d="M425 0l55 313h-303l-55 -313h-110l128 730h110l-55 -312h303l55 312h110l-128 -730h-110z" />
    <glyph glyph-name="I" unicode="I" horiz-adv-x="236" 
d="M19 0l128 730h110l-128 -730h-110z" />
    <glyph glyph-name="J" unicode="J" horiz-adv-x="499" 
d="M206 -10q-77 0 -131 42.5t-70 113.5l105 31q23 -85 105 -85q45 0 74 30.5t38 78.5l94 529h110l-93 -519q-38 -221 -232 -221z" />
    <glyph glyph-name="K" unicode="K" horiz-adv-x="631" 
d="M453 0l-159 364l-130 -125l-42 -239h-110l128 730h110l-60 -342l356 342h141l-307 -295l191 -435h-118z" />
    <glyph glyph-name="L" unicode="L" horiz-adv-x="503" 
d="M12 0l128 730h110l-110 -626h294l-18 -104h-404z" />
    <glyph glyph-name="M" unicode="M" horiz-adv-x="827" 
d="M12 0l128 730h97l197 -340l324 340h97l-128 -730h-110l94 540l-302 -315l-190 328l-97 -553h-110z" />
    <glyph glyph-name="N" unicode="N" horiz-adv-x="691" 
d="M12 0l128 730h115l257 -542l96 542h110l-128 -730h-107l-264 555l-97 -555h-110z" />
    <glyph glyph-name="O" unicode="O" horiz-adv-x="819" 
d="M401 -10q-168 0 -268 123t-71 290q26 145 138 241t259 96q112 0 197.5 -58.5t122.5 -153.5t19 -201q-26 -146 -137 -241.5t-260 -95.5zM411 96q104 0 182 69t97 173q21 117 -47.5 207t-191.5 90q-105 0 -183.5 -69t-96.5 -174q-21 -120 48 -208t192 -88z" />
    <glyph glyph-name="P" unicode="P" horiz-adv-x="596" 
d="M12 0l128 730h221q112 0 184 -78t51 -198q-17 -102 -97.5 -169t-197.5 -67h-141l-38 -218h-110zM345 631h-112l-55 -313h128q73 0 122 43t61 109q12 68 -29.5 114.5t-114.5 46.5z" />
    <glyph glyph-name="Q" unicode="Q" horiz-adv-x="840" 
d="M395 -10q-168 0 -265 122.5t-68 290.5q25 144 140.5 240.5t262.5 96.5q109 0 193 -57.5t121.5 -151t18.5 -196.5q-21 -121 -103 -213q32 -17 70 -17h20l-19 -105h-20q-49 0 -88 17.5t-63 43t-47 56t-41 56t-44.5 43t-57.5 17.5h-20l20 105h19q20 0 38 -4t31 -8.5
t28 -15.5t23 -17.5t21.5 -23t18.5 -22.5t18.5 -26t16.5 -24q54 60 69 141q21 117 -47 207t-189 90q-105 0 -184.5 -69.5t-98.5 -174.5q-21 -120 47 -208t188 -88q53 0 95 17q48 -64 72 -83q-80 -39 -176 -39z" />
    <glyph glyph-name="R" unicode="R" horiz-adv-x="604" 
d="M524 0h-16q-67 0 -120 31t-84 82.5t-46.5 114.5t-12.5 130h58q80 0 124 35.5t55 92.5q11 63 -28.5 103.5t-113.5 41.5h-107l-111 -631h-110l128 730h217q119 0 187.5 -75.5t48.5 -185.5q-14 -79 -74.5 -135t-158.5 -66q14 -74 59 -119t107 -45h17z" />
    <glyph glyph-name="S" unicode="S" horiz-adv-x="544" 
d="M247 -10q-172 0 -257 137l100 66q53 -100 163 -100q55 0 90.5 27t43.5 71q4 23 -2 42.5t-16 32.5t-33 28t-37.5 22.5t-46.5 22.5q-42 20 -67 35t-54 42t-39 64t-2 85q13 80 78.5 127.5t161.5 47.5q75 0 135.5 -32t95.5 -84l-93 -62q-47 82 -144 82q-51 0 -83.5 -25
t-39.5 -64q-4 -25 4 -45.5t32 -38t41.5 -26.5t54.5 -26q16 -7 27.5 -13t26.5 -14.5t26 -16t24 -17.5t22 -21t17.5 -23.5t14 -27t8.5 -31t3 -35.5t-4 -40q-14 -83 -81.5 -136.5t-169.5 -53.5z" />
    <glyph glyph-name="T" unicode="T" horiz-adv-x="563" 
d="M295 0h-110l109 627h-191l18 103h492l-18 -103h-191z" />
    <glyph glyph-name="U" unicode="U" horiz-adv-x="622" 
d="M283 -10q-119 0 -184.5 70.5t-43.5 192.5l84 477h110l-86 -485q-12 -68 22 -111t108 -43q62 0 106.5 38.5t55.5 102.5l88 498h110l-87 -492q-21 -120 -93.5 -184t-189.5 -64z" />
    <glyph glyph-name="V" unicode="V" horiz-adv-x="638" 
d="M326 0h-106l-118 730h110l87 -564l291 564h116z" />
    <glyph glyph-name="W" unicode="W" horiz-adv-x="1029" 
d="M755 0h-107l-77 561l-272 -561h-110l-82 730h113l56 -552l269 552h108l77 -553l249 553h113z" />
    <glyph glyph-name="X" unicode="X" horiz-adv-x="643" 
d="M463 0l-133 282l-227 -282h-128l307 380l-164 350h115l126 -263l212 263h127l-291 -360l171 -370h-115z" />
    <glyph glyph-name="Y" unicode="Y" horiz-adv-x="622" 
d="M209 0l62 353l-166 377h113l125 -283l220 283h125l-308 -387l-61 -343h-110z" />
    <glyph glyph-name="Z" unicode="Z" horiz-adv-x="577" 
d="M486 0h-482l17 100l440 528h-335l17 102h470l-17 -99l-441 -529h348z" />
    <glyph glyph-name="bracketleft" unicode="[" horiz-adv-x="368" 
d="M-34 -230l169 960h273l-18 -103h-163l-133 -754h163l-18 -103h-273z" />
    <glyph glyph-name="backslash" unicode="\" horiz-adv-x="493" 
d="M318 0l-220 730h113l220 -730h-113z" />
    <glyph glyph-name="bracketright" unicode="]" horiz-adv-x="368" 
d="M-36 -230l17 103h163l134 754h-163l18 103h273l-169 -960h-273z" />
    <glyph glyph-name="asciicircum" unicode="^" horiz-adv-x="482" 
d="M133 541l150 169h74l91 -169h-88l-49 96l-83 -96h-95z" />
    <glyph glyph-name="underscore" unicode="_" horiz-adv-x="452" 
d="M-29 -141l17 91h370l-16 -91h-371z" />
    <glyph glyph-name="grave" unicode="`" horiz-adv-x="482" 
d="M316 554l-118 166h113l86 -166h-81z" />
    <glyph glyph-name="a" unicode="a" horiz-adv-x="621" 
d="M268 -10q-121 0 -185 86t-43 205q17 98 92 163.5t173 65.5q120 0 170 -90l15 80h108l-65 -351q-5 -32 3.5 -44.5t39.5 -12.5h11l-17 -92h-51q-70 0 -88 60q-63 -70 -163 -70zM284 89q62 0 108 41.5t57 104.5q13 71 -26.5 124t-111.5 54q-63 0 -110.5 -42t-57.5 -103
q-12 -71 28 -125t113 -54z" />
    <glyph glyph-name="b" unicode="b" horiz-adv-x="607" 
d="M306 -10q-121 0 -174 95l-14 -85h-108l128 730h108q-29 -158 -49 -277q62 57 148 57q115 0 179.5 -86t43.5 -203q-17 -102 -91.5 -166.5t-170.5 -64.5zM299 88q62 0 108.5 41.5t57.5 103.5q12 71 -27.5 125t-113.5 55q-60 0 -108.5 -41.5t-58.5 -103.5q-12 -72 28.5 -126
t113.5 -54z" />
    <glyph glyph-name="c" unicode="c" horiz-adv-x="557" 
d="M277 -10q-125 0 -192 87t-46 205q18 99 94.5 163.5t179.5 64.5q79 0 139 -40t85 -104l-98 -42q-35 88 -132 89q-57 0 -105.5 -40.5t-59.5 -103.5q-12 -72 28.5 -126t112.5 -54q44 0 81.5 23.5t60.5 63.5l94 -46q-35 -65 -98.5 -102.5t-143.5 -37.5z" />
    <glyph glyph-name="d" unicode="d" horiz-adv-x="627" 
d="M268 -10q-121 0 -185 86t-44 205q17 98 92 163.5t173 65.5q119 0 170 -89l57 309h108l-106 -581q-6 -31 3 -44t39 -13h12l-17 -92h-52q-71 0 -88 63q-64 -73 -162 -73zM283 89q62 0 108 41.5t57 104.5q13 71 -26.5 124t-110.5 54q-63 0 -110.5 -41.5t-58.5 -103.5
q-12 -71 28.5 -125t112.5 -54z" />
    <glyph glyph-name="e" unicode="e" horiz-adv-x="562" 
d="M282 -10q-130 0 -196.5 86t-45.5 204q18 103 101.5 166.5t185.5 63.5t159.5 -51t43.5 -124q-12 -70 -75 -110t-160 -39q-80 -1 -162 33q3 -61 44.5 -98t110.5 -37q86 0 139 68l83 -53q-80 -109 -228 -109zM329 418q-58 0 -108 -30t-72 -81q68 -26 137 -26q63 0 99 18.5
t41 50.5q5 28 -20.5 48t-76.5 20z" />
    <glyph glyph-name="f" unicode="f" horiz-adv-x="356" 
d="M34 406l17 94h86l5 27q21 127 62 165t152 38h31l-17 -100h-23q-51 0 -68.5 -17.5t-29.5 -86.5q0 -3 -5 -26h102l-17 -94h-101l-72 -410q-21 -118 -58.5 -158.5t-134.5 -40.5h-51l17 100h22q50 0 69 18.5t29 80.5l72 410h-87z" />
    <glyph glyph-name="g" unicode="g" horiz-adv-x="606" 
d="M268 -10q-121 0 -185 86t-44 205q17 99 91.5 164t173.5 65q121 0 169 -90l15 80h109l-87 -491q-44 -249 -267 -249q-82 0 -143 39t-86 103l109 36q29 -81 128 -81q62 0 100 40.5t50 108.5l1 2q0 1 0.5 5t1.5 9t2 12l2 14q-52 -58 -140 -58zM283 89q62 0 108 41.5
t57 104.5q13 71 -26.5 124t-111.5 54q-62 0 -109.5 -42t-58.5 -103q-12 -71 28.5 -125t112.5 -54z" />
    <glyph glyph-name="h" unicode="h" horiz-adv-x="563" 
d="M10 0l128 730h107l-49 -277q59 57 139 57q94 0 142.5 -63.5t27.5 -166.5l-27 -138q-6 -29 1.5 -39.5t34.5 -10.5h15l-17 -92h-48q-68 0 -89 33.5t-8 101.5l29 146q12 63 -13 99t-78 36q-114 0 -139 -143l-48 -273h-108z" />
    <glyph glyph-name="i" unicode="i" horiz-adv-x="232" 
d="M119 0q-59 0 -78.5 33t-7.5 102l63 365h109l-63 -355q-5 -27 3 -38.5t32 -11.5h15l-18 -95h-55zM107 558l24 140h108l-24 -140h-108z" />
    <glyph glyph-name="j" unicode="j" horiz-adv-x="218" 
d="M-132 -230l18 100q67 0 87.5 17t33.5 88l93 525h109l-94 -526q-21 -121 -62 -162.5t-149 -41.5h-36zM110 558l25 140h108l-25 -140h-108z" />
    <glyph glyph-name="k" unicode="k" horiz-adv-x="540" 
d="M464 0q-50 0 -74.5 8t-39.5 26t-38 63l-68 130l-104 -94l-23 -133h-107l128 730h107l-82 -465l259 235h137l-234 -213l77 -148q15 -29 28 -37.5t43 -8.5h23l-16 -93h-16z" />
    <glyph glyph-name="l" unicode="l" horiz-adv-x="237" 
d="M125 0q-46 0 -69.5 19t-25.5 51.5t5 76.5l102 583h109l-103 -584q-5 -28 3 -39.5t32 -11.5h15l-18 -95h-50z" />
    <glyph glyph-name="m" unicode="m" horiz-adv-x="892" 
d="M21 0l67 347q6 32 -2.5 45.5t-34.5 13.5h-16l17 94h48q75 0 91 -57q61 67 149 67q108 0 150 -85q67 85 167 85q101 0 149.5 -62.5t28.5 -167.5l-27 -138q-6 -27 2.5 -38.5t31.5 -11.5h19l-17 -92h-61q-52 0 -75.5 35.5t-10.5 99.5l29 146q12 60 -10 97.5t-76 37.5
q-50 0 -83 -37.5t-46 -103.5l-55 -275h-109l57 290q11 56 -11.5 91t-74.5 35q-107 0 -134 -145l-54 -271h-109z" />
    <glyph glyph-name="n" unicode="n" horiz-adv-x="581" 
d="M22 0l66 347q7 33 -1.5 46t-35.5 13h-16l17 94h49q77 0 91 -58q62 68 157 68q96 0 146 -65t28 -167l-27 -136q-6 -29 1 -39.5t34 -10.5h17l-18 -92h-49q-67 0 -89 33.5t-9 101.5l30 146q13 63 -12 99t-78 36q-113 0 -140 -144l-52 -272h-109z" />
    <glyph glyph-name="o" unicode="o" horiz-adv-x="590" 
d="M277 -10q-125 0 -192 87t-46 205q18 99 94.5 163.5t179.5 64.5q124 0 191.5 -87.5t46.5 -204.5q-18 -99 -93.5 -163.5t-180.5 -64.5zM282 89q60 0 107.5 39.5t58.5 102.5q12 71 -27.5 126t-112.5 56q-59 0 -107 -40.5t-59 -103.5q-12 -72 28 -126t112 -54z" />
    <glyph glyph-name="p" unicode="p" horiz-adv-x="621" 
d="M321 -10q-122 0 -173 91l-57 -311h-108l105 578q6 30 -3 44t-39 14h-11l17 94h57q69 0 85 -64q66 74 168 74q113 0 177 -86t43 -203q-16 -102 -90.5 -166.5t-170.5 -64.5zM313 88q62 0 109 41.5t58 103.5q12 71 -28 125t-114 55q-61 0 -109 -41.5t-58 -104.5
q-11 -74 29.5 -126.5t112.5 -52.5z" />
    <glyph glyph-name="q" unicode="q" horiz-adv-x="606" 
d="M268 -10q-122 0 -186 86t-43 205q17 98 91.5 163.5t172.5 65.5q122 0 170 -95l16 85h108l-129 -730h-108q26 152 48 276q-56 -56 -140 -56zM283 89q62 0 108 41.5t57 104.5q13 71 -26.5 124t-111.5 54q-63 0 -110.5 -42t-57.5 -103q-12 -71 28 -125t113 -54z" />
    <glyph glyph-name="r" unicode="r" horiz-adv-x="412" 
d="M22 0l66 347q8 32 -1 46t-36 14h-16l17 93h47q83 0 88 -80q58 80 160 80h58l-19 -107h-50q-130 0 -156 -141l-49 -252h-109z" />
    <glyph glyph-name="s" unicode="s" horiz-adv-x="470" 
d="M220 -10q-76 0 -132 30.5t-86 78.5l93 60q46 -78 134 -78q37 0 60.5 16.5t28.5 43.5q4 25 -20.5 39.5t-78.5 31.5q-7 2 -10 3q-37 11 -61 22t-48.5 30t-33.5 47.5t-3 67.5q10 58 64 93.5t131 35.5q65 0 117.5 -25t83.5 -68l-88 -56q-42 61 -121 61q-72 0 -81 -51
q-5 -26 20.5 -41t85.5 -34q35 -11 59.5 -22t50 -30t35.5 -48t4 -66q-11 -63 -65 -102t-139 -39z" />
    <glyph glyph-name="t" unicode="t" horiz-adv-x="349" 
d="M27 404l17 96h82l21 118l119 59q-14 -82 -31 -177h105l-17 -96h-105q-33 -191 -36 -199q-13 -69 2.5 -88t85.5 -19l-17 -98h-14q-115 0 -150 43.5t-14 160.5l35 200h-83z" />
    <glyph glyph-name="u" unicode="u" horiz-adv-x="572" 
d="M231 -10q-96 0 -145.5 63t-28.5 168l26 126q7 34 -1 47t-34 13h-14l16 93h61q111 0 84 -141l-28 -140q-12 -62 11 -98t77 -36t88.5 40.5t45.5 104.5l52 270h109l-66 -347q-6 -32 2 -46t34 -14h19l-17 -93h-52q-75 0 -91 55q-59 -65 -148 -65z" />
    <glyph glyph-name="v" unicode="v" horiz-adv-x="557" 
d="M232 -10q-106 0 -151 59.5t-24 167.5l26 130q7 33 -0.5 46.5t-32.5 13.5h-16l17 93h60q111 0 84 -141l-33 -165q-10 -50 11.5 -79t63.5 -29q65 0 109.5 59.5t61.5 155.5q20 109 -9 199h110q23 -116 4 -216q-24 -127 -95 -210.5t-186 -83.5z" />
    <glyph glyph-name="w" unicode="w" horiz-adv-x="881" 
d="M222 -10q-94 0 -139.5 63t-24.5 168l25 126q7 33 -1.5 46.5t-33.5 13.5h-14l17 93h60q111 0 84 -141l-28 -141q-26 -134 82 -134q48 0 83.5 41.5t47.5 104.5l49 270h108l-54 -304q-10 -53 10.5 -81.5t64.5 -28.5q69 0 112.5 59t61.5 156q19 107 -10 199h110
q24 -113 5 -216q-15 -81 -48.5 -145t-94 -106.5t-138.5 -42.5q-120 0 -152 86q-69 -86 -182 -86z" />
    <glyph glyph-name="x" unicode="x" horiz-adv-x="561" 
d="M-15 0l241 262l-40 89q-15 37 -27.5 46.5t-47.5 9.5h-49l16 92h42q77 0 101.5 -16.5t56.5 -90.5l23 -57l150 165l129 1l-235 -259l43 -94q15 -36 28.5 -45.5t48.5 -9.5h44l-16 -93h-36q-76 0 -101.5 18t-58.5 89l-27 61l-151 -168h-134z" />
    <glyph glyph-name="y" unicode="y" horiz-adv-x="555" 
d="M204 -240q-79 0 -137 39t-80 105l108 34q26 -81 118 -81q112 0 138 149l1 4q1 4 2.5 13.5t3.5 17.5q-52 -51 -127 -51q-94 0 -143.5 63.5t-29.5 167.5l24 126q7 34 -1 47t-34 13h-13l16 93h61q112 0 83 -141l-27 -141q-12 -63 10 -98.5t76 -35.5q56 0 91.5 39.5
t46.5 105.5l50 271h106l-88 -491q-22 -121 -81.5 -185t-173.5 -64z" />
    <glyph glyph-name="z" unicode="z" horiz-adv-x="538" 
d="M1 0l17 95l354 310h-293l18 95h437l-17 -95l-355 -310h306l-17 -95h-450z" />
    <glyph glyph-name="braceleft" unicode="{" horiz-adv-x="388" 
d="M272 -230h-11q-125 0 -164.5 47t-17.5 170l19 109q11 62 -2 82t-73 20l17 101q60 0 81 20t32 82l19 112q22 123 77.5 170t180.5 47h11l-17 -99q-78 0 -104 -22t-39 -97l-20 -112q-12 -63 -35 -99t-65 -54q67 -33 46 -150l-19 -109q-13 -75 5.5 -97t96.5 -22z" />
    <glyph glyph-name="bar" unicode="|" horiz-adv-x="207" 
d="M-34 -230l169 960h110l-169 -960h-110z" />
    <glyph glyph-name="braceright" unicode="}" horiz-adv-x="394" 
d="M-44 -230l18 99q78 0 104 22t39 97l19 108q10 62 33 98.5t66 53.5q-67 34 -46 152l21 112q13 75 -5.5 97t-96.5 22l17 99h11q125 0 164.5 -47t17.5 -170l-20 -112q-11 -62 2.5 -82.5t73.5 -20.5l-18 -101q-60 0 -80.5 -20.5t-31.5 -81.5l-19 -108q-22 -123 -77.5 -170
t-180.5 -47h-11z" />
    <glyph glyph-name="asciitilde" unicode="~" horiz-adv-x="470" 
d="M123 580q11 57 44 91.5t79 34.5q35 0 73 -26q36 -24 50 -24q31 0 40 45h71q-11 -58 -43 -92t-81 -34q-36 0 -80 30q-30 19 -44 19q-29 0 -39 -44h-70z" />
    <glyph glyph-name="exclamdown" unicode="&#xa1;" horiz-adv-x="219" 
d="M-31 -230l20 117q46 249 99 421h59q-9 -191 -50 -421l-20 -117h-108zM74 363l24 137h107l-24 -137h-107z" />
    <glyph glyph-name="cent" unicode="&#xa2;" 
d="M184 -130l23 131q-93 26 -137 105t-26 176q17 92 84 154t168 72l21 122h110l-23 -130q55 -15 97.5 -50.5t62.5 -83.5l-99 -45q-37 91 -141 92q-68 0 -117.5 -40t-59.5 -104q-13 -73 28.5 -126.5t121.5 -53.5q100 0 151 88l97 -47q-35 -61 -94 -97.5t-136 -41.5l-21 -121
h-110z" />
    <glyph glyph-name="sterling" unicode="&#xa3;" 
d="M83 329l15 89h64q-20 83 -9 142q14 84 72 132t151 48q69 0 121 -29.5t77 -78.5l-98 -50q-42 62 -106 62q-91 0 -109 -95q-9 -54 8 -131h228l-16 -89h-191q26 -105 14 -167q-6 -28 -16 -53q37 -28 58 -28q24 0 36 13t18 48l9 49h115l-11 -58q-24 -143 -139 -143
q-64 0 -127 50q-46 -51 -112 -51t-97.5 33t-20.5 88q7 37 37.5 61t73.5 24q45 0 92 -33q8 53 -31 167h-106zM132 62q34 0 57 27q-34 31 -57 31q-29 0 -34 -24q-2 -14 6.5 -24t27.5 -10z" />
    <glyph glyph-name="currency" unicode="&#xa4;" horiz-adv-x="773" 
d="M615 28l-91 105q-56 -31 -123 -31q-89 0 -157 52l-136 -125l-67 74l137 125q-36 61 -36 134q0 87 51 157l-95 112l80 70l95 -112q60 33 128 33q87 0 154 -50l129 120l67 -73l-129 -120q39 -62 39 -137q0 -90 -55 -161l89 -103zM401 202q64 0 109 47t45 113t-45 113
t-109 47t-108.5 -47t-44.5 -113t44.5 -113t108.5 -47z" />
    <glyph glyph-name="yen" unicode="&#xa5;" 
d="M76 341l16 88h174l-134 301h115l91 -210l168 210h126l-247 -301h173l-16 -88h-179l-17 -90h180l-15 -88h-181l-29 -163h-109l29 163h-175l15 88h176l17 90h-178z" />
    <glyph glyph-name="brokenbar" unicode="&#xa6;" horiz-adv-x="207" 
d="M61 310l74 420h110l-74 -420h-110zM-34 -230l74 420h110l-74 -420h-110z" />
    <glyph glyph-name="section" unicode="&#xa7;" horiz-adv-x="590" 
d="M269 -10q-94 0 -159 41.5t-80 99.5l112 31q11 -36 48 -59t86 -23q47 0 77 16t35 46q8 39 -55 61q-21 7 -88 23q-108 27 -154.5 64.5t-33.5 109.5q7 37 38 63.5t77 36.5q-39 44 -29 101q11 65 70.5 102.5t149.5 36.5q82 0 140 -35.5t72 -85.5l-108 -30q-7 29 -37 48
t-74 19q-100 0 -109 -59q-4 -22 14.5 -39t47 -27.5t76.5 -21.5q50 -12 84 -24t63 -31t40.5 -46.5t5.5 -63.5q-8 -38 -36.5 -66.5t-69.5 -41.5q32 -35 25 -89q-9 -75 -72.5 -117t-155.5 -40zM317 308q54 -13 88 -28q55 15 64 56q5 32 -31.5 50.5t-123.5 40.5q-41 9 -81 29
q-61 -16 -66 -56q-6 -33 30 -52t120 -40z" />
    <glyph glyph-name="dieresis" unicode="&#xa8;" horiz-adv-x="483" 
d="M322 558l25 138h107l-24 -138h-108zM162 558l25 138h107l-25 -138h-107z" />
    <glyph glyph-name="copyright" unicode="&#xa9;" horiz-adv-x="818" 
d="M401 -10q-168 0 -268 123t-71 290q26 145 138 241t259 96q168 0 268 -123.5t71 -289.5q-26 -145 -138 -241t-259 -96zM411 80q110 0 193 73.5t103 185.5q22 124 -50.5 219t-201.5 95q-113 0 -196.5 -73.5t-103.5 -186.5q-22 -125 51 -219t205 -94zM417 165
q-92 0 -143 64.5t-36 154.5q14 78 75.5 130t143.5 52q58 0 102 -30t62 -79l-88 -40q-21 60 -86 60q-43 0 -77 -29t-41 -73q-9 -48 18 -84.5t78 -36.5q64 0 99 64l81 -39q-60 -114 -188 -114z" />
    <glyph glyph-name="ordfeminine" unicode="&#xaa;" horiz-adv-x="406" 
d="M359 441q-41 0 -51 37q-38 -43 -97 -43q-57 0 -95 41.5t-27 113.5q8 71 54 108.5t98 37.5q70 0 93 -55l9 49h79l-35 -194q-6 -31 24 -31h8l-12 -64h-48zM233 508q31 0 55 22.5t28 54.5q5 33 -13.5 56t-51.5 23t-57.5 -20.5t-29.5 -53.5q-4 -35 15.5 -58.5t53.5 -23.5z
" />
    <glyph glyph-name="guillemotleft" unicode="&#xab;" horiz-adv-x="467" 
d="M194 99l-142 119l12 68l183 119l-14 -85l-112 -71l87 -70zM382 99l-142 119l12 68l183 119l-14 -85l-112 -71l87 -70z" />
    <glyph glyph-name="logicalnot" unicode="&#xac;" horiz-adv-x="611" 
d="M454 208l43 240h-432l18 104h540l-61 -344h-108z" />
    <glyph glyph-name="uni00AD" unicode="&#xad;" horiz-adv-x="452" 
d="M34 209l17 92h370l-17 -92h-370z" />
    <glyph glyph-name="registered" unicode="&#xae;" horiz-adv-x="381" 
d="M179 430q-70 0 -111 51t-29 120q10 60 56.5 99.5t107.5 39.5q69 0 110 -51t29 -120q-10 -59 -56 -99t-107 -40zM183 477q41 0 72.5 28t39.5 70q8 47 -19 83t-76 36q-42 0 -73.5 -28t-39.5 -70q-8 -47 19.5 -83t76.5 -36zM112 510l27 154h76q28 0 44.5 -18t12.5 -41
q-6 -34 -36 -44l24 -51h-52l-33 76l-13 -76h-50zM197 621h-16l-5 -28h16q28 0 30 14q1 7 -2.5 10t-8 3.5t-14.5 0.5z" />
    <glyph glyph-name="macron" unicode="&#xaf;" horiz-adv-x="482" 
d="M161 554l15 77h264l-15 -77h-264z" />
    <glyph glyph-name="degree" unicode="&#xb0;" horiz-adv-x="414" 
d="M264 433q-64 0 -109 45t-45 109t45 108.5t109 44.5t108.5 -44.5t44.5 -108.5t-44.5 -109t-108.5 -45zM264 523q26 0 44.5 18.5t18.5 44.5t-18.5 44.5t-44.5 18.5t-44.5 -18.5t-18.5 -44.5t18.5 -44.5t44.5 -18.5z" />
    <glyph glyph-name="plusminus" unicode="&#xb1;" horiz-adv-x="452" 
d="M69 424l16 92h140l25 139h91l-25 -139h139l-16 -92h-139l-24 -139h-92l25 139h-140zM16 122l17 92h370l-17 -92h-370z" />
    <glyph glyph-name="twosuperior" unicode="&#xb2;" horiz-adv-x="330" 
d="M33 308l13 77q5 26 18.5 49t36 42t40.5 31t46 28q67 39 81 56q9 11 11 21q4 19 -9 32t-36 13q-46 0 -69 -50l-78 38q22 43 61.5 67t89.5 24q66 0 103.5 -38t27.5 -98q-7 -41 -39.5 -69.5t-86.5 -58.5q-25 -14 -33.5 -19t-25.5 -16.5t-24.5 -21t-11.5 -20.5h183l-15 -87
h-283z" />
    <glyph glyph-name="threesuperior" unicode="&#xb3;" horiz-adv-x="323" 
d="M175 302q-96 0 -140 67l80 55q18 -36 63 -36q48 0 56 45q4 21 -10 35.5t-41 14.5h-44l14 84h42q26 0 43.5 12t21.5 31q3 20 -10 32.5t-35 12.5q-39 0 -63 -31l-63 59q53 53 132 53q65 0 102.5 -39.5t27.5 -95.5q-11 -55 -60 -81q49 -39 37 -107q-10 -53 -50 -82t-103 -29
z" />
    <glyph glyph-name="acute" unicode="&#xb4;" horiz-adv-x="482" 
d="M169 554l144 166h114l-176 -166h-82z" />
    <glyph glyph-name="mu" unicode="&#xb5;" horiz-adv-x="565" 
d="M-31 -230l129 730h108q-47 -265 -48 -274q-13 -65 10 -103.5t81 -38.5q48 0 84.5 39t47.5 100l53 277h109l-66 -347q-5 -32 3 -46t34 -14h18l-16 -93h-52q-77 0 -90 58q-58 -68 -151 -68q-63 0 -103 28l-43 -248h-108z" />
    <glyph glyph-name="mu" unicode="&#x3bc;" horiz-adv-x="565" 
d="M-31 -230l129 730h108q-47 -265 -48 -274q-13 -65 10 -103.5t81 -38.5q48 0 84.5 39t47.5 100l53 277h109l-66 -347q-5 -32 3 -46t34 -14h18l-16 -93h-52q-77 0 -90 58q-58 -68 -151 -68q-63 0 -103 28l-43 -248h-108z" />
    <glyph glyph-name="paragraph" unicode="&#xb6;" horiz-adv-x="629" 
d="M290 0l53 302h-82q-98 2 -151.5 68.5t-36.5 163.5q16 85 84.5 140.5t157.5 55.5h350l-128 -730h-94l111 630h-61l-110 -630h-93z" />
    <glyph glyph-name="periodcentered" unicode="&#xb7;" horiz-adv-x="200" 
d="M35 184l24 137h107l-24 -137h-107z" />
    <glyph glyph-name="cedilla" unicode="&#xb8;" horiz-adv-x="482" 
d="M156 -237q-99 0 -152 58l75 43q37 -35 81 -35q56 0 62 33q4 16 -11 24.5t-47 8.5h-47l19 105h75l-9 -49q55 -4 80 -31.5t19 -67.5q-7 -42 -47 -65.5t-98 -23.5z" />
    <glyph glyph-name="onesuperior" unicode="&#xb9;" horiz-adv-x="282" 
d="M33 308l14 87h74l34 199q-25 -28 -67 -28h-6l17 95h3q38 0 60 20.5t26 48.5h84l-59 -335h76l-15 -87h-241z" />
    <glyph glyph-name="ordmasculine" unicode="&#xba;" horiz-adv-x="362" 
d="M229 435q-64 0 -104 45.5t-33 109.5q5 62 51 104t108 42q64 0 104 -45.5t35 -110.5q-8 -62 -53 -103.5t-108 -41.5zM234 510q30 0 52.5 20.5t27.5 50.5q3 33 -16 57t-52 24q-30 0 -52.5 -21t-25.5 -52q-5 -32 14 -55.5t52 -23.5z" />
    <glyph glyph-name="guillemotright" unicode="&#xbb;" horiz-adv-x="467" 
d="M275 404l141 -119l-12 -68l-183 -119l15 85l111 70l-87 71zM87 404l141 -119l-12 -68l-183 -119l15 85l111 70l-87 71z" />
    <glyph glyph-name="onequarter" unicode="&#xbc;" horiz-adv-x="853" 
d="M68 0l652 730h130l-652 -730h-130zM634 0l15 90h-176l14 82l214 250h95l-44 -252h59l-14 -80h-59l-16 -90h-88zM33 308l14 87h74l34 199q-25 -28 -67 -28h-6l17 95h3q38 0 60 20.5t26 48.5h84l-59 -335h76l-15 -87h-241zM586 170h77l20 113z" />
    <glyph glyph-name="onehalf" unicode="&#xbd;" horiz-adv-x="853" 
d="M45 0l652 730h130l-652 -730h-130zM495 0l13 77q5 26 18.5 49t36 42t40.5 31t46 28q67 39 81 56q9 11 11 21q4 19 -9 32t-36 13q-46 0 -69 -50l-78 38q22 43 61.5 67t89.5 24q66 0 103.5 -38t27.5 -98q-7 -41 -39.5 -69.5t-86.5 -58.5q-25 -14 -33.5 -19t-25.5 -16.5
t-24.5 -21t-11.5 -20.5h183l-15 -87h-283zM33 308l14 87h74l34 199q-25 -28 -67 -28h-6l17 95h3q38 0 60 20.5t26 48.5h84l-59 -335h76l-15 -87h-241z" />
    <glyph glyph-name="threequarters" unicode="&#xbe;" horiz-adv-x="864" 
d="M79 0l652 730h130l-652 -730h-130zM645 0l15 90h-176l14 82l214 250h95l-44 -252h59l-14 -80h-59l-16 -90h-88zM175 302q-96 0 -140 67l80 55q18 -36 63 -36q48 0 56 45q4 21 -10 35.5t-41 14.5h-44l14 84h42q26 0 43.5 12t21.5 31q3 20 -10 32.5t-35 12.5q-39 0 -63 -31
l-63 59q53 53 132 53q65 0 102.5 -39.5t27.5 -95.5q-11 -55 -60 -81q49 -39 37 -107q-10 -53 -50 -82t-103 -29zM597 170h77l20 113z" />
    <glyph glyph-name="questiondown" unicode="&#xbf;" horiz-adv-x="529" 
d="M207 -241q-106 0 -166.5 62t-44.5 149q8 47 34 80.5t58 54.5t64.5 43t59.5 60t37 93l2 10h97l-2 -10q-12 -71 -39.5 -120.5t-58.5 -75t-61 -45t-53 -42.5t-28 -55q-8 -48 22.5 -78.5t86.5 -30.5q80 0 125 64l87 -54q-33 -49 -90.5 -77t-129.5 -28zM383 500l-24 -137h-108
l24 137h108z" />
    <glyph glyph-name="Agrave" unicode="&#xc0;" horiz-adv-x="687" 
d="M-23 0l403 730h109l132 -730h-111l-27 156h-305l-84 -156h-117zM410 581l-175 -321h230zM399 784l-118 166h113l86 -166h-81z" />
    <glyph glyph-name="Aacute" unicode="&#xc1;" horiz-adv-x="687" 
d="M-23 0l403 730h109l132 -730h-111l-27 156h-305l-84 -156h-117zM410 581l-175 -321h230zM401 784l144 166h114l-176 -166h-82z" />
    <glyph glyph-name="Acircumflex" unicode="&#xc2;" horiz-adv-x="687" 
d="M-23 0l403 730h109l132 -730h-111l-27 156h-305l-84 -156h-117zM410 581l-175 -321h230zM281 784l148 166h76l90 -166h-92l-48 94l-82 -94h-92z" />
    <glyph glyph-name="Atilde" unicode="&#xc3;" horiz-adv-x="687" 
d="M-23 0l403 730h109l132 -730h-111l-27 156h-305l-84 -156h-117zM410 581l-175 -321h230zM271 784q11 58 43.5 93t79.5 35q38 0 75 -25q38 -26 55 -26q31 0 40 47h71q-12 -60 -43.5 -94t-80.5 -34q-37 0 -85 32q-28 19 -46 19q-30 0 -39 -47h-70z" />
    <glyph glyph-name="Adieresis" unicode="&#xc4;" horiz-adv-x="687" 
d="M-23 0l403 730h109l132 -730h-111l-27 156h-305l-84 -156h-117zM410 581l-175 -321h230zM468 788l25 138h107l-24 -138h-108zM308 788l25 138h107l-25 -138h-107z" />
    <glyph glyph-name="Aring" unicode="&#xc5;" horiz-adv-x="687" 
d="M-23 0l382 693q-45 42 -28 106q11 41 44.5 67t74.5 26q52 0 82 -40t16 -91q-14 -48 -52 -74l125 -687h-111l-27 156h-305l-84 -156h-117zM409 581l-174 -321h230zM434 735q17 0 31 11t18 27q5 21 -6.5 36.5t-32.5 15.5q-17 0 -30 -11t-17 -27q-6 -21 5 -36.5t32 -15.5z
" />
    <glyph glyph-name="AE" unicode="&#xc6;" horiz-adv-x="976" 
d="M-20 0l488 730h542l-18 -103h-405l-1 -209h369l-18 -103h-351v-211h314l-18 -104h-404v154h-271l-103 -154h-124zM274 254h205l1 308z" />
    <glyph glyph-name="Ccedilla" unicode="&#xc7;" horiz-adv-x="763" 
d="M367 -238q-99 0 -152 58l75 43q37 -35 81 -35q56 0 62 33q4 16 -11 24.5t-47 8.5h-47l18 100q-151 19 -230.5 138t-51.5 275q25 143 138 238t265 95q108 0 191 -53.5t124 -141.5l-105 -51q-58 141 -219 141q-105 0 -186 -68.5t-100 -175.5q-21 -118 45.5 -206t190.5 -88
q147 0 230 131l97 -55q-115 -174 -315 -182l-7 -41q55 -4 80 -31.5t19 -67.5q-7 -42 -47 -65.5t-98 -23.5z" />
    <glyph glyph-name="Egrave" unicode="&#xc8;" horiz-adv-x="540" 
d="M12 0l128 730h438l-18 -102h-327l-37 -208h328l-19 -103h-327l-38 -214h328l-18 -103h-438zM338 784l-118 166h113l86 -166h-81z" />
    <glyph glyph-name="Eacute" unicode="&#xc9;" horiz-adv-x="540" 
d="M12 0l128 730h438l-18 -102h-327l-37 -208h328l-19 -103h-327l-38 -214h328l-18 -103h-438zM316 784l144 166h114l-176 -166h-82z" />
    <glyph glyph-name="Ecircumflex" unicode="&#xca;" horiz-adv-x="540" 
d="M12 0l128 730h438l-18 -102h-327l-37 -208h328l-19 -103h-327l-38 -214h328l-18 -103h-438zM211 784l148 166h76l90 -166h-92l-48 94l-82 -94h-92z" />
    <glyph glyph-name="Edieresis" unicode="&#xcb;" horiz-adv-x="540" 
d="M12 0l128 730h438l-18 -102h-327l-37 -208h328l-19 -103h-327l-38 -214h328l-18 -103h-438zM398 788l25 138h107l-24 -138h-108zM238 788l25 138h107l-25 -138h-107z" />
    <glyph glyph-name="Igrave" unicode="&#xcc;" horiz-adv-x="236" 
d="M19 0l128 730h110l-128 -730h-110zM171 784l-118 166h113l86 -166h-81z" />
    <glyph glyph-name="Iacute" unicode="&#xcd;" horiz-adv-x="236" 
d="M19 0l128 730h110l-128 -730h-110zM171 784l144 166h114l-176 -166h-82z" />
    <glyph glyph-name="Icircumflex" unicode="&#xce;" horiz-adv-x="236" 
d="M19 0l128 730h110l-128 -730h-110zM55 784l148 166h76l90 -166h-92l-48 94l-82 -94h-92z" />
    <glyph glyph-name="Idieresis" unicode="&#xcf;" horiz-adv-x="236" 
d="M19 0l128 730h110l-128 -730h-110zM239 788l25 138h107l-24 -138h-108zM79 788l25 138h107l-25 -138h-107z" />
    <glyph glyph-name="Eth" unicode="&#xd0;" horiz-adv-x="722" 
d="M32 326l16 91h72l55 313h207q160 -1 254.5 -115t66.5 -271q-26 -148 -136.5 -246t-263.5 -98h-256l57 326h-72zM401 326h-187l-39 -224h136q103 0 183 71t99 178q20 115 -44.5 196.5t-180.5 81.5h-101l-37 -212h186z" />
    <glyph glyph-name="Ntilde" unicode="&#xd1;" horiz-adv-x="691" 
d="M12 0l128 730h115l257 -542l96 542h110l-128 -730h-107l-264 555l-97 -555h-110zM277 784q11 58 43.5 93t79.5 35q38 0 75 -25q38 -26 55 -26q31 0 40 47h71q-12 -60 -43.5 -94t-80.5 -34q-37 0 -85 32q-28 19 -46 19q-30 0 -39 -47h-70z" />
    <glyph glyph-name="Ograve" unicode="&#xd2;" horiz-adv-x="819" 
d="M401 -10q-168 0 -268 123t-71 290q26 145 138 241t259 96q112 0 197.5 -58.5t122.5 -153.5t19 -201q-26 -146 -137 -241.5t-260 -95.5zM411 96q104 0 182 69t97 173q21 117 -47.5 207t-191.5 90q-105 0 -183.5 -69t-96.5 -174q-21 -120 48 -208t192 -88zM458 784
l-118 166h113l86 -166h-81z" />
    <glyph glyph-name="Oacute" unicode="&#xd3;" horiz-adv-x="819" 
d="M447 784l144 166h114l-176 -166h-82zM401 -10q-168 0 -268 123t-71 290q26 145 138 241t259 96q112 0 197.5 -58.5t122.5 -153.5t19 -201q-26 -146 -137 -241.5t-260 -95.5zM411 96q104 0 182 69t97 173q21 117 -47.5 207t-191.5 90q-105 0 -183.5 -69t-96.5 -174
q-21 -120 48 -208t192 -88z" />
    <glyph glyph-name="Ocircumflex" unicode="&#xd4;" horiz-adv-x="819" 
d="M401 -10q-168 0 -268 123t-71 290q26 145 138 241t259 96q112 0 197.5 -58.5t122.5 -153.5t19 -201q-26 -146 -137 -241.5t-260 -95.5zM411 96q104 0 182 69t97 173q21 117 -47.5 207t-191.5 90q-105 0 -183.5 -69t-96.5 -174q-21 -120 48 -208t192 -88zM337 784l148 166
h76l90 -166h-92l-48 94l-82 -94h-92z" />
    <glyph glyph-name="Otilde" unicode="&#xd5;" horiz-adv-x="819" 
d="M401 -10q-168 0 -268 123t-71 290q26 145 138 241t259 96q112 0 197.5 -58.5t122.5 -153.5t19 -201q-26 -146 -137 -241.5t-260 -95.5zM411 96q104 0 182 69t97 173q21 117 -47.5 207t-191.5 90q-105 0 -183.5 -69t-96.5 -174q-21 -120 48 -208t192 -88zM325 784
q11 58 43.5 93t79.5 35q38 0 75 -25q38 -26 55 -26q31 0 40 47h71q-12 -60 -43.5 -94t-80.5 -34q-37 0 -85 32q-28 19 -46 19q-30 0 -39 -47h-70z" />
    <glyph glyph-name="Odieresis" unicode="&#xd6;" horiz-adv-x="819" 
d="M515 788l25 138h107l-24 -138h-108zM355 788l25 138h107l-25 -138h-107zM401 -10q-168 0 -268 123t-71 290q26 145 138 241t259 96q112 0 197.5 -58.5t122.5 -153.5t19 -201q-26 -146 -137 -241.5t-260 -95.5zM411 96q104 0 182 69t97 173q21 117 -47.5 207t-191.5 90
q-105 0 -183.5 -69t-96.5 -174q-21 -120 48 -208t192 -88z" />
    <glyph glyph-name="multiply" unicode="&#xd7;" horiz-adv-x="452" 
d="M100 186l-54 65l134 114l-93 114l74 62l93 -113l133 113l54 -65l-133 -113l92 -112l-75 -62l-91 111z" />
    <glyph glyph-name="Oslash" unicode="&#xd8;" horiz-adv-x="822" 
d="M403 -10q-119 0 -208 65l-53 -55h-126l114 118q-95 121 -66 285q25 145 137.5 241t259.5 96q116 0 205 -65l54 55h126l-114 -119q94 -122 67 -284q-26 -145 -138 -241t-258 -96zM172 392q-19 -106 37 -192l382 397q-59 40 -137 40q-106 0 -184.5 -70t-97.5 -175zM413 97
q103 0 181.5 69.5t97.5 173.5q18 107 -37 192l-381 -396q59 -39 139 -39z" />
    <glyph glyph-name="Ugrave" unicode="&#xd9;" horiz-adv-x="622" 
d="M283 -10q-119 0 -184.5 70.5t-43.5 192.5l84 477h110l-86 -485q-12 -68 22 -111t108 -43q62 0 106.5 38.5t55.5 102.5l88 498h110l-87 -492q-21 -120 -93.5 -184t-189.5 -64zM367 780l-118 166h113l86 -166h-81z" />
    <glyph glyph-name="Uacute" unicode="&#xda;" horiz-adv-x="622" 
d="M354 781l144 166h114l-176 -166h-82zM283 -10q-119 0 -184.5 70.5t-43.5 192.5l84 477h110l-86 -485q-12 -68 22 -111t108 -43q62 0 106.5 38.5t55.5 102.5l88 498h110l-87 -492q-21 -120 -93.5 -184t-189.5 -64z" />
    <glyph glyph-name="Ucircumflex" unicode="&#xdb;" horiz-adv-x="622" 
d="M283 -10q-119 0 -184.5 70.5t-43.5 192.5l84 477h110l-86 -485q-12 -68 22 -111t108 -43q62 0 106.5 38.5t55.5 102.5l88 498h110l-87 -492q-21 -120 -93.5 -184t-189.5 -64zM247 784l148 166h76l90 -166h-92l-48 94l-82 -94h-92z" />
    <glyph glyph-name="Udieresis" unicode="&#xdc;" horiz-adv-x="622" 
d="M429 785l25 138h107l-24 -138h-108zM269 785l25 138h107l-25 -138h-107zM283 -10q-119 0 -184.5 70.5t-43.5 192.5l84 477h110l-86 -485q-12 -68 22 -111t108 -43q62 0 106.5 38.5t55.5 102.5l88 498h110l-87 -492q-21 -120 -93.5 -184t-189.5 -64z" />
    <glyph glyph-name="Yacute" unicode="&#xdd;" horiz-adv-x="622" 
d="M209 0l62 353l-166 377h113l125 -283l220 283h125l-308 -387l-61 -343h-110zM356 781l144 166h114l-176 -166h-82z" />
    <glyph glyph-name="Thorn" unicode="&#xde;" horiz-adv-x="575" 
d="M7 0l128 730h110l-25 -139h133q93 0 154 -66.5t44 -168.5q-14 -87 -82.5 -144t-167.5 -57h-157l-27 -155h-110zM337 490h-135l-41 -234h146q54 0 91 32.5t46 81.5q8 50 -23 85t-84 35z" />
    <glyph glyph-name="germandbls" unicode="&#xdf;" horiz-adv-x="541" 
d="M-132 -230l18 100q64 0 86.5 20t34.5 86l97 543q38 213 226 213q98 0 150.5 -65.5t36.5 -151.5q-17 -97 -108 -141q52 -21 75.5 -75.5t12.5 -113.5q-15 -88 -76 -141t-156 -53q-63 0 -99 22l19 92q34 -18 74 -18q51 0 86 31t44 79q10 57 -21.5 93t-96.5 36h-21l17 97h21
q50 0 85 28t43 73q8 46 -17.5 79.5t-73.5 33.5q-44 0 -72.5 -28t-37.5 -80l-99 -553q-21 -116 -66.5 -161t-151.5 -45h-30z" />
    <glyph glyph-name="agrave" unicode="&#xe0;" horiz-adv-x="621" 
d="M268 -10q-121 0 -185 86t-43 205q17 98 92 163.5t173 65.5q120 0 170 -90l15 80h108l-65 -351q-5 -32 3.5 -44.5t39.5 -12.5h11l-17 -92h-51q-70 0 -88 60q-63 -70 -163 -70zM284 89q62 0 108 41.5t57 104.5q13 71 -26.5 124t-111.5 54q-63 0 -110.5 -42t-57.5 -103
q-12 -71 28 -125t113 -54zM298 554l-118 166h113l86 -166h-81z" />
    <glyph glyph-name="aacute" unicode="&#xe1;" horiz-adv-x="621" 
d="M268 -10q-121 0 -185 86t-43 205q17 98 92 163.5t173 65.5q120 0 170 -90l15 80h108l-65 -351q-5 -32 3.5 -44.5t39.5 -12.5h11l-17 -92h-51q-70 0 -88 60q-63 -70 -163 -70zM284 89q62 0 108 41.5t57 104.5q13 71 -26.5 124t-111.5 54q-63 0 -110.5 -42t-57.5 -103
q-12 -71 28 -125t113 -54zM278 554l144 166h114l-176 -166h-82z" />
    <glyph glyph-name="acircumflex" unicode="&#xe2;" horiz-adv-x="621" 
d="M268 -10q-121 0 -185 86t-43 205q17 98 92 163.5t173 65.5q120 0 170 -90l15 80h108l-65 -351q-5 -32 3.5 -44.5t39.5 -12.5h11l-17 -92h-51q-70 0 -88 60q-63 -70 -163 -70zM284 89q62 0 108 41.5t57 104.5q13 71 -26.5 124t-111.5 54q-63 0 -110.5 -42t-57.5 -103
q-12 -71 28 -125t113 -54zM200 554l148 166h76l90 -166h-92l-48 94l-82 -94h-92z" />
    <glyph glyph-name="atilde" unicode="&#xe3;" horiz-adv-x="621" 
d="M268 -10q-121 0 -185 86t-43 205q17 98 92 163.5t173 65.5q120 0 170 -90l15 80h108l-65 -351q-5 -32 3.5 -44.5t39.5 -12.5h11l-17 -92h-51q-70 0 -88 60q-63 -70 -163 -70zM284 89q62 0 108 41.5t57 104.5q13 71 -26.5 124t-111.5 54q-63 0 -110.5 -42t-57.5 -103
q-12 -71 28 -125t113 -54zM181 554q11 58 43.5 93t79.5 35q38 0 75 -25q38 -26 55 -26q31 0 40 47h71q-12 -60 -43.5 -94t-80.5 -34q-37 0 -85 32q-28 19 -46 19q-30 0 -39 -47h-70z" />
    <glyph glyph-name="adieresis" unicode="&#xe4;" horiz-adv-x="621" 
d="M268 -10q-121 0 -185 86t-43 205q17 98 92 163.5t173 65.5q120 0 170 -90l15 80h108l-65 -351q-5 -32 3.5 -44.5t39.5 -12.5h11l-17 -92h-51q-70 0 -88 60q-63 -70 -163 -70zM284 89q62 0 108 41.5t57 104.5q13 71 -26.5 124t-111.5 54q-63 0 -110.5 -42t-57.5 -103
q-12 -71 28 -125t113 -54zM378 558l25 138h107l-24 -138h-108zM218 558l25 138h107l-25 -138h-107z" />
    <glyph glyph-name="aring" unicode="&#xe5;" horiz-adv-x="621" 
d="M268 -10q-121 0 -185 86t-43 205q17 98 92 163.5t173 65.5q120 0 170 -90l15 80h108l-65 -351q-5 -32 3.5 -44.5t39.5 -12.5h11l-17 -92h-51q-70 0 -88 60q-63 -70 -163 -70zM284 89q62 0 108 41.5t57 104.5q13 71 -26.5 124t-111.5 54q-63 0 -110.5 -42t-57.5 -103
q-12 -71 28 -125t113 -54zM348 547q-52 0 -81.5 40.5t-15.5 91.5q11 41 44.5 67t74.5 26q52 0 82 -40t16 -91q-12 -42 -44.5 -68t-75.5 -26zM354 615q17 0 31 11t18 27q5 21 -6.5 36.5t-32.5 15.5q-17 0 -30 -11t-17 -27q-6 -21 5 -36.5t32 -15.5z" />
    <glyph glyph-name="ae" unicode="&#xe6;" horiz-adv-x="890" 
d="M188 -10q-89 0 -131.5 43.5t-35.5 105.5q6 66 53 98.5t133 51.5q12 3 29.5 6.5t29.5 6t27.5 6t26 6.5t22.5 7.5t19.5 9t14.5 9.5t11 11.5t5 14.5q3 25 -20.5 43t-71.5 18q-63 0 -99.5 -26t-44.5 -73h-97q13 86 76.5 134t166.5 48q118 0 165 -66q83 66 189 66
q100 0 158.5 -50t44.5 -124q-12 -70 -75.5 -110.5t-160.5 -39.5q-81 -1 -160 30q5 -59 46.5 -95.5t107.5 -36.5q82 0 137 65l83 -55q-81 -104 -227 -104q-148 0 -213 108q-31 -48 -85.5 -78t-123.5 -30zM658 417q-56 0 -105 -30t-73 -80q72 -26 135 -26q62 0 97.5 19
t40.5 51q5 27 -21 46.5t-74 19.5zM200 79q51 0 96 32t70 79q-3 25 -2 48l3 9q-19 -13 -123 -36q-61 -13 -87.5 -28.5t-30.5 -45.5q-3 -26 15.5 -42t58.5 -16z" />
    <glyph glyph-name="ccedilla" unicode="&#xe7;" horiz-adv-x="557" 
d="M227 -237q-99 0 -152 58l75 43q37 -35 81 -35q56 0 62 33q4 16 -11 24.5t-47 8.5h-47l19 104q-93 24 -139.5 104t-28.5 179t94.5 163.5t179.5 64.5q79 0 139 -40t85 -104l-98 -42q-35 88 -132 89q-57 0 -105.5 -40.5t-59.5 -103.5q-12 -72 28.5 -126t112.5 -54
q44 0 81.5 23.5t60.5 63.5l94 -46q-35 -64 -98 -101.5t-141 -38.5l-7 -39q55 -4 80 -31.5t19 -67.5q-7 -42 -47 -65.5t-98 -23.5z" />
    <glyph glyph-name="egrave" unicode="&#xe8;" horiz-adv-x="562" 
d="M282 -10q-130 0 -196.5 86t-45.5 204q18 103 101.5 166.5t185.5 63.5t159.5 -51t43.5 -124q-12 -70 -75 -110t-160 -39q-80 -1 -162 33q3 -61 44.5 -98t110.5 -37q86 0 139 68l83 -53q-80 -109 -228 -109zM329 418q-58 0 -108 -30t-72 -81q68 -26 137 -26q63 0 99 18.5
t41 50.5q5 28 -20.5 48t-76.5 20zM303 554l-118 166h113l86 -166h-81z" />
    <glyph glyph-name="eacute" unicode="&#xe9;" horiz-adv-x="562" 
d="M282 -10q-130 0 -196.5 86t-45.5 204q18 103 101.5 166.5t185.5 63.5t159.5 -51t43.5 -124q-12 -70 -75 -110t-160 -39q-80 -1 -162 33q3 -61 44.5 -98t110.5 -37q86 0 139 68l83 -53q-80 -109 -228 -109zM329 418q-58 0 -108 -30t-72 -81q68 -26 137 -26q63 0 99 18.5
t41 50.5q5 28 -20.5 48t-76.5 20zM284 554l144 166h114l-176 -166h-82z" />
    <glyph glyph-name="ecircumflex" unicode="&#xea;" horiz-adv-x="562" 
d="M282 -10q-130 0 -196.5 86t-45.5 204q18 103 101.5 166.5t185.5 63.5t159.5 -51t43.5 -124q-12 -70 -75 -110t-160 -39q-80 -1 -162 33q3 -61 44.5 -98t110.5 -37q86 0 139 68l83 -53q-80 -109 -228 -109zM329 418q-58 0 -108 -30t-72 -81q68 -26 137 -26q63 0 99 18.5
t41 50.5q5 28 -20.5 48t-76.5 20zM176 554l148 166h76l90 -166h-92l-48 94l-82 -94h-92z" />
    <glyph glyph-name="edieresis" unicode="&#xeb;" horiz-adv-x="562" 
d="M282 -10q-130 0 -196.5 86t-45.5 204q18 103 101.5 166.5t185.5 63.5t159.5 -51t43.5 -124q-12 -70 -75 -110t-160 -39q-80 -1 -162 33q3 -61 44.5 -98t110.5 -37q86 0 139 68l83 -53q-80 -109 -228 -109zM329 418q-58 0 -108 -30t-72 -81q68 -26 137 -26q63 0 99 18.5
t41 50.5q5 28 -20.5 48t-76.5 20zM367 558l25 138h107l-24 -138h-108zM207 558l25 138h107l-25 -138h-107z" />
    <glyph glyph-name="igrave" unicode="&#xec;" horiz-adv-x="232" 
d="M119 0q-59 0 -78.5 33t-7.5 102l63 365h109l-63 -355q-5 -27 3 -38.5t32 -11.5h15l-18 -95h-55zM109 554l-118 166h113l86 -166h-81z" />
    <glyph glyph-name="iacute" unicode="&#xed;" horiz-adv-x="232" 
d="M119 0q-59 0 -78.5 33t-7.5 102l63 365h109l-63 -355q-5 -27 3 -38.5t32 -11.5h15l-18 -95h-55zM117 554l144 166h114l-176 -166h-82z" />
    <glyph glyph-name="icircumflex" unicode="&#xee;" horiz-adv-x="232" 
d="M119 0q-59 0 -78.5 33t-7.5 102l63 365h109l-63 -355q-5 -27 3 -38.5t32 -11.5h15l-18 -95h-55zM3 554l148 166h76l90 -166h-92l-48 94l-82 -94h-92z" />
    <glyph glyph-name="idieresis" unicode="&#xef;" horiz-adv-x="232" 
d="M119 0q-59 0 -78.5 33t-7.5 102l63 365h109l-63 -355q-5 -27 3 -38.5t32 -11.5h15l-18 -95h-55zM185 558l25 138h107l-24 -138h-108zM25 558l25 138h107l-25 -138h-107z" />
    <glyph glyph-name="eth" unicode="&#xf0;" horiz-adv-x="592" 
d="M173 547l15 75l81 24q-32 31 -94 84h147q27 -25 52 -52l137 41l-15 -75l-74 -23q165 -211 130 -403q-18 -101 -93 -164.5t-183 -63.5q-117 0 -186.5 81.5t-51.5 200.5q15 101 88 166t166 65q76 0 126 -35q-30 54 -95 124zM283 88q59 0 106 39t58 101q14 71 -24.5 126
t-114.5 56q-59 0 -105.5 -39.5t-58.5 -102.5q-13 -71 27 -125.5t112 -54.5z" />
    <glyph glyph-name="ntilde" unicode="&#xf1;" horiz-adv-x="581" 
d="M22 0l66 347q7 33 -1.5 46t-35.5 13h-16l17 94h49q77 0 91 -58q62 68 157 68q96 0 146 -65t28 -167l-27 -136q-6 -29 1 -39.5t34 -10.5h17l-18 -92h-49q-67 0 -89 33.5t-9 101.5l30 146q13 63 -12 99t-78 36q-113 0 -140 -144l-52 -272h-109zM188 554q11 58 43.5 93
t79.5 35q38 0 75 -25q38 -26 55 -26q31 0 40 47h71q-12 -60 -43.5 -94t-80.5 -34q-37 0 -85 32q-29 19 -46 19q-30 0 -39 -47h-70z" />
    <glyph glyph-name="ograve" unicode="&#xf2;" horiz-adv-x="590" 
d="M277 -10q-125 0 -192 87t-46 205q18 99 94.5 163.5t179.5 64.5q124 0 191.5 -87.5t46.5 -204.5q-18 -99 -93.5 -163.5t-180.5 -64.5zM282 89q60 0 107.5 39.5t58.5 102.5q12 71 -27.5 126t-112.5 56q-59 0 -107 -40.5t-59 -103.5q-12 -72 28 -126t112 -54zM292 554
l-118 166h113l86 -166h-81z" />
    <glyph glyph-name="oacute" unicode="&#xf3;" horiz-adv-x="590" 
d="M286 554l144 166h114l-176 -166h-82zM277 -10q-125 0 -192 87t-46 205q18 99 94.5 163.5t179.5 64.5q124 0 191.5 -87.5t46.5 -204.5q-18 -99 -93.5 -163.5t-180.5 -64.5zM282 89q60 0 107.5 39.5t58.5 102.5q12 71 -27.5 126t-112.5 56q-59 0 -107 -40.5t-59 -103.5
q-12 -72 28 -126t112 -54z" />
    <glyph glyph-name="ocircumflex" unicode="&#xf4;" horiz-adv-x="590" 
d="M277 -10q-125 0 -192 87t-46 205q18 99 94.5 163.5t179.5 64.5q124 0 191.5 -87.5t46.5 -204.5q-18 -99 -93.5 -163.5t-180.5 -64.5zM282 89q60 0 107.5 39.5t58.5 102.5q12 71 -27.5 126t-112.5 56q-59 0 -107 -40.5t-59 -103.5q-12 -72 28 -126t112 -54zM172 554
l148 166h76l90 -166h-92l-48 94l-82 -94h-92z" />
    <glyph glyph-name="otilde" unicode="&#xf5;" horiz-adv-x="590" 
d="M277 -10q-125 0 -192 87t-46 205q18 99 94.5 163.5t179.5 64.5q124 0 191.5 -87.5t46.5 -204.5q-18 -99 -93.5 -163.5t-180.5 -64.5zM282 89q60 0 107.5 39.5t58.5 102.5q12 71 -27.5 126t-112.5 56q-59 0 -107 -40.5t-59 -103.5q-12 -72 28 -126t112 -54zM144 554
q11 58 43.5 93t79.5 35q38 0 75 -25q38 -26 55 -26q31 0 40 47h71q-12 -60 -43.5 -94t-80.5 -34q-37 0 -85 32q-29 19 -46 19q-30 0 -39 -47h-70z" />
    <glyph glyph-name="odieresis" unicode="&#xf6;" horiz-adv-x="590" 
d="M355 558l25 138h107l-24 -138h-108zM195 558l25 138h107l-25 -138h-107zM277 -10q-125 0 -192 87t-46 205q18 99 94.5 163.5t179.5 64.5q124 0 191.5 -87.5t46.5 -204.5q-18 -99 -93.5 -163.5t-180.5 -64.5zM282 89q60 0 107.5 39.5t58.5 102.5q12 71 -27.5 126
t-112.5 56q-59 0 -107 -40.5t-59 -103.5q-12 -72 28 -126t112 -54z" />
    <glyph glyph-name="divide" unicode="&#xf7;" horiz-adv-x="452" 
d="M50 319l17 92h370l-17 -92h-370zM215 456l21 118h91l-21 -118h-91zM162 155l21 118h91l-21 -118h-91z" />
    <glyph glyph-name="oslash" unicode="&#xf8;" horiz-adv-x="590" 
d="M0 0l80 83q-61 85 -41 199q18 99 94.5 163.5t179.5 64.5q79 0 140 -40l29 30h110l-82 -85q61 -85 41 -197q-18 -99 -93.5 -163.5t-180.5 -64.5q-81 0 -139 39l-28 -29h-110zM142 269q-9 -59 15 -106l222 231q-32 18 -71 19q-59 0 -107 -40.5t-59 -103.5zM282 89
q60 0 107.5 39.5t58.5 102.5q9 58 -15 104l-221 -229q31 -17 70 -17z" />
    <glyph glyph-name="ugrave" unicode="&#xf9;" horiz-adv-x="572" 
d="M231 -10q-96 0 -145.5 63t-28.5 168l26 126q7 34 -1 47t-34 13h-14l16 93h61q111 0 84 -141l-28 -140q-12 -62 11 -98t77 -36t88.5 40.5t45.5 104.5l52 270h109l-66 -347q-6 -32 2 -46t34 -14h19l-17 -93h-52q-75 0 -91 55q-59 -65 -148 -65zM265 554l-118 166h113
l86 -166h-81z" />
    <glyph glyph-name="uacute" unicode="&#xfa;" horiz-adv-x="572" 
d="M231 -10q-96 0 -145.5 63t-28.5 168l26 126q7 34 -1 47t-34 13h-14l16 93h61q111 0 84 -141l-28 -140q-12 -62 11 -98t77 -36t88.5 40.5t45.5 104.5l52 270h109l-66 -347q-6 -32 2 -46t34 -14h19l-17 -93h-52q-75 0 -91 55q-59 -65 -148 -65zM253 554l144 166h114
l-176 -166h-82z" />
    <glyph glyph-name="ucircumflex" unicode="&#xfb;" horiz-adv-x="572" 
d="M231 -10q-96 0 -145.5 63t-28.5 168l26 126q7 34 -1 47t-34 13h-14l16 93h61q111 0 84 -141l-28 -140q-12 -62 11 -98t77 -36t88.5 40.5t45.5 104.5l52 270h109l-66 -347q-6 -32 2 -46t34 -14h19l-17 -93h-52q-75 0 -91 55q-59 -65 -148 -65zM154 554l148 166h76l90 -166
h-92l-48 94l-82 -94h-92z" />
    <glyph glyph-name="udieresis" unicode="&#xfc;" horiz-adv-x="572" 
d="M231 -10q-96 0 -145.5 63t-28.5 168l26 126q7 34 -1 47t-34 13h-14l16 93h61q111 0 84 -141l-28 -140q-12 -62 11 -98t77 -36t88.5 40.5t45.5 104.5l52 270h109l-66 -347q-6 -32 2 -46t34 -14h19l-17 -93h-52q-75 0 -91 55q-59 -65 -148 -65zM347 558l25 138h107
l-24 -138h-108zM187 558l25 138h107l-25 -138h-107z" />
    <glyph glyph-name="yacute" unicode="&#xfd;" horiz-adv-x="555" 
d="M204 -240q-79 0 -137 39t-80 105l108 34q26 -81 118 -81q112 0 138 149l1 4q1 4 2.5 13.5t3.5 17.5q-52 -51 -127 -51q-94 0 -143.5 63.5t-29.5 167.5l24 126q7 34 -1 47t-34 13h-13l16 93h61q112 0 83 -141l-27 -141q-12 -63 10 -98.5t76 -35.5q56 0 91.5 39.5
t46.5 105.5l50 271h106l-88 -491q-22 -121 -81.5 -185t-173.5 -64zM244 554l144 166h114l-176 -166h-82z" />
    <glyph glyph-name="thorn" unicode="&#xfe;" horiz-adv-x="601" 
d="M302 -10q-123 0 -172 89l-54 -309h-107l169 960h107q-27 -149 -48 -272q62 52 146 52q114 0 176.5 -84.5t41.5 -202.5q-16 -104 -90.5 -168.5t-168.5 -64.5zM292 88q63 0 109.5 42.5t57.5 104.5q12 72 -27.5 125t-112.5 53q-60 0 -108 -43t-58 -106q-12 -75 27 -125.5
t112 -50.5z" />
    <glyph glyph-name="ydieresis" unicode="&#xff;" horiz-adv-x="555" 
d="M204 -240q-79 0 -137 39t-80 105l108 34q26 -81 118 -81q112 0 138 149l1 4q1 4 2.5 13.5t3.5 17.5q-52 -51 -127 -51q-94 0 -143.5 63.5t-29.5 167.5l24 126q7 34 -1 47t-34 13h-13l16 93h61q112 0 83 -141l-27 -141q-12 -63 10 -98.5t76 -35.5q56 0 91.5 39.5
t46.5 105.5l50 271h106l-88 -491q-22 -121 -81.5 -185t-173.5 -64zM322 558l25 138h107l-24 -138h-108zM162 558l25 138h107l-25 -138h-107z" />
    <glyph glyph-name="Amacron" unicode="&#x100;" horiz-adv-x="687" 
d="M-23 0l403 730h109l132 -730h-111l-27 156h-305l-84 -156h-117zM410 581l-175 -321h230zM307 784l15 77h264l-15 -77h-264z" />
    <glyph glyph-name="amacron" unicode="&#x101;" horiz-adv-x="621" 
d="M268 -10q-121 0 -185 86t-43 205q17 98 92 163.5t173 65.5q120 0 170 -90l15 80h108l-65 -351q-5 -32 3.5 -44.5t39.5 -12.5h11l-17 -92h-51q-70 0 -88 60q-63 -70 -163 -70zM284 89q62 0 108 41.5t57 104.5q13 71 -26.5 124t-111.5 54q-63 0 -110.5 -42t-57.5 -103
q-12 -71 28 -125t113 -54zM229 554l15 77h264l-15 -77h-264z" />
    <glyph glyph-name="Abreve" unicode="&#x102;" horiz-adv-x="687" 
d="M-23 0l403 730h109l132 -730h-111l-27 156h-305l-84 -156h-117zM410 581l-175 -321h230zM441 780q-78 0 -111.5 46.5t-20.5 119.5h76q-9 -47 9 -73t59 -27q83 2 102 100h77q-13 -72 -65 -119t-126 -47z" />
    <glyph glyph-name="abreve" unicode="&#x103;" horiz-adv-x="621" 
d="M268 -10q-121 0 -185 86t-43 205q17 98 92 163.5t173 65.5q120 0 170 -90l15 80h108l-65 -351q-5 -32 3.5 -44.5t39.5 -12.5h11l-17 -92h-51q-70 0 -88 60q-63 -70 -163 -70zM284 89q62 0 108 41.5t57 104.5q13 71 -26.5 124t-111.5 54q-63 0 -110.5 -42t-57.5 -103
q-12 -71 28 -125t113 -54zM347 549q-78 0 -111.5 46.5t-20.5 119.5h76q-9 -47 9 -73t59 -27q83 2 102 100h77q-13 -72 -65 -119t-126 -47z" />
    <glyph glyph-name="Aogonek" unicode="&#x104;" horiz-adv-x="687" 
d="M505 -223q-61 0 -94.5 31.5t-25.5 76.5q5 35 33 65.5t89 63.5l-24 142h-305l-84 -156h-117l403 730h109l132 -730q-90 -52 -116.5 -72t-29.5 -40q-4 -18 8.5 -27.5t33.5 -9.5q30 0 73 31l63 -48q-75 -57 -148 -57zM410 581l-175 -321h230z" />
    <glyph glyph-name="aogonek" unicode="&#x105;" horiz-adv-x="621" 
d="M268 -10q-121 0 -185 86t-43 205q17 98 92 163.5t173 65.5q120 0 170 -90l15 80h108l-65 -351q-5 -32 3.5 -44.5t39.5 -12.5h11l-17 -92q-90 -52 -116.5 -72t-29.5 -40q-4 -18 8.5 -27.5t33.5 -9.5q30 0 73 31l63 -48q-75 -57 -148 -57q-61 0 -94.5 31.5t-25.5 76.5
q6 36 34.5 67t92.5 64q-20 15 -30 44q-63 -70 -163 -70zM284 89q62 0 108 41.5t57 104.5q13 71 -26.5 124t-111.5 54q-63 0 -110.5 -42t-57.5 -103q-12 -71 28 -125t113 -54z" />
    <glyph glyph-name="Cacute" unicode="&#x106;" horiz-adv-x="763" 
d="M455 784l144 166h114l-176 -166h-82zM401 -10q-175 -1 -271.5 122.5t-65.5 294.5q25 143 138 238t265 95q108 0 191 -53.5t124 -141.5l-105 -51q-58 141 -219 141q-105 0 -186 -68.5t-100 -175.5q-21 -118 45.5 -206t190.5 -88q147 0 230 131l97 -55q-121 -182 -334 -183
z" />
    <glyph glyph-name="cacute" unicode="&#x107;" horiz-adv-x="557" 
d="M296 554l144 166h114l-176 -166h-82zM277 -10q-125 0 -192 87t-46 205q18 99 94.5 163.5t179.5 64.5q79 0 139 -40t85 -104l-98 -42q-35 88 -132 89q-57 0 -105.5 -40.5t-59.5 -103.5q-12 -72 28.5 -126t112.5 -54q44 0 81.5 23.5t60.5 63.5l94 -46q-35 -65 -98.5 -102.5
t-143.5 -37.5z" />
    <glyph glyph-name="Ccircumflex" unicode="&#x108;" horiz-adv-x="763" 
d="M401 -10q-175 -1 -271.5 122.5t-65.5 294.5q25 143 138 238t265 95q108 0 191 -53.5t124 -141.5l-105 -51q-58 141 -219 141q-105 0 -186 -68.5t-100 -175.5q-21 -118 45.5 -206t190.5 -88q147 0 230 131l97 -55q-121 -182 -334 -183zM344 784l148 166h76l90 -166h-92
l-48 94l-82 -94h-92z" />
    <glyph glyph-name="ccircumflex" unicode="&#x109;" horiz-adv-x="557" 
d="M277 -10q-125 0 -192 87t-46 205q18 99 94.5 163.5t179.5 64.5q79 0 139 -40t85 -104l-98 -42q-35 88 -132 89q-57 0 -105.5 -40.5t-59.5 -103.5q-12 -72 28.5 -126t112.5 -54q44 0 81.5 23.5t60.5 63.5l94 -46q-35 -65 -98.5 -102.5t-143.5 -37.5zM188 554l148 166h76
l90 -166h-92l-48 94l-82 -94h-92z" />
    <glyph glyph-name="Cdotaccent" unicode="&#x10a;" horiz-adv-x="763" 
d="M401 -10q-175 -1 -271.5 122.5t-65.5 294.5q25 143 138 238t265 95q108 0 191 -53.5t124 -141.5l-105 -51q-58 141 -219 141q-105 0 -186 -68.5t-100 -175.5q-21 -118 45.5 -206t190.5 -88q147 0 230 131l97 -55q-121 -182 -334 -183zM445 788l24 138h107l-24 -138h-107z
" />
    <glyph glyph-name="cdotaccent" unicode="&#x10b;" horiz-adv-x="557" 
d="M277 -10q-125 0 -192 87t-46 205q18 99 94.5 163.5t179.5 64.5q79 0 139 -40t85 -104l-98 -42q-35 88 -132 89q-57 0 -105.5 -40.5t-59.5 -103.5q-12 -72 28.5 -126t112.5 -54q44 0 81.5 23.5t60.5 63.5l94 -46q-35 -65 -98.5 -102.5t-143.5 -37.5zM291 558l24 138h107
l-24 -138h-107z" />
    <glyph glyph-name="Ccaron" unicode="&#x10c;" horiz-adv-x="763" 
d="M401 -10q-175 -1 -271.5 122.5t-65.5 294.5q25 143 138 238t265 95q108 0 191 -53.5t124 -141.5l-105 -51q-58 141 -219 141q-105 0 -186 -68.5t-100 -175.5q-21 -118 45.5 -206t190.5 -88q147 0 230 131l97 -55q-121 -182 -334 -183zM453 784l-90 166h92l48 -94l82 94
h92l-149 -166h-75z" />
    <glyph glyph-name="ccaron" unicode="&#x10d;" horiz-adv-x="557" 
d="M277 -10q-125 0 -192 87t-46 205q18 99 94.5 163.5t179.5 64.5q79 0 139 -40t85 -104l-98 -42q-35 88 -132 89q-57 0 -105.5 -40.5t-59.5 -103.5q-12 -72 28.5 -126t112.5 -54q44 0 81.5 23.5t60.5 63.5l94 -46q-35 -65 -98.5 -102.5t-143.5 -37.5zM307 554l-90 166h92
l48 -94l82 94h92l-149 -166h-75z" />
    <glyph glyph-name="Dcaron" unicode="&#x10e;" horiz-adv-x="687" 
d="M12 0l128 730h207q160 -1 254.5 -115t66.5 -271q-26 -148 -136.5 -246t-263.5 -98h-256zM333 629h-101l-92 -527h136q103 0 183 71t99 178q20 115 -44.5 196.5t-180.5 81.5zM335 784l-90 166h92l48 -94l82 94h92l-149 -166h-75z" />
    <glyph glyph-name="dcaron" unicode="&#x10f;" horiz-adv-x="652" 
d="M268 -10q-121 0 -185 86t-44 205q17 98 92 163.5t173 65.5q119 0 170 -89l57 309h108l-106 -581q-6 -31 3 -44t39 -13h12l-17 -92h-52q-71 0 -88 63q-64 -73 -162 -73zM283 89q62 0 108 41.5t57 104.5q13 71 -26.5 124t-110.5 54q-63 0 -110.5 -41.5t-58.5 -103.5
q-12 -71 28.5 -125t112.5 -54zM659 563l81 166h93l-103 -166h-71z" />
    <glyph glyph-name="Dcroat" unicode="&#x110;" horiz-adv-x="722" 
d="M32 326l16 91h72l55 313h207q160 -1 254.5 -115t66.5 -271q-26 -148 -136.5 -246t-263.5 -98h-256l57 326h-72zM401 326h-187l-39 -224h136q103 0 183 71t99 178q20 115 -44.5 196.5t-180.5 81.5h-101l-37 -212h186z" />
    <glyph glyph-name="dcroat" unicode="&#x111;" horiz-adv-x="634" 
d="M410 558l13 68h89l19 104h108l-19 -104h59l-12 -68h-60l-74 -409q-6 -31 3 -44t39 -13h12l-17 -92h-52q-71 0 -88 63q-64 -73 -162 -73q-121 0 -185 86t-44 205q17 98 92 163.5t173 65.5q119 0 170 -89l25 137h-89zM283 89q62 0 108 41.5t57 104.5q13 71 -26.5 124
t-110.5 54q-63 0 -110.5 -41.5t-58.5 -103.5q-12 -71 28.5 -125t112.5 -54z" />
    <glyph glyph-name="Emacron" unicode="&#x112;" horiz-adv-x="540" 
d="M12 0l128 730h438l-18 -102h-327l-37 -208h328l-19 -103h-327l-38 -214h328l-18 -103h-438zM237 784l15 77h264l-15 -77h-264z" />
    <glyph glyph-name="emacron" unicode="&#x113;" horiz-adv-x="562" 
d="M282 -10q-130 0 -196.5 86t-45.5 204q18 103 101.5 166.5t185.5 63.5t159.5 -51t43.5 -124q-12 -70 -75 -110t-160 -39q-80 -1 -162 33q3 -61 44.5 -98t110.5 -37q86 0 139 68l83 -53q-80 -109 -228 -109zM329 418q-58 0 -108 -30t-72 -81q68 -26 137 -26q63 0 99 18.5
t41 50.5q5 28 -20.5 48t-76.5 20zM205 554l15 77h264l-15 -77h-264z" />
    <glyph glyph-name="Ebreve" unicode="&#x114;" horiz-adv-x="540" 
d="M12 0l128 730h438l-18 -102h-327l-37 -208h328l-19 -103h-327l-38 -214h328l-18 -103h-438zM368 780q-78 0 -111.5 46.5t-20.5 119.5h76q-9 -47 9 -73t59 -27q83 2 102 100h77q-13 -72 -65 -119t-126 -47z" />
    <glyph glyph-name="ebreve" unicode="&#x115;" horiz-adv-x="562" 
d="M282 -10q-130 0 -196.5 86t-45.5 204q18 103 101.5 166.5t185.5 63.5t159.5 -51t43.5 -124q-12 -70 -75 -110t-160 -39q-80 -1 -162 33q3 -61 44.5 -98t110.5 -37q86 0 139 68l83 -53q-80 -109 -228 -109zM338 549q-78 0 -111.5 46.5t-20.5 119.5h76q-9 -47 9 -73t59 -27
q83 2 102 100h77q-13 -72 -65 -119t-126 -47zM329 418q-58 0 -108 -30t-72 -81q68 -26 137 -26q63 0 99 18.5t41 50.5q5 28 -20.5 48t-76.5 20z" />
    <glyph glyph-name="Edotaccent" unicode="&#x116;" horiz-adv-x="540" 
d="M12 0l128 730h438l-18 -102h-327l-37 -208h328l-19 -103h-327l-38 -214h328l-18 -103h-438zM331 788l24 138h107l-24 -138h-107z" />
    <glyph glyph-name="edotaccent" unicode="&#x117;" horiz-adv-x="562" 
d="M282 -10q-130 0 -196.5 86t-45.5 204q18 103 101.5 166.5t185.5 63.5t159.5 -51t43.5 -124q-12 -70 -75 -110t-160 -39q-80 -1 -162 33q3 -61 44.5 -98t110.5 -37q86 0 139 68l83 -53q-80 -109 -228 -109zM329 418q-58 0 -108 -30t-72 -81q68 -26 137 -26q63 0 99 18.5
t41 50.5q5 28 -20.5 48t-76.5 20zM285 558l24 138h107l-24 -138h-107z" />
    <glyph glyph-name="Eogonek" unicode="&#x118;" horiz-adv-x="540" 
d="M12 0l128 730h438l-18 -102h-327l-37 -208h328l-19 -103h-327l-38 -214h328l-18 -103h1q-90 -52 -116.5 -72t-29.5 -40q-4 -18 8.5 -27.5t33.5 -9.5q30 0 73 31l63 -48q-75 -57 -148 -57q-61 0 -94.5 31.5t-25.5 76.5q11 63 97 115h-300z" />
    <glyph glyph-name="eogonek" unicode="&#x119;" horiz-adv-x="562" 
d="M204 -224q-61 0 -94.5 31.5t-25.5 76.5q6 33 29.5 61.5t76.5 58.5q-87 29 -127 105.5t-23 170.5q18 103 101.5 166.5t185.5 63.5t159.5 -51t43.5 -124q-12 -70 -75 -110t-160 -39q-80 -1 -162 33q3 -61 44.5 -98t110.5 -37q86 0 139 68l83 -53q-73 -100 -206 -108
q-79 -45 -103 -64.5t-27 -39.5q-4 -18 8.5 -27.5t33.5 -9.5q30 0 73 31l63 -48q-75 -57 -148 -57zM329 418q-58 0 -108 -30t-72 -81q68 -26 137 -26q63 0 99 18.5t41 50.5q5 28 -20.5 48t-76.5 20z" />
    <glyph glyph-name="Ecaron" unicode="&#x11a;" horiz-adv-x="540" 
d="M12 0l128 730h438l-18 -102h-327l-37 -208h328l-19 -103h-327l-38 -214h328l-18 -103h-438zM330 784l-90 166h92l48 -94l82 94h92l-149 -166h-75z" />
    <glyph glyph-name="ecaron" unicode="&#x11b;" horiz-adv-x="562" 
d="M282 -10q-130 0 -196.5 86t-45.5 204q18 103 101.5 166.5t185.5 63.5t159.5 -51t43.5 -124q-12 -70 -75 -110t-160 -39q-80 -1 -162 33q3 -61 44.5 -98t110.5 -37q86 0 139 68l83 -53q-80 -109 -228 -109zM329 418q-58 0 -108 -30t-72 -81q68 -26 137 -26q63 0 99 18.5
t41 50.5q5 28 -20.5 48t-76.5 20zM301 554l-90 166h92l48 -94l82 94h92l-149 -166h-75z" />
    <glyph glyph-name="Gcircumflex" unicode="&#x11c;" horiz-adv-x="812" 
d="M402 -10q-112 0 -197 57t-123.5 152t-19.5 204q24 143 136 240t268 97q107 0 189.5 -52t123.5 -134l-105 -56q-64 137 -219 137q-109 0 -187.5 -70.5t-97.5 -172.5q-21 -118 48 -206.5t194 -88.5q96 0 161 52.5t92 140.5h-262l19 104h380l-7 -42q-25 -165 -131.5 -263.5
t-261.5 -98.5zM332 784l148 166h76l90 -166h-92l-48 94l-82 -94h-92z" />
    <glyph glyph-name="gcircumflex" unicode="&#x11d;" horiz-adv-x="606" 
d="M268 -10q-121 0 -185 86t-44 205q17 99 91.5 164t173.5 65q121 0 169 -90l15 80h109l-87 -491q-44 -249 -267 -249q-82 0 -143 39t-86 103l109 36q29 -81 128 -81q62 0 100 40.5t50 108.5l1 2q0 1 0.5 5t1.5 9t2 12l2 14q-52 -58 -140 -58zM283 89q62 0 108 41.5
t57 104.5q13 71 -26.5 124t-111.5 54q-62 0 -109.5 -42t-58.5 -103q-12 -71 28.5 -125t112.5 -54zM192 554l148 166h76l90 -166h-92l-48 94l-82 -94h-92z" />
    <glyph glyph-name="Gbreve" unicode="&#x11e;" horiz-adv-x="812" 
d="M402 -10q-112 0 -197 57t-123.5 152t-19.5 204q24 143 136 240t268 97q107 0 189.5 -52t123.5 -134l-105 -56q-64 137 -219 137q-109 0 -187.5 -70.5t-97.5 -172.5q-21 -118 48 -206.5t194 -88.5q96 0 161 52.5t92 140.5h-262l19 104h380l-7 -42q-25 -165 -131.5 -263.5
t-261.5 -98.5zM489 780q-78 0 -111.5 46.5t-20.5 119.5h76q-9 -47 9 -73t59 -27q83 2 102 100h77q-13 -72 -65 -119t-126 -47z" />
    <glyph glyph-name="gbreve" unicode="&#x11f;" horiz-adv-x="606" 
d="M268 -10q-121 0 -185 86t-44 205q17 99 91.5 164t173.5 65q121 0 169 -90l15 80h109l-87 -491q-44 -249 -267 -249q-82 0 -143 39t-86 103l109 36q29 -81 128 -81q62 0 100 40.5t50 108.5l1 2q0 1 0.5 5t1.5 9t2 12l2 14q-52 -58 -140 -58zM283 89q62 0 108 41.5
t57 104.5q13 71 -26.5 124t-111.5 54q-62 0 -109.5 -42t-58.5 -103q-12 -71 28.5 -125t112.5 -54zM350 549q-78 0 -111.5 46.5t-20.5 119.5h76q-9 -47 9 -73t59 -27q83 2 102 100h77q-13 -72 -65 -119t-126 -47z" />
    <glyph glyph-name="Gdotaccent" unicode="&#x120;" horiz-adv-x="812" 
d="M402 -10q-112 0 -197 57t-123.5 152t-19.5 204q24 143 136 240t268 97q107 0 189.5 -52t123.5 -134l-105 -56q-64 137 -219 137q-109 0 -187.5 -70.5t-97.5 -172.5q-21 -118 48 -206.5t194 -88.5q96 0 161 52.5t92 140.5h-262l19 104h380l-7 -42q-25 -165 -131.5 -263.5
t-261.5 -98.5zM440 788l24 138h107l-24 -138h-107z" />
    <glyph glyph-name="gdotaccent" unicode="&#x121;" horiz-adv-x="606" 
d="M268 -10q-121 0 -185 86t-44 205q17 99 91.5 164t173.5 65q121 0 169 -90l15 80h109l-87 -491q-44 -249 -267 -249q-82 0 -143 39t-86 103l109 36q29 -81 128 -81q62 0 100 40.5t50 108.5l1 2q0 1 0.5 5t1.5 9t2 12l2 14q-52 -58 -140 -58zM283 89q62 0 108 41.5
t57 104.5q13 71 -26.5 124t-111.5 54q-62 0 -109.5 -42t-58.5 -103q-12 -71 28.5 -125t112.5 -54zM282 558l24 138h107l-24 -138h-107z" />
    <glyph glyph-name="Gcommaaccent" unicode="&#x122;" horiz-adv-x="812" 
d="M402 -10q-112 0 -197 57t-123.5 152t-19.5 204q24 143 136 240t268 97q107 0 189.5 -52t123.5 -134l-105 -56q-64 137 -219 137q-109 0 -187.5 -70.5t-97.5 -172.5q-21 -118 48 -206.5t194 -88.5q96 0 161 52.5t92 140.5h-262l19 104h380l-7 -42q-25 -165 -131.5 -263.5
t-261.5 -98.5zM248 -256l74 204h95l-102 -204h-67z" />
    <glyph glyph-name="gcommaaccent" unicode="&#x123;" horiz-adv-x="606" 
d="M268 -10q-121 0 -185 86t-44 205q17 99 91.5 164t173.5 65q121 0 169 -90l15 80h109l-87 -491q-44 -249 -267 -249q-82 0 -143 39t-86 103l109 36q29 -81 128 -81q62 0 100 40.5t50 108.5l1 2q0 1 0.5 5t1.5 9t2 12l2 14q-52 -58 -140 -58zM283 89q62 0 108 41.5
t57 104.5q13 71 -26.5 124t-111.5 54q-62 0 -109.5 -42t-58.5 -103q-12 -71 28.5 -125t112.5 -54zM304 552l74 204h95l-102 -204h-67z" />
    <glyph glyph-name="Hcircumflex" unicode="&#x124;" horiz-adv-x="645" 
d="M429 0l55 313h-303l-55 -313h-110l128 730h110l-55 -312h303l55 312h110l-128 -730h-110zM259 784l148 166h76l90 -166h-92l-48 94l-82 -94h-92z" />
    <glyph glyph-name="hcircumflex" unicode="&#x125;" horiz-adv-x="563" 
d="M10 0l128 730h107l-49 -277q59 57 139 57q94 0 142.5 -63.5t27.5 -166.5l-27 -138q-6 -29 1.5 -39.5t34.5 -10.5h15l-17 -92h-48q-68 0 -89 33.5t-8 101.5l29 146q12 63 -13 99t-78 36q-114 0 -139 -143l-48 -273h-108zM44 779l148 166h76l90 -166h-92l-48 94l-82 -94
h-92z" />
    <glyph glyph-name="Hbar" unicode="&#x126;" horiz-adv-x="664" 
d="M65 533l14 83h54l20 114h110l-20 -114h303l20 114h110l-20 -114h54l-14 -83h-55l-93 -533h-110l55 313h-303l-55 -313h-110l93 533h-53zM228 533l-20 -115h303l20 115h-303z" />
    <glyph glyph-name="hbar" unicode="&#x127;" horiz-adv-x="571" 
d="M56 573l12 68h62l16 89h107l-16 -89l92 1l-12 -68l-92 -1l-21 -120q58 57 139 57q94 0 142.5 -63.5t27.5 -166.5l-27 -138q-6 -29 1.5 -39.5t34.5 -10.5h15l-17 -92h-48q-68 0 -89 33.5t-8 101.5l29 146q12 63 -13 99t-78 36q-114 0 -139 -143l-48 -273h-108l100 573h-62
z" />
    <glyph glyph-name="Itilde" unicode="&#x128;" horiz-adv-x="236" 
d="M19 0l128 730h110l-128 -730h-110zM49 784q11 58 43.5 93t79.5 35q38 0 75 -25q38 -26 55 -26q31 0 40 47h71q-12 -60 -43.5 -94t-80.5 -34q-37 0 -85 32q-28 19 -46 19q-30 0 -39 -47h-70z" />
    <glyph glyph-name="itilde" unicode="&#x129;" horiz-adv-x="232" 
d="M119 0q-59 0 -78.5 33t-7.5 102l63 365h109l-63 -355q-5 -27 3 -38.5t32 -11.5h15l-18 -95h-55zM-11 554q11 58 43.5 93t79.5 35q38 0 75 -25q38 -26 55 -26q31 0 40 47h71q-12 -60 -43.5 -94t-80.5 -34q-37 0 -85 32q-28 19 -46 19q-30 0 -39 -47h-70z" />
    <glyph glyph-name="Imacron" unicode="&#x12a;" horiz-adv-x="236" 
d="M19 0l128 730h110l-128 -730h-110zM79 784l15 77h264l-15 -77h-264z" />
    <glyph glyph-name="imacron" unicode="&#x12b;" horiz-adv-x="232" 
d="M119 0q-59 0 -78.5 33t-7.5 102l63 365h109l-63 -355q-5 -27 3 -38.5t32 -11.5h15l-18 -95h-55zM28 554l15 77h264l-15 -77h-264z" />
    <glyph glyph-name="Ibreve" unicode="&#x12c;" horiz-adv-x="236" 
d="M19 0l128 730h110l-128 -730h-110zM211 780q-78 0 -111.5 46.5t-20.5 119.5h76q-9 -47 9 -73t59 -27q83 2 102 100h77q-13 -72 -65 -119t-126 -47z" />
    <glyph glyph-name="ibreve" unicode="&#x12d;" horiz-adv-x="232" 
d="M119 0q-59 0 -78.5 33t-7.5 102l63 365h109l-63 -355q-5 -27 3 -38.5t32 -11.5h15l-18 -95h-55zM159 549q-78 0 -111.5 46.5t-20.5 119.5h76q-9 -47 9 -73t59 -27q83 2 102 100h77q-13 -72 -65 -119t-126 -47z" />
    <glyph glyph-name="Iogonek" unicode="&#x12e;" horiz-adv-x="236" 
d="M11 -223q-61 0 -94.5 31.5t-25.5 76.5q12 72 131 133l125 712h110l-128 -730h-2q-90 -52 -116.5 -72t-29.5 -40q-4 -18 8.5 -27.5t33.5 -9.5q30 0 73 31l63 -48q-75 -57 -148 -57z" />
    <glyph glyph-name="iogonek" unicode="&#x12f;" horiz-adv-x="232" 
d="M60 -223q-61 0 -94.5 31.5t-25.5 76.5q6 35 33.5 65.5t87.5 62.5q-45 26 -28 122l63 365h109l-63 -355q-5 -27 3 -38.5t32 -11.5h15l-18 -94l2 -1q-90 -52 -116.5 -72t-29.5 -40q-4 -18 8.5 -27.5t33.5 -9.5q30 0 73 31l63 -48q-75 -57 -148 -57zM107 558l24 140h108
l-24 -140h-108z" />
    <glyph glyph-name="Idotaccent" unicode="&#x130;" horiz-adv-x="236" 
d="M19 0l128 730h110l-128 -730h-110zM157 788l24 138h107l-24 -138h-107z" />
    <glyph glyph-name="dotlessi" unicode="&#x131;" horiz-adv-x="232" 
d="M119 0q-59 0 -78.5 33t-7.5 102l63 365h109l-63 -355q-5 -27 3 -38.5t32 -11.5h15l-18 -95h-55z" />
    <glyph glyph-name="IJ" unicode="&#x132;" horiz-adv-x="571" 
d="M193 0l18 103h76q53 0 78 22.5t33 75.5l95 529h110l-96 -533q-19 -113 -66 -155t-162 -42h-86zM17 0l128 730h110l-128 -730h-110z" />
    <glyph glyph-name="ij" unicode="&#x133;" horiz-adv-x="400" 
d="M118 0h-108l87 500h109zM108 558l24 140h108l-24 -140h-108zM-21 -175l18 100h82q67 0 87 17t33 88l84 470h108l-84 -471q-21 -121 -62 -162.5t-149 -41.5h-117zM293 558l25 140h108l-25 -140h-108z" />
    <glyph glyph-name="Jcircumflex" unicode="&#x134;" horiz-adv-x="499" 
d="M206 -10q-77 0 -131 42.5t-70 113.5l105 31q23 -85 105 -85q45 0 74 30.5t38 78.5l94 529h110l-93 -519q-38 -221 -232 -221zM323 784l148 166h76l90 -166h-92l-48 94l-82 -94h-92z" />
    <glyph glyph-name="jcircumflex" unicode="&#x135;" horiz-adv-x="218" 
d="M-132 -230l18 100q67 0 87.5 17t33.5 88l93 525h109l-94 -526q-21 -121 -62 -162.5t-149 -41.5h-36zM5 554l148 166h76l90 -166h-92l-48 94l-82 -94h-92z" />
    <glyph glyph-name="Kcommaaccent" unicode="&#x136;" horiz-adv-x="630" 
d="M453 0l-159 364l-130 -125l-42 -239h-110l128 730h110l-60 -342l356 342h141l-307 -295l191 -435h-118zM150 -256l74 204h95l-102 -204h-67z" />
    <glyph glyph-name="kcommaaccent" unicode="&#x137;" horiz-adv-x="540" 
d="M464 0q-50 0 -74.5 8t-39.5 26t-38 63l-68 130l-104 -94l-23 -133h-107l128 730h107l-82 -465l259 235h137l-234 -213l77 -148q15 -29 28 -37.5t43 -8.5h23l-16 -93h-16zM112 -251l74 204h95l-102 -204h-67z" />
    <glyph glyph-name="kgreenlandic" unicode="&#x138;" horiz-adv-x="536" 
d="M460 0q-70 0 -95 16.5t-57 80.5l-64 123l-106 -99l-21 -121h-107l87 499h108l-43 -241l256 242h136l-230 -218l75 -143q15 -29 27.5 -37.5t42.5 -8.5h24l-16 -93h-17z" />
    <glyph glyph-name="Lacute" unicode="&#x139;" horiz-adv-x="503" 
d="M12 0l128 730h110l-110 -626h294l-18 -104h-404zM163 784l144 166h114l-176 -166h-82z" />
    <glyph glyph-name="lacute" unicode="&#x13a;" horiz-adv-x="237" 
d="M125 0q-46 0 -69.5 19t-25.5 51.5t5 76.5l102 583h109l-103 -584q-5 -28 3 -39.5t32 -11.5h15l-18 -95h-50zM157 779l144 166h114l-176 -166h-82z" />
    <glyph glyph-name="Lcommaaccent" unicode="&#x13b;" horiz-adv-x="503" 
d="M12 0l128 730h110l-110 -626h294l-18 -104h-404zM82 -256l74 204h95l-102 -204h-67z" />
    <glyph glyph-name="lcommaaccent" unicode="&#x13c;" horiz-adv-x="237" 
d="M125 0q-46 0 -69.5 19t-25.5 51.5t5 76.5l102 583h109l-103 -584q-5 -28 3 -39.5t32 -11.5h15l-18 -95h-50zM-26 -251l74 204h95l-102 -204h-67z" />
    <glyph glyph-name="Lcaron" unicode="&#x13d;" horiz-adv-x="503" 
d="M12 0l128 730h110l-110 -626h294l-18 -104h-404zM323 564l81 166h93l-103 -166h-71z" />
    <glyph glyph-name="lcaron" unicode="&#x13e;" horiz-adv-x="306" 
d="M125 0q-46 0 -69.5 19t-25.5 51.5t5 76.5l102 583h109l-103 -584q-5 -28 3 -39.5t32 -11.5h15l-18 -95h-50zM254 564l81 166h93l-103 -166h-71z" />
    <glyph glyph-name="Ldot" unicode="&#x13f;" horiz-adv-x="504" 
d="M12 0l128 730h110l-110 -626h294l-18 -104h-404zM358 292l24 138h107l-24 -138h-107z" />
    <glyph glyph-name="ldot" unicode="&#x140;" horiz-adv-x="362" 
d="M125 0q-46 0 -69.5 19t-25.5 51.5t5 76.5l102 583h109l-103 -584q-5 -28 3 -39.5t32 -11.5h15l-18 -95h-50zM212 195l24 138h107l-24 -138h-107z" />
    <glyph glyph-name="Lslash" unicode="&#x141;" horiz-adv-x="549" 
d="M35 312l15 78l83 24l56 316h110l-50 -283l194 56l-15 -79l-193 -55l-46 -265h294l-18 -104h-404l59 336z" />
    <glyph glyph-name="lslash" unicode="&#x142;" horiz-adv-x="290" 
d="M16 320l14 76l81 22l55 312h109l-50 -281l94 26l-13 -76l-94 -26l-40 -227q-5 -28 3 -39.5t32 -11.5h15l-18 -95h-50q-46 0 -69.5 19t-25.5 51.5t5 76.5l34 195z" />
    <glyph glyph-name="Nacute" unicode="&#x143;" horiz-adv-x="691" 
d="M12 0l128 730h115l257 -542l96 542h110l-128 -730h-107l-264 555l-97 -555h-110zM408 784l144 166h114l-176 -166h-82z" />
    <glyph glyph-name="nacute" unicode="&#x144;" horiz-adv-x="580" 
d="M22 0l66 347q7 33 -1.5 46t-35.5 13h-16l17 94h49q77 0 91 -58q62 68 157 68q96 0 146 -65t28 -167l-27 -136q-6 -29 1 -39.5t34 -10.5h17l-18 -92h-49q-67 0 -89 33.5t-9 101.5l30 146q13 63 -12 99t-78 36q-113 0 -140 -144l-52 -272h-109zM325 554l144 166h114
l-176 -166h-82z" />
    <glyph glyph-name="Ncommaaccent" unicode="&#x145;" horiz-adv-x="691" 
d="M12 0l128 730h115l257 -542l96 542h110l-128 -730h-107l-264 555l-97 -555h-110zM177 -256l74 204h95l-102 -204h-67z" />
    <glyph glyph-name="ncommaaccent" unicode="&#x146;" horiz-adv-x="581" 
d="M22 0l66 347q7 33 -1.5 46t-35.5 13h-16l17 94h49q77 0 91 -58q62 68 157 68q96 0 146 -65t28 -167l-27 -136q-6 -29 1 -39.5t34 -10.5h17l-18 -92h-49q-67 0 -89 33.5t-9 101.5l30 146q13 63 -12 99t-78 36q-113 0 -140 -144l-52 -272h-109zM151 -251l74 204h95
l-102 -204h-67z" />
    <glyph glyph-name="Ncaron" unicode="&#x147;" horiz-adv-x="691" 
d="M12 0l128 730h115l257 -542l96 542h110l-128 -730h-107l-264 555l-97 -555h-110zM410 784l-90 166h92l48 -94l82 94h92l-149 -166h-75z" />
    <glyph glyph-name="ncaron" unicode="&#x148;" horiz-adv-x="581" 
d="M22 0l66 347q7 33 -1.5 46t-35.5 13h-16l17 94h49q77 0 91 -58q62 68 157 68q96 0 146 -65t28 -167l-27 -136q-6 -29 1 -39.5t34 -10.5h17l-18 -92h-49q-67 0 -89 33.5t-9 101.5l30 146q13 63 -12 99t-78 36q-113 0 -140 -144l-52 -272h-109zM322 554l-90 166h92l48 -94
l82 94h92l-149 -166h-75z" />
    <glyph glyph-name="Eng" unicode="&#x14a;" horiz-adv-x="691" 
d="M311 -232l19 103h24q61 0 87.5 24.5t35.5 81.5l5 24l-263 554l-97 -555h-110l128 730h115l257 -542l96 542h110l-130 -744q-21 -123 -70 -170.5t-162 -47.5h-45z" />
    <glyph glyph-name="eng" unicode="&#x14b;" horiz-adv-x="568" 
d="M213 -230l18 100q70 0 90 16.5t34 88.5q0 2 12 62.5t27 139t20 104.5q11 63 -13.5 99t-76.5 36q-114 0 -141 -144l-52 -272h-109l66 347q7 33 -1.5 46t-35.5 13h-16l17 94h49q76 0 91 -58q63 68 159 68q94 0 143 -64.5t29 -167.5l-58 -304q-23 -122 -64.5 -163
t-151.5 -41h-36z" />
    <glyph glyph-name="Omacron" unicode="&#x14c;" horiz-adv-x="819" 
d="M357 784l15 77h264l-15 -77h-264zM401 -10q-168 0 -268 123t-71 290q26 145 138 241t259 96q112 0 197.5 -58.5t122.5 -153.5t19 -201q-26 -146 -137 -241.5t-260 -95.5zM411 96q104 0 182 69t97 173q21 117 -47.5 207t-191.5 90q-105 0 -183.5 -69t-96.5 -174
q-21 -120 48 -208t192 -88z" />
    <glyph glyph-name="omacron" unicode="&#x14d;" horiz-adv-x="590" 
d="M189 554l15 77h264l-15 -77h-264zM277 -10q-125 0 -192 87t-46 205q18 99 94.5 163.5t179.5 64.5q124 0 191.5 -87.5t46.5 -204.5q-18 -99 -93.5 -163.5t-180.5 -64.5zM282 89q60 0 107.5 39.5t58.5 102.5q12 71 -27.5 126t-112.5 56q-59 0 -107 -40.5t-59 -103.5
q-12 -72 28 -126t112 -54z" />
    <glyph glyph-name="Obreve" unicode="&#x14e;" horiz-adv-x="819" 
d="M401 -10q-168 0 -268 123t-71 290q26 145 138 241t259 96q112 0 197.5 -58.5t122.5 -153.5t19 -201q-26 -146 -137 -241.5t-260 -95.5zM411 96q104 0 182 69t97 173q21 117 -47.5 207t-191.5 90q-105 0 -183.5 -69t-96.5 -174q-21 -120 48 -208t192 -88zM489 780
q-78 0 -111.5 46.5t-20.5 119.5h76q-9 -47 9 -73t59 -27q83 2 102 100h77q-13 -72 -65 -119t-126 -47z" />
    <glyph glyph-name="obreve" unicode="&#x14f;" horiz-adv-x="590" 
d="M277 -10q-125 0 -192 87t-46 205q18 99 94.5 163.5t179.5 64.5q124 0 191.5 -87.5t46.5 -204.5q-18 -99 -93.5 -163.5t-180.5 -64.5zM282 89q60 0 107.5 39.5t58.5 102.5q12 71 -27.5 126t-112.5 56q-59 0 -107 -40.5t-59 -103.5q-12 -72 28 -126t112 -54zM326 549
q-78 0 -111.5 46.5t-20.5 119.5h76q-9 -47 9 -73t59 -27q83 2 102 100h77q-13 -72 -65 -119t-126 -47z" />
    <glyph glyph-name="Ohungarumlaut" unicode="&#x150;" horiz-adv-x="819" 
d="M367 784l145 166h108l-177 -166h-76zM524 784l144 166h108l-176 -166h-76zM401 -10q-168 0 -268 123t-71 290q26 145 138 241t259 96q112 0 197.5 -58.5t122.5 -153.5t19 -201q-26 -146 -137 -241.5t-260 -95.5zM411 96q104 0 182 69t97 173q21 117 -47.5 207t-191.5 90
q-105 0 -183.5 -69t-96.5 -174q-21 -120 48 -208t192 -88z" />
    <glyph glyph-name="ohungarumlaut" unicode="&#x151;" horiz-adv-x="590" 
d="M203 554l145 166h108l-177 -166h-76zM360 554l144 166h108l-176 -166h-76zM277 -10q-125 0 -192 87t-46 205q18 99 94.5 163.5t179.5 64.5q124 0 191.5 -87.5t46.5 -204.5q-18 -99 -93.5 -163.5t-180.5 -64.5zM282 89q60 0 107.5 39.5t58.5 102.5q12 71 -27.5 126
t-112.5 56q-59 0 -107 -40.5t-59 -103.5q-12 -72 28 -126t112 -54z" />
    <glyph glyph-name="OE" unicode="&#x152;" horiz-adv-x="1157" 
d="M631 0l16 95q-102 -105 -246 -105q-168 0 -268 123t-71 290q26 145 139 241t260 96q94 0 164.5 -39.5t109.5 -108.5l24 138h438l-18 -103h-330l-37 -209h330l-19 -103h-329l-37 -211h329l-17 -104h-438zM412 97q98 0 175.5 66.5t100.5 165.5l7 36q12 111 -55.5 191.5
t-184.5 80.5q-106 0 -186 -70t-98 -175q-21 -118 48 -206.5t193 -88.5z" />
    <glyph glyph-name="oe" unicode="&#x153;" horiz-adv-x="975" 
d="M277 -10q-127 0 -194 90.5t-41 211.5q21 96 96.5 157t175.5 61q65 0 117.5 -29t83.5 -79q39 51 100 79.5t127 28.5q100 0 158.5 -50t44.5 -124q-12 -70 -75.5 -110.5t-160.5 -39.5q-81 -1 -160 30q5 -59 46.5 -95.5t107.5 -36.5q82 0 137 65l83 -55q-83 -104 -227 -104
q-140 0 -205 98q-80 -98 -214 -98zM284 89q57 0 103.5 39.5t59.5 98.5q16 72 -25 129t-117 57q-58 0 -103.5 -39.5t-57.5 -98.5q-15 -73 25.5 -129.5t114.5 -56.5zM744 417q-57 0 -106 -30t-73 -80q72 -26 135 -26t98.5 19t40.5 51q5 27 -21 46.5t-74 19.5z" />
    <glyph glyph-name="Racute" unicode="&#x154;" horiz-adv-x="604" 
d="M524 0h-16q-67 0 -120 31t-84 82.5t-46.5 114.5t-12.5 130h58q80 0 124 35.5t55 92.5q11 63 -28.5 103.5t-113.5 41.5h-107l-111 -631h-110l128 730h217q119 0 187.5 -75.5t48.5 -185.5q-14 -79 -74.5 -135t-158.5 -66q14 -74 59 -119t107 -45h17zM294 784l144 166h114
l-176 -166h-82z" />
    <glyph glyph-name="racute" unicode="&#x155;" horiz-adv-x="412" 
d="M22 0l66 347q8 32 -1 46t-36 14h-16l17 93h47q83 0 88 -80q58 80 160 80h58l-19 -107h-50q-130 0 -156 -141l-49 -252h-109zM192 554l144 166h114l-176 -166h-82z" />
    <glyph glyph-name="Rcommaaccent" unicode="&#x156;" horiz-adv-x="604" 
d="M524 0h-16q-67 0 -120 31t-84 82.5t-46.5 114.5t-12.5 130h58q80 0 124 35.5t55 92.5q11 63 -28.5 103.5t-113.5 41.5h-107l-111 -631h-110l128 730h217q119 0 187.5 -75.5t48.5 -185.5q-14 -79 -74.5 -135t-158.5 -66q14 -74 59 -119t107 -45h17zM129 -249l74 204h95
l-102 -204h-67z" />
    <glyph glyph-name="rcommaaccent" unicode="&#x157;" horiz-adv-x="412" 
d="M22 0l66 347q8 32 -1 46t-36 14h-16l17 93h47q83 0 88 -80q58 80 160 80h58l-19 -107h-50q-130 0 -156 -141l-49 -252h-109zM-61 -251l74 204h95l-102 -204h-67z" />
    <glyph glyph-name="Rcaron" unicode="&#x158;" horiz-adv-x="604" 
d="M524 0h-16q-67 0 -120 31t-84 82.5t-46.5 114.5t-12.5 130h58q80 0 124 35.5t55 92.5q11 63 -28.5 103.5t-113.5 41.5h-107l-111 -631h-110l128 730h217q119 0 187.5 -75.5t48.5 -185.5q-14 -79 -74.5 -135t-158.5 -66q14 -74 59 -119t107 -45h17zM313 784l-90 166h92
l48 -94l82 94h92l-149 -166h-75z" />
    <glyph glyph-name="rcaron" unicode="&#x159;" horiz-adv-x="412" 
d="M22 0l66 347q8 32 -1 46t-36 14h-16l17 93h47q83 0 88 -80q58 80 160 80h58l-19 -107h-50q-130 0 -156 -141l-49 -252h-109zM203 554l-90 166h92l48 -94l82 94h92l-149 -166h-75z" />
    <glyph glyph-name="Sacute" unicode="&#x15a;" horiz-adv-x="544" 
d="M306 784l144 166h114l-176 -166h-82zM247 -10q-172 0 -257 137l100 66q53 -100 163 -100q55 0 90.5 27t43.5 71q4 23 -2 42.5t-16 32.5t-33 28t-37.5 22.5t-46.5 22.5q-42 20 -67 35t-54 42t-39 64t-2 85q13 80 78.5 127.5t161.5 47.5q75 0 135.5 -32t95.5 -84l-93 -62
q-47 82 -144 82q-51 0 -83.5 -25t-39.5 -64q-4 -25 4 -45.5t32 -38t41.5 -26.5t54.5 -26q16 -7 27.5 -13t26.5 -14.5t26 -16t24 -17.5t22 -21t17.5 -23.5t14 -27t8.5 -31t3 -35.5t-4 -40q-14 -83 -81.5 -136.5t-169.5 -53.5z" />
    <glyph glyph-name="sacute" unicode="&#x15b;" horiz-adv-x="470" 
d="M229 554l144 166h114l-176 -166h-82zM220 -10q-76 0 -132 30.5t-86 78.5l93 60q46 -78 134 -78q37 0 60.5 16.5t28.5 43.5q4 25 -20.5 39.5t-78.5 31.5q-7 2 -10 3q-37 11 -61 22t-48.5 30t-33.5 47.5t-3 67.5q10 58 64 93.5t131 35.5q65 0 117.5 -25t83.5 -68l-88 -56
q-42 61 -121 61q-72 0 -81 -51q-5 -26 20.5 -41t85.5 -34q35 -11 59.5 -22t50 -30t35.5 -48t4 -66q-11 -63 -65 -102t-139 -39z" />
    <glyph glyph-name="Scircumflex" unicode="&#x15c;" horiz-adv-x="544" 
d="M247 -10q-172 0 -257 137l100 66q53 -100 163 -100q55 0 90.5 27t43.5 71q4 23 -2 42.5t-16 32.5t-33 28t-37.5 22.5t-46.5 22.5q-42 20 -67 35t-54 42t-39 64t-2 85q13 80 78.5 127.5t161.5 47.5q75 0 135.5 -32t95.5 -84l-93 -62q-47 82 -144 82q-51 0 -83.5 -25
t-39.5 -64q-4 -25 4 -45.5t32 -38t41.5 -26.5t54.5 -26q16 -7 27.5 -13t26.5 -14.5t26 -16t24 -17.5t22 -21t17.5 -23.5t14 -27t8.5 -31t3 -35.5t-4 -40q-14 -83 -81.5 -136.5t-169.5 -53.5zM196 784l148 166h76l90 -166h-92l-48 94l-82 -94h-92z" />
    <glyph glyph-name="scircumflex" unicode="&#x15d;" horiz-adv-x="470" 
d="M220 -10q-76 0 -132 30.5t-86 78.5l93 60q46 -78 134 -78q37 0 60.5 16.5t28.5 43.5q4 25 -20.5 39.5t-78.5 31.5q-7 2 -10 3q-37 11 -61 22t-48.5 30t-33.5 47.5t-3 67.5q10 58 64 93.5t131 35.5q65 0 117.5 -25t83.5 -68l-88 -56q-42 61 -121 61q-72 0 -81 -51
q-5 -26 20.5 -41t85.5 -34q35 -11 59.5 -22t50 -30t35.5 -48t4 -66q-11 -63 -65 -102t-139 -39zM128 554l148 166h76l90 -166h-92l-48 94l-82 -94h-92z" />
    <glyph glyph-name="Scedilla" unicode="&#x15e;" horiz-adv-x="544" 
d="M192 -238q-99 0 -152 58l75 43q37 -35 81 -35q56 0 62 33q4 16 -11 24.5t-47 8.5h-47l19 104q-119 27 -182 129l100 66q53 -100 163 -100q55 0 90.5 27t43.5 71q4 23 -2 42.5t-16 32.5t-33 28t-37.5 22.5t-46.5 22.5q-42 20 -67 35t-54 42t-39 64t-2 85q13 80 78.5 127.5
t161.5 47.5q75 0 135.5 -32t95.5 -84l-93 -62q-47 82 -144 82q-51 0 -83.5 -25t-39.5 -64q-4 -25 4 -45.5t32 -38t41.5 -26.5t54.5 -26q16 -7 27.5 -13t26.5 -14.5t26 -16t24 -17.5t22 -21t17.5 -23.5t14 -27t8.5 -31t3 -35.5t-4 -40q-14 -83 -81.5 -136.5t-169.5 -53.5h-2
l-7 -40q55 -4 80 -31.5t19 -67.5q-7 -42 -47 -65.5t-98 -23.5z" />
    <glyph glyph-name="scedilla" unicode="&#x15f;" horiz-adv-x="470" 
d="M164 -238q-99 0 -152 58l75 43q37 -35 81 -35q56 0 62 33q4 16 -11 24.5t-47 8.5h-47l19 105q-96 24 -142 100l93 60q46 -78 134 -78q37 0 60.5 16.5t28.5 43.5q4 25 -20.5 39.5t-78.5 31.5q-7 2 -10 3q-37 11 -61 22t-48.5 30t-33.5 47.5t-3 67.5q10 58 64 93.5
t131 35.5q65 0 117.5 -25t83.5 -68l-88 -56q-42 61 -121 61q-72 0 -81 -51q-5 -26 20.5 -41t85.5 -34q35 -11 59.5 -22t50 -30t35.5 -48t4 -66q-11 -63 -65 -102t-139 -39h-3l-7 -40q55 -4 80 -31.5t19 -67.5q-7 -42 -47 -65.5t-98 -23.5z" />
    <glyph glyph-name="Scaron" unicode="&#x160;" horiz-adv-x="544" 
d="M247 -10q-172 0 -257 137l100 66q53 -100 163 -100q55 0 90.5 27t43.5 71q4 23 -2 42.5t-16 32.5t-33 28t-37.5 22.5t-46.5 22.5q-42 20 -67 35t-54 42t-39 64t-2 85q13 80 78.5 127.5t161.5 47.5q75 0 135.5 -32t95.5 -84l-93 -62q-47 82 -144 82q-51 0 -83.5 -25
t-39.5 -64q-4 -25 4 -45.5t32 -38t41.5 -26.5t54.5 -26q16 -7 27.5 -13t26.5 -14.5t26 -16t24 -17.5t22 -21t17.5 -23.5t14 -27t8.5 -31t3 -35.5t-4 -40q-14 -83 -81.5 -136.5t-169.5 -53.5zM320 784l-90 166h92l48 -94l82 94h92l-149 -166h-75z" />
    <glyph glyph-name="scaron" unicode="&#x161;" horiz-adv-x="470" 
d="M220 -10q-76 0 -132 30.5t-86 78.5l93 60q46 -78 134 -78q37 0 60.5 16.5t28.5 43.5q4 25 -20.5 39.5t-78.5 31.5q-7 2 -10 3q-37 11 -61 22t-48.5 30t-33.5 47.5t-3 67.5q10 58 64 93.5t131 35.5q65 0 117.5 -25t83.5 -68l-88 -56q-42 61 -121 61q-72 0 -81 -51
q-5 -26 20.5 -41t85.5 -34q35 -11 59.5 -22t50 -30t35.5 -48t4 -66q-11 -63 -65 -102t-139 -39zM252 554l-90 166h92l48 -94l82 94h92l-149 -166h-75z" />
    <glyph glyph-name="Tcommaaccent" unicode="&#x162;" horiz-adv-x="563" 
d="M295 0h-110l109 627h-191l18 103h492l-18 -103h-191zM127 -256l74 204h95l-102 -204h-67z" />
    <glyph glyph-name="tcommaaccent" unicode="&#x163;" horiz-adv-x="349" 
d="M27 404l17 96h82l21 118l119 59q-14 -82 -31 -177h105l-17 -96h-105q-33 -191 -36 -199q-13 -69 2.5 -88t85.5 -19l-17 -98h-14q-115 0 -150 43.5t-14 160.5l35 200h-83zM53 -251l74 204h95l-102 -204h-67z" />
    <glyph glyph-name="Tcaron" unicode="&#x164;" horiz-adv-x="563" 
d="M295 0h-110l109 627h-191l18 103h492l-18 -103h-191zM355 784l-90 166h92l48 -94l82 94h92l-149 -166h-75z" />
    <glyph glyph-name="tcaron" unicode="&#x165;" horiz-adv-x="349" 
d="M27 404l17 96h82l21 118l119 59q-14 -82 -31 -177h105l-17 -96h-105q-33 -191 -36 -199q-13 -69 2.5 -88t85.5 -19l-17 -98h-14q-115 0 -150 43.5t-14 160.5l35 200h-83zM288 548l81 166h93l-103 -166h-71z" />
    <glyph glyph-name="Tbar" unicode="&#x166;" horiz-adv-x="563" 
d="M295 0h-110l59 338h-99l18 103h99l32 186h-191l18 103h492l-18 -103h-191l-32 -186h96l-17 -103h-97z" />
    <glyph glyph-name="tbar" unicode="&#x167;" horiz-adv-x="349" 
d="M28 410l16 90h82l21 118l119 59q-14 -82 -31 -177h105l-16 -90h-105q-17 -90 -19 -105h106l-16 -90h-106l-2 -10q-13 -69 2.5 -88t85.5 -19l-17 -98h-14q-115 0 -150 43.5t-14 160.5l2 11h-83l17 90h81l19 105h-83z" />
    <glyph glyph-name="Utilde" unicode="&#x168;" horiz-adv-x="622" 
d="M283 -10q-119 0 -184.5 70.5t-43.5 192.5l84 477h110l-86 -485q-12 -68 22 -111t108 -43q62 0 106.5 38.5t55.5 102.5l88 498h110l-87 -492q-21 -120 -93.5 -184t-189.5 -64zM232 784q11 58 43.5 93t79.5 35q38 0 75 -25q38 -26 55 -26q31 0 40 47h71q-12 -60 -43.5 -94
t-80.5 -34q-37 0 -85 32q-29 19 -46 19q-30 0 -39 -47h-70z" />
    <glyph glyph-name="utilde" unicode="&#x169;" horiz-adv-x="572" 
d="M231 -10q-96 0 -145.5 63t-28.5 168l26 126q7 34 -1 47t-34 13h-14l16 93h61q111 0 84 -141l-28 -140q-12 -62 11 -98t77 -36t88.5 40.5t45.5 104.5l52 270h109l-66 -347q-6 -32 2 -46t34 -14h19l-17 -93h-52q-75 0 -91 55q-59 -65 -148 -65zM153 554q11 58 43.5 93
t79.5 35q38 0 75 -25q38 -26 55 -26q31 0 40 47h71q-12 -60 -43.5 -94t-80.5 -34q-37 0 -85 32q-29 19 -46 19q-30 0 -39 -47h-70z" />
    <glyph glyph-name="Umacron" unicode="&#x16a;" horiz-adv-x="622" 
d="M283 -10q-119 0 -184.5 70.5t-43.5 192.5l84 477h110l-86 -485q-12 -68 22 -111t108 -43q62 0 106.5 38.5t55.5 102.5l88 498h110l-87 -492q-21 -120 -93.5 -184t-189.5 -64zM273 784l15 77h264l-15 -77h-264z" />
    <glyph glyph-name="umacron" unicode="&#x16b;" horiz-adv-x="572" 
d="M231 -10q-96 0 -145.5 63t-28.5 168l26 126q7 34 -1 47t-34 13h-14l16 93h61q111 0 84 -141l-28 -140q-12 -62 11 -98t77 -36t88.5 40.5t45.5 104.5l52 270h109l-66 -347q-6 -32 2 -46t34 -14h19l-17 -93h-52q-75 0 -91 55q-59 -65 -148 -65zM186 554l15 77h264l-15 -77
h-264z" />
    <glyph glyph-name="Ubreve" unicode="&#x16c;" horiz-adv-x="622" 
d="M283 -10q-119 0 -184.5 70.5t-43.5 192.5l84 477h110l-86 -485q-12 -68 22 -111t108 -43q62 0 106.5 38.5t55.5 102.5l88 498h110l-87 -492q-21 -120 -93.5 -184t-189.5 -64zM404 779q-78 0 -111.5 46.5t-20.5 119.5h76q-9 -47 9 -73t59 -27q83 2 102 100h77
q-13 -72 -65 -119t-126 -47z" />
    <glyph glyph-name="ubreve" unicode="&#x16d;" horiz-adv-x="572" 
d="M231 -10q-96 0 -145.5 63t-28.5 168l26 126q7 34 -1 47t-34 13h-14l16 93h61q111 0 84 -141l-28 -140q-12 -62 11 -98t77 -36t88.5 40.5t45.5 104.5l52 270h109l-66 -347q-6 -32 2 -46t34 -14h19l-17 -93h-52q-75 0 -91 55q-59 -65 -148 -65zM313 549q-78 0 -111.5 46.5
t-20.5 119.5h76q-9 -47 9 -73t59 -27q83 2 102 100h77q-13 -72 -65 -119t-126 -47z" />
    <glyph glyph-name="Uring" unicode="&#x16e;" horiz-adv-x="622" 
d="M407 765q-52 0 -81.5 40.5t-15.5 91.5q11 41 44.5 67t74.5 26q52 0 82 -40t16 -91q-12 -42 -44.5 -68t-75.5 -26zM413 833q17 0 31 11t18 27q5 21 -6.5 36.5t-32.5 15.5q-17 0 -30 -11t-17 -27q-6 -21 5 -36.5t32 -15.5zM283 -10q-119 0 -184.5 70.5t-43.5 192.5l84 477
h110l-86 -485q-12 -68 22 -111t108 -43q62 0 106.5 38.5t55.5 102.5l88 498h110l-87 -492q-21 -120 -93.5 -184t-189.5 -64z" />
    <glyph glyph-name="uring" unicode="&#x16f;" horiz-adv-x="572" 
d="M231 -10q-96 0 -145.5 63t-28.5 168l26 126q7 34 -1 47t-34 13h-14l16 93h61q111 0 84 -141l-28 -140q-12 -62 11 -98t77 -36t88.5 40.5t45.5 104.5l52 270h109l-66 -347q-6 -32 2 -46t34 -14h19l-17 -93h-52q-75 0 -91 55q-59 -65 -148 -65zM317 550q-52 0 -81.5 40.5
t-15.5 91.5q11 41 44.5 67t74.5 26q52 0 82 -40t16 -91q-12 -42 -44.5 -68t-75.5 -26zM323 618q17 0 31 11t18 27q5 21 -6.5 36.5t-32.5 15.5q-17 0 -30 -11t-17 -27q-6 -21 5 -36.5t32 -15.5z" />
    <glyph glyph-name="Uhungarumlaut" unicode="&#x170;" horiz-adv-x="622" 
d="M283 -10q-119 0 -184.5 70.5t-43.5 192.5l84 477h110l-86 -485q-12 -68 22 -111t108 -43q62 0 106.5 38.5t55.5 102.5l88 498h110l-87 -492q-21 -120 -93.5 -184t-189.5 -64zM271 784l145 166h108l-177 -166h-76zM428 784l144 166h108l-176 -166h-76z" />
    <glyph glyph-name="uhungarumlaut" unicode="&#x171;" horiz-adv-x="572" 
d="M231 -10q-96 0 -145.5 63t-28.5 168l26 126q7 34 -1 47t-34 13h-14l16 93h61q111 0 84 -141l-28 -140q-12 -62 11 -98t77 -36t88.5 40.5t45.5 104.5l52 270h109l-66 -347q-6 -32 2 -46t34 -14h19l-17 -93h-52q-75 0 -91 55q-59 -65 -148 -65zM347 554l144 166h108
l-176 -166h-76zM190 554l145 166h108l-177 -166h-76z" />
    <glyph glyph-name="Uogonek" unicode="&#x172;" horiz-adv-x="622" 
d="M238 -221q-61 0 -94.5 31.5t-25.5 76.5q9 60 91 111q-87 20 -129.5 86.5t-24.5 168.5l84 477h110l-86 -485q-12 -68 22 -111t108 -43q62 0 106.5 38.5t55.5 102.5l88 498h110l-87 -492q-19 -105 -76.5 -167.5t-149.5 -76.5q-80 -46 -104.5 -65t-27.5 -39
q-4 -18 8.5 -27.5t33.5 -9.5q30 0 73 31l63 -48q-75 -57 -148 -57z" />
    <glyph glyph-name="uogonek" unicode="&#x173;" horiz-adv-x="572" 
d="M231 -10q-96 0 -145.5 63t-28.5 168l26 126q7 34 -1 47t-34 13h-14l16 93h61q111 0 84 -141l-28 -140q-12 -62 11 -98t77 -36t88.5 40.5t45.5 104.5l52 270h109l-66 -347q-6 -32 2 -46t34 -14h19l-17 -92l2 -1q-90 -52 -116.5 -72t-29.5 -40q-4 -18 8.5 -27.5t33.5 -9.5
q30 0 73 31l63 -48q-75 -57 -148 -57q-61 0 -94.5 31.5t-25.5 76.5q5 35 33 65t89 63q-24 14 -31 42q-59 -65 -148 -65z" />
    <glyph glyph-name="Wcircumflex" unicode="&#x174;" horiz-adv-x="1029" 
d="M755 0h-107l-77 561l-272 -561h-110l-82 730h113l56 -552l269 552h108l77 -553l249 553h113zM447 784l148 166h76l90 -166h-92l-48 94l-82 -94h-92z" />
    <glyph glyph-name="wcircumflex" unicode="&#x175;" horiz-adv-x="881" 
d="M222 -10q-94 0 -139.5 63t-24.5 168l25 126q7 33 -1.5 46.5t-33.5 13.5h-14l17 93h60q111 0 84 -141l-28 -141q-26 -134 82 -134q48 0 83.5 41.5t47.5 104.5l49 270h108l-54 -304q-10 -53 10.5 -81.5t64.5 -28.5q69 0 112.5 59t61.5 156q19 107 -10 199h110
q24 -113 5 -216q-15 -81 -48.5 -145t-94 -106.5t-138.5 -42.5q-120 0 -152 86q-69 -86 -182 -86zM329 554l148 166h76l90 -166h-92l-48 94l-82 -94h-92z" />
    <glyph glyph-name="Ycircumflex" unicode="&#x176;" horiz-adv-x="622" 
d="M209 0l62 353l-166 377h113l125 -283l220 283h125l-308 -387l-61 -343h-110zM248 782l148 166h76l90 -166h-92l-48 94l-82 -94h-92z" />
    <glyph glyph-name="ycircumflex" unicode="&#x177;" horiz-adv-x="555" 
d="M204 -240q-79 0 -137 39t-80 105l108 34q26 -81 118 -81q112 0 138 149l1 4q1 4 2.5 13.5t3.5 17.5q-52 -51 -127 -51q-94 0 -143.5 63.5t-29.5 167.5l24 126q7 34 -1 47t-34 13h-13l16 93h61q112 0 83 -141l-27 -141q-12 -63 10 -98.5t76 -35.5q56 0 91.5 39.5
t46.5 105.5l50 271h106l-88 -491q-22 -121 -81.5 -185t-173.5 -64zM135 554l148 166h76l90 -166h-92l-48 94l-82 -94h-92z" />
    <glyph glyph-name="Ydieresis" unicode="&#x178;" horiz-adv-x="622" 
d="M209 0l62 353l-166 377h113l125 -283l220 283h125l-308 -387l-61 -343h-110zM429 785l25 138h107l-24 -138h-108zM269 785l25 138h107l-25 -138h-107z" />
    <glyph glyph-name="Zacute" unicode="&#x179;" horiz-adv-x="577" 
d="M486 0h-482l17 100l440 528h-335l17 102h470l-17 -99l-441 -529h348zM327 784l144 166h114l-176 -166h-82z" />
    <glyph glyph-name="zacute" unicode="&#x17a;" horiz-adv-x="538" 
d="M1 0l17 95l354 310h-293l18 95h437l-17 -95l-355 -310h306l-17 -95h-450zM275 554l144 166h114l-176 -166h-82z" />
    <glyph glyph-name="Zdotaccent" unicode="&#x17b;" horiz-adv-x="577" 
d="M486 0h-482l17 100l440 528h-335l17 102h470l-17 -99l-441 -529h348zM331 788l24 138h107l-24 -138h-107z" />
    <glyph glyph-name="zdotaccent" unicode="&#x17c;" horiz-adv-x="538" 
d="M1 0l17 95l354 310h-293l18 95h437l-17 -95l-355 -310h306l-17 -95h-450zM271 558l24 138h107l-24 -138h-107z" />
    <glyph glyph-name="Zcaron" unicode="&#x17d;" horiz-adv-x="577" 
d="M486 0h-482l17 100l440 528h-335l17 102h470l-17 -99l-441 -529h348zM347 784l-90 166h92l48 -94l82 94h92l-149 -166h-75z" />
    <glyph glyph-name="zcaron" unicode="&#x17e;" horiz-adv-x="538" 
d="M1 0l17 95l354 310h-293l18 95h437l-17 -95l-355 -310h306l-17 -95h-450zM288 554l-90 166h92l48 -94l82 94h92l-149 -166h-75z" />
    <glyph glyph-name="florin" unicode="&#x192;" 
d="M64 322l18 96h195l45 115q49 116 112 156.5t177 40.5h12l-18 -97q-73 0 -111.5 -21t-66.5 -87l-42 -107h183l-18 -96h-202l-45 -118q-50 -121 -107.5 -162.5t-179.5 -41.5h-9l17 99q75 0 110 22t64 92l42 109h-176z" />
    <glyph glyph-name="Aringacute" unicode="&#x1fa;" horiz-adv-x="687" 
d="M-23 0l381 691q-46 41 -29 107q11 41 44.5 67t74.5 26q52 0 82 -40t16 -91q-14 -48 -50 -72l125 -688h-111l-27 156h-305l-84 -156h-117zM410 581l-175 -321h230zM416 928l144 166h114l-176 -166h-82zM432 734q17 0 31 11t18 27q5 21 -6.5 36.5t-32.5 15.5q-17 0 -30 -11
t-17 -27q-6 -21 5 -36.5t32 -15.5z" />
    <glyph glyph-name="aringacute" unicode="&#x1fb;" horiz-adv-x="621" 
d="M268 -10q-121 0 -185 86t-43 205q17 98 92 163.5t173 65.5q120 0 170 -90l15 80h108l-65 -351q-5 -32 3.5 -44.5t39.5 -12.5h11l-17 -92h-51q-70 0 -88 60q-63 -70 -163 -70zM284 89q62 0 108 41.5t57 104.5q13 71 -26.5 124t-111.5 54q-63 0 -110.5 -42t-57.5 -103
q-12 -71 28 -125t113 -54zM347 547q-52 0 -81.5 40.5t-15.5 91.5q11 41 44.5 67t74.5 26q52 0 82 -40t16 -91q-12 -42 -44.5 -68t-75.5 -26zM337 803l144 166h114l-176 -166h-82zM353 615q17 0 31 11t18 27q5 21 -6.5 36.5t-32.5 15.5q-17 0 -30 -11t-17 -27q-6 -21 5 -36.5
t32 -15.5z" />
    <glyph glyph-name="AEacute" unicode="&#x1fc;" horiz-adv-x="976" 
d="M-20 0l488 730h542l-18 -103h-405l-1 -209h369l-18 -103h-351v-211h314l-18 -104h-404v154h-271l-103 -154h-124zM274 254h205l1 308zM596 784l144 166h114l-176 -166h-82z" />
    <glyph glyph-name="aeacute" unicode="&#x1fd;" horiz-adv-x="890" 
d="M188 -10q-89 0 -131.5 43.5t-35.5 105.5q6 66 53 98.5t133 51.5q12 3 29.5 6.5t29.5 6t27.5 6t26 6.5t22.5 7.5t19.5 9t14.5 9.5t11 11.5t5 14.5q3 25 -20.5 43t-71.5 18q-63 0 -99.5 -26t-44.5 -73h-97q13 86 76.5 134t166.5 48q118 0 165 -66q83 66 189 66
q100 0 158.5 -50t44.5 -124q-12 -70 -75.5 -110.5t-160.5 -39.5q-81 -1 -160 30q5 -59 46.5 -95.5t107.5 -36.5q82 0 137 65l83 -55q-81 -104 -227 -104q-148 0 -213 108q-31 -48 -85.5 -78t-123.5 -30zM658 417q-56 0 -105 -30t-73 -80q72 -26 135 -26q62 0 97.5 19
t40.5 51q5 27 -21 46.5t-74 19.5zM200 79q51 0 96 32t70 79q-3 25 -2 48l3 9q-19 -13 -123 -36q-61 -13 -87.5 -28.5t-30.5 -45.5q-3 -26 15.5 -42t58.5 -16zM434 537l144 166h114l-176 -166h-82z" />
    <glyph glyph-name="Oslashacute" unicode="&#x1fe;" horiz-adv-x="819" 
d="M402 -10q-119 0 -208 65l-53 -55h-126l114 118q-95 121 -66 285q25 145 137.5 241t259.5 96q116 0 205 -65l54 55h126l-114 -119q94 -122 67 -284q-26 -145 -138 -241t-258 -96zM171 392q-19 -106 37 -192l382 397q-59 40 -137 40q-106 0 -184.5 -70t-97.5 -175zM412 97
q103 0 181.5 69.5t97.5 173.5q18 107 -37 192l-381 -396q59 -39 139 -39zM446 784l144 166h114l-176 -166h-82z" />
    <glyph glyph-name="oslashacute" unicode="&#x1ff;" horiz-adv-x="590" 
d="M0 0l80 83q-61 85 -41 199q18 99 94.5 163.5t179.5 64.5q79 0 140 -40l29 30h110l-82 -85q61 -85 41 -197q-18 -99 -93.5 -163.5t-180.5 -64.5q-81 0 -139 39l-28 -29h-110zM142 269q-9 -59 15 -106l222 231q-32 18 -71 19q-59 0 -107 -40.5t-59 -103.5zM282 89
q60 0 107.5 39.5t58.5 102.5q9 58 -15 104l-221 -229q31 -17 70 -17zM275 554l144 166h114l-176 -166h-82z" />
    <glyph glyph-name="Scommaaccent" unicode="&#x218;" horiz-adv-x="544" 
d="M90 -256l74 204h95l-102 -204h-67zM247 -10q-172 0 -257 137l100 66q53 -100 163 -100q55 0 90.5 27t43.5 71q4 23 -2 42.5t-16 32.5t-33 28t-37.5 22.5t-46.5 22.5q-42 20 -67 35t-54 42t-39 64t-2 85q13 80 78.5 127.5t161.5 47.5q75 0 135.5 -32t95.5 -84l-93 -62
q-47 82 -144 82q-51 0 -83.5 -25t-39.5 -64q-4 -25 4 -45.5t32 -38t41.5 -26.5t54.5 -26q16 -7 27.5 -13t26.5 -14.5t26 -16t24 -17.5t22 -21t17.5 -23.5t14 -27t8.5 -31t3 -35.5t-4 -40q-14 -83 -81.5 -136.5t-169.5 -53.5z" />
    <glyph glyph-name="scommaaccent" unicode="&#x219;" horiz-adv-x="470" 
d="M69 -251l74 204h95l-102 -204h-67zM220 -10q-76 0 -132 30.5t-86 78.5l93 60q46 -78 134 -78q37 0 60.5 16.5t28.5 43.5q4 25 -20.5 39.5t-78.5 31.5q-7 2 -10 3q-37 11 -61 22t-48.5 30t-33.5 47.5t-3 67.5q10 58 64 93.5t131 35.5q65 0 117.5 -25t83.5 -68l-88 -56
q-42 61 -121 61q-72 0 -81 -51q-5 -26 20.5 -41t85.5 -34q35 -11 59.5 -22t50 -30t35.5 -48t4 -66q-11 -63 -65 -102t-139 -39z" />
    <glyph glyph-name="dotlessj" unicode="&#x237;" horiz-adv-x="218" 
d="M-132 -230l18 100q67 0 87.5 17t33.5 88l93 525h109l-94 -526q-21 -121 -62 -162.5t-149 -41.5h-36z" />
    <glyph glyph-name="circumflex" unicode="&#x2c6;" horiz-adv-x="482" 
d="M136 554l148 166h76l90 -166h-92l-48 94l-82 -94h-92z" />
    <glyph glyph-name="caron" unicode="&#x2c7;" horiz-adv-x="482" 
d="M255 554l-90 166h92l48 -94l82 94h92l-149 -166h-75z" />
    <glyph glyph-name="breve" unicode="&#x2d8;" horiz-adv-x="482" 
d="M293 549q-78 0 -111.5 46.5t-20.5 119.5h76q-9 -47 9 -73t59 -27q83 2 102 100h77q-13 -72 -65 -119t-126 -47z" />
    <glyph glyph-name="dotaccent" unicode="&#x2d9;" horiz-adv-x="483" 
d="M230 558l24 138h107l-24 -138h-107z" />
    <glyph glyph-name="ring" unicode="&#x2da;" horiz-adv-x="482" 
d="M302 550q-52 0 -81.5 40.5t-15.5 91.5q11 41 44.5 67t74.5 26q52 0 82 -40t16 -91q-12 -42 -44.5 -68t-75.5 -26zM308 618q17 0 31 11t18 27q5 21 -6.5 36.5t-32.5 15.5q-17 0 -30 -11t-17 -27q-6 -21 5 -36.5t32 -15.5z" />
    <glyph glyph-name="ogonek" unicode="&#x2db;" horiz-adv-x="482" 
d="M153 -223q-61 0 -94.5 31.5t-25.5 76.5q7 41 45 76.5t126 76.5l65 -38q-90 -52 -116.5 -72t-29.5 -40q-4 -18 8.5 -27.5t33.5 -9.5q30 0 73 31l63 -48q-75 -57 -148 -57z" />
    <glyph glyph-name="tilde" unicode="&#x2dc;" horiz-adv-x="482" 
d="M120 554q11 58 43.5 93t79.5 35q38 0 75 -25q38 -26 55 -26q31 0 40 47h71q-12 -60 -43.5 -94t-80.5 -34q-37 0 -85 32q-29 19 -46 19q-30 0 -39 -47h-70z" />
    <glyph glyph-name="hungarumlaut" unicode="&#x2dd;" horiz-adv-x="482" 
d="M102 554l145 166h108l-177 -166h-76zM259 554l144 166h108l-176 -166h-76z" />
    <glyph glyph-name="pi" unicode="&#x3c0;" horiz-adv-x="780" 
d="M107 627l18 103h698l-18 -103h-134l-75 -427q-10 -58 2 -77.5t56 -19.5h43l-19 -103h-66q-84 0 -114 48.5t-12 151.5l75 427h-212l-110 -627h-110l110 627h-132z" />
    <glyph glyph-name="pi" unicode="&#x3d6;" horiz-adv-x="780" 
d="M107 627l18 103h698l-18 -103h-134l-75 -427q-10 -58 2 -77.5t56 -19.5h43l-19 -103h-66q-84 0 -114 48.5t-12 151.5l75 427h-212l-110 -627h-110l110 627h-132z" />
    <glyph glyph-name="uni0E3F" unicode="&#xe3f;" horiz-adv-x="515" 
d="M17 67l104 596h172l12 67h68l-12 -69q76 -8 117.5 -58t29.5 -120q-12 -81 -88 -121q71 -46 54 -142q-13 -72 -69 -112.5t-149 -40.5l-12 -67h-67l11 67h-171zM169 322l-28 -157h64l28 157h-64zM366 239q6 33 -10.5 54.5t-54.5 26.5l-28 -155q79 4 93 74zM212 567
l-26 -149h64l26 149h-64zM403 489q5 30 -10.5 50t-48.5 26l-26 -147q37 4 58.5 23.5t26.5 47.5z" />
    <glyph glyph-name="Wgrave" unicode="&#x1e80;" horiz-adv-x="1029" 
d="M755 0h-107l-77 561l-272 -561h-110l-82 730h113l56 -552l269 552h108l77 -553l249 553h113zM561 784l-118 166h113l86 -166h-81z" />
    <glyph glyph-name="wgrave" unicode="&#x1e81;" horiz-adv-x="881" 
d="M222 -10q-94 0 -139.5 63t-24.5 168l25 126q7 33 -1.5 46.5t-33.5 13.5h-14l17 93h60q111 0 84 -141l-28 -141q-26 -134 82 -134q48 0 83.5 41.5t47.5 104.5l49 270h108l-54 -304q-10 -53 10.5 -81.5t64.5 -28.5q69 0 112.5 59t61.5 156q19 107 -10 199h110
q24 -113 5 -216q-15 -81 -48.5 -145t-94 -106.5t-138.5 -42.5q-120 0 -152 86q-69 -86 -182 -86zM447 554l-118 166h113l86 -166h-81z" />
    <glyph glyph-name="Wacute" unicode="&#x1e82;" horiz-adv-x="1029" 
d="M755 0h-107l-77 561l-272 -561h-110l-82 730h113l56 -552l269 552h108l77 -553l249 553h113zM563 784l144 166h114l-176 -166h-82z" />
    <glyph glyph-name="wacute" unicode="&#x1e83;" horiz-adv-x="881" 
d="M222 -10q-94 0 -139.5 63t-24.5 168l25 126q7 33 -1.5 46.5t-33.5 13.5h-14l17 93h60q111 0 84 -141l-28 -141q-26 -134 82 -134q48 0 83.5 41.5t47.5 104.5l49 270h108l-54 -304q-10 -53 10.5 -81.5t64.5 -28.5q69 0 112.5 59t61.5 156q19 107 -10 199h110
q24 -113 5 -216q-15 -81 -48.5 -145t-94 -106.5t-138.5 -42.5q-120 0 -152 86q-69 -86 -182 -86zM453 554l144 166h114l-176 -166h-82z" />
    <glyph glyph-name="Wdieresis" unicode="&#x1e84;" horiz-adv-x="1029" 
d="M755 0h-107l-77 561l-272 -561h-110l-82 730h113l56 -552l269 552h108l77 -553l249 553h113zM632 788l25 138h107l-24 -138h-108zM472 788l25 138h107l-25 -138h-107z" />
    <glyph glyph-name="wdieresis" unicode="&#x1e85;" horiz-adv-x="881" 
d="M222 -10q-94 0 -139.5 63t-24.5 168l25 126q7 33 -1.5 46.5t-33.5 13.5h-14l17 93h60q111 0 84 -141l-28 -141q-26 -134 82 -134q48 0 83.5 41.5t47.5 104.5l49 270h108l-54 -304q-10 -53 10.5 -81.5t64.5 -28.5q69 0 112.5 59t61.5 156q19 107 -10 199h110
q24 -113 5 -216q-15 -81 -48.5 -145t-94 -106.5t-138.5 -42.5q-120 0 -152 86q-69 -86 -182 -86zM520 558l25 138h107l-24 -138h-108zM360 558l25 138h107l-25 -138h-107z" />
    <glyph glyph-name="Ygrave" unicode="&#x1ef2;" horiz-adv-x="622" 
d="M209 0l62 353l-166 377h113l125 -283l220 283h125l-308 -387l-61 -343h-110zM362 779l-118 166h113l86 -166h-81z" />
    <glyph glyph-name="ygrave" unicode="&#x1ef3;" horiz-adv-x="555" 
d="M204 -240q-79 0 -137 39t-80 105l108 34q26 -81 118 -81q112 0 138 149l1 4q1 4 2.5 13.5t3.5 17.5q-52 -51 -127 -51q-94 0 -143.5 63.5t-29.5 167.5l24 126q7 34 -1 47t-34 13h-13l16 93h61q112 0 83 -141l-27 -141q-12 -63 10 -98.5t76 -35.5q56 0 91.5 39.5
t46.5 105.5l50 271h106l-88 -491q-22 -121 -81.5 -185t-173.5 -64zM255 554l-118 166h113l86 -166h-81z" />
    <glyph glyph-name="figuredash" unicode="&#x2012;" horiz-adv-x="640" 
d="M34 209l17 92h555l-17 -92h-555z" />
    <glyph glyph-name="endash" unicode="&#x2013;" horiz-adv-x="487" 
d="M34 209l17 92h405l-17 -92h-405z" />
    <glyph glyph-name="emdash" unicode="&#x2014;" horiz-adv-x="690" 
d="M34 209l17 92h605l-17 -92h-605z" />
    <glyph glyph-name="uni2015" unicode="&#x2015;" horiz-adv-x="990" 
d="M34 209l17 92h905l-17 -92h-905z" />
    <glyph glyph-name="doublebar" unicode="&#x2016;" horiz-adv-x="401" 
d="M-34 -230l169 960h110l-169 -960h-110zM156 -230l169 960h110l-169 -960h-110z" />
    <glyph glyph-name="quoteleft" unicode="&#x2018;" horiz-adv-x="199" 
d="M207 730l2 -204h-67l-31 204h96z" />
    <glyph glyph-name="quoteright" unicode="&#x2019;" horiz-adv-x="199" 
d="M147 526h-68l74 204h96z" />
    <glyph glyph-name="quotesinglbase" unicode="&#x201a;" horiz-adv-x="200" 
d="M-41 -117l74 204h96l-103 -204h-67z" />
    <glyph glyph-name="reversequoteleft" unicode="&#x201b;" horiz-adv-x="199" 
d="M147 526h-68l74 204h96z" />
    <glyph glyph-name="quotedblleft" unicode="&#x201c;" horiz-adv-x="340" 
d="M352 730l1 -204h-67l-30 204h96zM210 730l2 -204h-67l-31 204h96z" />
    <glyph glyph-name="quotedblright" unicode="&#x201d;" horiz-adv-x="340" 
d="M147 526h-68l74 204h96zM288 526h-68l74 204h96z" />
    <glyph glyph-name="quotedblbase" unicode="&#x201e;" horiz-adv-x="341" 
d="M-41 -117l74 204h96l-103 -204h-67zM100 -117l74 204h96l-102 -204h-68z" />
    <glyph glyph-name="reversequotedblleft" unicode="&#x201f;" horiz-adv-x="340" 
d="M147 526h-68l74 204h96zM288 526h-68l74 204h96z" />
    <glyph glyph-name="dagger" unicode="&#x2020;" horiz-adv-x="545" 
d="M71 404l17 96h171l40 230h110l-40 -230h172l-17 -96h-172l-71 -404h-110l71 404h-171z" />
    <glyph glyph-name="daggerdbl" unicode="&#x2021;" horiz-adv-x="545" 
d="M78 447l18 95h170l33 188h110l-33 -188h173l-18 -95h-172l-27 -155h172l-17 -95h-172l-34 -197h-110l34 197h-171l17 95h171l27 155h-171z" />
    <glyph glyph-name="bullet" unicode="&#x2022;" horiz-adv-x="362" 
d="M185 160q-38 0 -65.5 27.5t-27.5 65.5t27.5 65.5t65.5 27.5t65.5 -27.5t27.5 -65.5t-27.5 -65.5t-65.5 -27.5z" />
    <glyph glyph-name="ellipsis" unicode="&#x2026;" horiz-adv-x="534" 
d="M-1 0l25 137h107l-24 -137h-108zM167 0l24 137h108l-24 -137h-108zM335 0l24 137h107l-24 -137h-107z" />
    <glyph glyph-name="perthousand" unicode="&#x2030;" horiz-adv-x="1228" 
d="M-7 0l756 730h137l-755 -730h-138zM254 391q-78 0 -123.5 57.5t-32.5 134.5q11 65 65 111t123 46q76 0 122.5 -57t33.5 -132q-12 -68 -64.5 -114t-123.5 -46zM263 482q33 0 58.5 22t30.5 54q6 36 -16 64t-59 28q-33 0 -58 -21.5t-31 -53.5q-6 -37 15 -65t60 -28zM592 -11
q-77 0 -123 57.5t-32 134.5q11 65 65 111.5t123 46.5q76 0 122.5 -57t33.5 -133q-11 -67 -64.5 -113.5t-124.5 -46.5zM601 80q33 0 59 22.5t31 54.5q6 35 -16 63.5t-59 28.5q-33 0 -58 -22t-31 -54q-6 -36 15 -64.5t59 -28.5zM983 -11q-77 0 -123 57.5t-32 134.5
q11 65 65 111.5t123 46.5q76 0 122.5 -57t33.5 -133q-11 -67 -64.5 -113.5t-124.5 -46.5zM992 80q33 0 59 22.5t31 54.5q6 35 -16 63.5t-59 28.5q-33 0 -58 -22t-31 -54q-6 -36 15 -64.5t59 -28.5z" />
    <glyph glyph-name="minute" unicode="&#x2032;" horiz-adv-x="199" 
d="M147 526h-68l74 204h96z" />
    <glyph glyph-name="second" unicode="&#x2033;" horiz-adv-x="340" 
d="M147 526h-68l74 204h96zM288 526h-68l74 204h96z" />
    <glyph glyph-name="tripleprime" unicode="&#x2034;" horiz-adv-x="441" 
d="M115 500q-3 21 -4 70.5t2 75.5l15 84h85l-15 -84q-3 -22 -22 -73t-30 -73h-31zM247 500q-3 21 -4 70.5t2 75.5l15 84h85l-15 -84q-3 -22 -22 -73t-30 -73h-31zM379 500q-3 21 -4 70.5t2 75.5l15 84h85l-15 -84q-3 -22 -22 -73t-30 -73h-31z" />
    <glyph glyph-name="guilsinglleft" unicode="&#x2039;" horiz-adv-x="279" 
d="M194 99l-142 119l12 68l183 119l-14 -85l-112 -71l87 -70z" />
    <glyph glyph-name="guilsinglright" unicode="&#x203a;" horiz-adv-x="279" 
d="M87 404l141 -119l-12 -68l-183 -119l15 85l111 70l-87 71z" />
    <glyph glyph-name="fraction" unicode="&#x2044;" horiz-adv-x="694" 
d="M-24 0l652 730h130l-652 -730h-130z" />
    <glyph glyph-name="uni2070" unicode="&#x2070;" horiz-adv-x="476" 
d="M267 302q-98 0 -156 71t-41 167q14 84 80 140t152 56q97 0 155 -71t41 -166q-14 -85 -79 -141t-152 -56zM275 393q49 0 85.5 33t45.5 82q9 55 -22.5 96.5t-88.5 41.5q-51 0 -87.5 -32.5t-45.5 -81.5q-9 -56 23.5 -97.5t89.5 -41.5z" />
    <glyph glyph-name="uni2074" unicode="&#x2074;" horiz-adv-x="370" 
d="M209 308l15 90h-176l14 82l214 250h95l-44 -252h59l-14 -80h-59l-16 -90h-88zM161 478h77l20 113z" />
    <glyph glyph-name="uni2075" unicode="&#x2075;" horiz-adv-x="334" 
d="M186 302q-107 0 -141 88l91 42q10 -44 55 -44q23 0 41 14.5t22 37.5q5 29 -9 48t-40 19q-40 0 -60 -34l-77 30l68 227h239l-15 -86h-165l-21 -70q25 14 57 14q57 -1 91.5 -45.5t22.5 -107.5t-54 -98t-105 -35z" />
    <glyph glyph-name="uni2076" unicode="&#x2076;" horiz-adv-x="357" 
d="M199 302q-75 0 -114.5 49t-27.5 113q8 45 39 82l152 184h108l-109 -130h1q59 0 95.5 -47t25.5 -111q-11 -60 -54 -99.5t-116 -40.5zM206 387q27 0 47 17t24 45q5 29 -11.5 51t-46.5 22q-26 0 -46 -18t-25 -44q-5 -30 11.5 -51.5t46.5 -21.5z" />
    <glyph glyph-name="uni2077" unicode="&#x2077;" horiz-adv-x="319" 
d="M68 308l198 336h-173l15 86h272l-14 -78l-195 -344h-103z" />
    <glyph glyph-name="uni2078" unicode="&#x2078;" horiz-adv-x="336" 
d="M188 302q-66 0 -104.5 39.5t-26.5 104.5q9 60 62 94q-28 38 -20 86q10 50 48.5 80t94.5 30q58 0 94 -39t27 -94q-10 -54 -50 -83q37 -41 27 -96q-9 -56 -50 -89t-102 -33zM193 384q25 0 41.5 13.5t20.5 34.5q4 25 -10.5 41t-40.5 16q-24 0 -41 -13.5t-21 -35.5
q-4 -23 10.5 -39.5t40.5 -16.5zM227 568q21 0 35.5 11.5t18.5 30.5q3 20 -10 33.5t-35 13.5q-21 0 -35 -10.5t-18 -28.5q-4 -21 9 -35.5t35 -14.5z" />
    <glyph glyph-name="uni2079" unicode="&#x2079;" horiz-adv-x="355" 
d="M89 305l113 134h-1q-57 0 -95 46.5t-27 107.5q11 60 58 100.5t114 40.5q72 0 111.5 -49t27.5 -112q-8 -50 -42 -89l-145 -179h-114zM229 516q26 0 45 17.5t24 43.5q6 29 -10 50.5t-46 21.5q-27 0 -46 -17t-24 -44q-5 -29 11.5 -50.5t45.5 -21.5z" />
    <glyph glyph-name="uni207A" unicode="&#x207a;" horiz-adv-x="260" 
d="M62 481l14 76h69l12 68h76l-12 -68h68l-13 -76h-69l-12 -69h-76l12 69h-69z" />
    <glyph glyph-name="uni207B" unicode="&#x207b;" horiz-adv-x="260" 
d="M62 481l14 76h213l-13 -76h-214z" />
    <glyph glyph-name="uni207C" unicode="&#x207c;" horiz-adv-x="260" 
d="M71 529l13 75h214l-13 -75h-214zM52 428l14 76h214l-13 -76h-215z" />
    <glyph glyph-name="uni207D" unicode="&#x207d;" horiz-adv-x="261" 
d="M249 294l-64 -69q-152 121 -117 313q16 95 74.5 166.5t139.5 113.5l51 -73q-144 -71 -171 -217q-24 -146 87 -234z" />
    <glyph glyph-name="uni207E" unicode="&#x207e;" horiz-adv-x="261" 
d="M102 746l65 69q151 -120 116 -312q-16 -95 -72.5 -166.5t-140.5 -114.5l-52 73q144 71 171 217q25 146 -87 234z" />
    <glyph glyph-name="uni2080" unicode="&#x2080;" horiz-adv-x="476" 
d="M212 -6q-98 0 -156 71t-41 167q14 84 80 140t152 56q97 0 155 -71t41 -166q-14 -85 -79 -141t-152 -56zM220 85q49 0 85.5 33t45.5 82q9 55 -22.5 96.5t-88.5 41.5q-51 0 -87.5 -32.5t-45.5 -81.5q-9 -56 23.5 -97.5t89.5 -41.5z" />
    <glyph glyph-name="uni2081" unicode="&#x2081;" horiz-adv-x="282" 
d="M-22 0l14 87h74l34 199q-25 -28 -67 -28h-6l17 95h3q38 0 60 20.5t26 48.5h84l-59 -335h76l-15 -87h-241z" />
    <glyph glyph-name="uni2082" unicode="&#x2082;" horiz-adv-x="330" 
d="M-22 0l13 77q5 26 18.5 49t36 42t40.5 31t46 28q67 39 81 56q9 11 11 21q4 19 -9 32t-36 13q-46 0 -69 -50l-78 38q22 43 61.5 67t89.5 24q66 0 103.5 -38t27.5 -98q-7 -41 -39.5 -69.5t-86.5 -58.5q-25 -14 -33.5 -19t-25.5 -16.5t-24.5 -21t-11.5 -20.5h183l-15 -87
h-283z" />
    <glyph glyph-name="uni2083" unicode="&#x2083;" horiz-adv-x="323" 
d="M120 -6q-96 0 -140 67l80 55q18 -36 63 -36q49 0 56 45q4 21 -10 35.5t-41 14.5h-44l14 84h42q26 0 43.5 12t21.5 31q3 20 -10 32.5t-35 12.5q-39 0 -63 -31l-63 59q53 53 132 53q65 0 102.5 -39.5t27.5 -95.5q-11 -55 -60 -81q49 -39 37 -107q-10 -53 -50 -82t-103 -29z
" />
    <glyph glyph-name="uni2084" unicode="&#x2084;" horiz-adv-x="370" 
d="M154 0l15 90h-176l14 82l214 250h95l-44 -252h59l-14 -80h-59l-16 -90h-88zM106 170h77l20 113z" />
    <glyph glyph-name="uni2085" unicode="&#x2085;" horiz-adv-x="334" 
d="M131 -6q-107 0 -141 88l91 42q10 -44 55 -44q23 0 41 14.5t22 37.5q5 29 -9 48t-40 19q-40 0 -60 -34l-77 30l68 227h239l-15 -86h-165l-21 -70q25 14 57 14q57 -1 91.5 -45.5t22.5 -107.5t-54 -98t-105 -35z" />
    <glyph glyph-name="uni2086" unicode="&#x2086;" horiz-adv-x="357" 
d="M144 -6q-75 0 -114.5 49t-27.5 113q8 45 39 82l152 184h108l-109 -130h1q59 0 95.5 -47t25.5 -111q-11 -60 -54 -99.5t-116 -40.5zM151 79q27 0 47 17t24 45q5 29 -11.5 51t-46.5 22q-26 0 -46 -18t-25 -44q-5 -30 11.5 -51.5t46.5 -21.5z" />
    <glyph glyph-name="uni2087" unicode="&#x2087;" horiz-adv-x="319" 
d="M12 0l198 336h-173l15 86h272l-14 -78l-195 -344h-103z" />
    <glyph glyph-name="uni2088" unicode="&#x2088;" horiz-adv-x="336" 
d="M133 -6q-66 0 -104.5 39.5t-26.5 104.5q9 60 62 94q-28 38 -20 86q10 50 48.5 80t94.5 30q58 0 94 -39t27 -94q-10 -54 -50 -83q37 -41 27 -96q-9 -56 -50 -89t-102 -33zM138 76q25 0 41.5 13.5t20.5 34.5q4 25 -10.5 41t-40.5 16q-24 0 -41 -13.5t-21 -35.5
q-4 -23 10.5 -39.5t40.5 -16.5zM172 260q21 0 35.5 11.5t18.5 30.5q3 20 -10 33.5t-35 13.5q-21 0 -35 -10.5t-18 -28.5q-4 -21 9 -35.5t35 -14.5z" />
    <glyph glyph-name="uni2089" unicode="&#x2089;" horiz-adv-x="355" 
d="M34 -3l113 134h-1q-57 0 -95 46.5t-27 107.5q11 60 58 100.5t114 40.5q72 0 111.5 -49t27.5 -112q-8 -50 -42 -89l-145 -179h-114zM174 208q26 0 45 17.5t24 43.5q6 29 -10 50.5t-46 21.5q-27 0 -46 -17t-24 -44q-5 -29 11.5 -50.5t45.5 -21.5z" />
    <glyph glyph-name="uni208A" unicode="&#x208a;" horiz-adv-x="260" 
d="M7 173l14 76h69l12 68h76l-12 -68h68l-13 -76h-69l-12 -69h-76l12 69h-69z" />
    <glyph glyph-name="uni208B" unicode="&#x208b;" horiz-adv-x="260" 
d="M7 173l14 76h213l-13 -76h-214z" />
    <glyph glyph-name="uni208C" unicode="&#x208c;" horiz-adv-x="260" 
d="M16 221l13 75h214l-13 -75h-214zM-3 120l14 76h214l-13 -76h-215z" />
    <glyph glyph-name="uni208D" unicode="&#x208d;" horiz-adv-x="261" 
d="M194 -14l-64 -69q-152 121 -117 313q16 95 74.5 166.5t139.5 113.5l51 -73q-144 -71 -171 -217q-24 -146 87 -234z" />
    <glyph glyph-name="uni208E" unicode="&#x208e;" horiz-adv-x="261" 
d="M53 438l65 69q151 -120 116 -312q-16 -95 -72.5 -166.5t-140.5 -114.5l-52 73q144 71 171 217q25 146 -87 234z" />
    <glyph glyph-name="uni20A1" unicode="&#x20a1;" horiz-adv-x="769" 
d="M70 -120l95 194q-65 59 -92 147t-10 186q25 143 138.5 238t265.5 95q14 0 22 -1l49 101h73l-54 -111q33 -9 51 -17l63 128h73l-78 -160q74 -51 115 -135l-105 -51q-23 55 -59 87l-236 -483q9 -1 27 -1q145 0 230 131l97 -55q-121 -182 -335 -183q-37 0 -70 6l-56 -116
h-72l64 132q-24 10 -49 24l-76 -156h-71zM172 391q-22 -122 46 -207l220 450q-98 -6 -173 -73.5t-93 -169.5zM267 138q26 -17 48 -25l246 503q-31 12 -52 15z" />
    <glyph glyph-name="uni20A2" unicode="&#x20a2;" horiz-adv-x="769" 
d="M400 -10q-174 -1 -270.5 122.5t-66.5 294.5q25 143 138.5 238t265.5 95q108 0 190.5 -53.5t123.5 -141.5l-105 -51q-58 141 -219 141q-104 0 -185 -68.5t-100 -175.5q-17 -95 22.5 -173.5t121.5 -108.5l31 160q8 32 -1 46t-36 14h-15l16 93h47q77 0 87 -70q58 70 157 70
h55l-19 -107h-43q-70 0 -106 -33t-50 -108l-16 -80q135 8 215 134l97 -55q-121 -182 -335 -183z" />
    <glyph glyph-name="franc" unicode="&#x20a3;" horiz-adv-x="507" 
d="M5 0l128 730h413l-18 -103h-304l-23 -134h303l-17 -96h-303l-13 -76h303l-17 -95h-303l-39 -226h-110z" />
    <glyph glyph-name="lira" unicode="&#x20a4;" horiz-adv-x="705" 
d="M104 414l15 81h80q-2 30 4 59q14 84 79 135t155 51q147 0 213 -107l-103 -48q-34 61 -113 61q-47 0 -81 -27.5t-42 -70.5q-5 -27 -3 -53h213l-15 -81h-186q2 -10 7 -29.5t8 -29.5h161l-14 -81h-131q7 -55 -1 -100q-5 -32 -16 -55q62 -40 106 -40q47 0 69.5 23t33.5 79
l8 44h113l-11 -58q-33 -177 -198 -177q-78 0 -165 60q-58 -61 -141 -61q-67 0 -101 34t-24 92q8 38 40 62t81 24q60 0 124 -39q1 2 2 7t1 7q6 42 -9 98h-183l14 81h139q-14 38 -20 59h-109zM149 54q52 0 85 38q-55 41 -87 41q-40 0 -47 -33q-3 -20 10 -33t39 -13z" />
    <glyph glyph-name="uni20A6" unicode="&#x20a6;" horiz-adv-x="799" 
d="M55 393l11 65h81l48 272h106l129 -272h185l48 272h110l-48 -272h80l-11 -65h-80l-9 -51h80l-12 -65h-80l-48 -277h-99l-132 277h-190l-48 -277h-110l49 277h-81l12 65h80l9 51h-80zM245 393l-9 -51h147l-24 51h-114zM461 393l24 -51h109l9 51h-142zM328 458l-52 111
l-20 -111h72zM516 277l49 -103l18 103h-67z" />
    <glyph glyph-name="peseta" unicode="&#x20a7;" horiz-adv-x="1313" 
d="M834 99h215q94 0 102 52q6 33 -51 55q-14 5 -48 15l-9 3q-36 11 -58.5 21t-47.5 28t-34.5 46.5t-2.5 66.5q11 57 64 91t131 34q130 0 196 -93l-87 -56q-43 61 -117 61q-73 0 -81 -48q-2 -12 2.5 -21.5t22.5 -18.5t26.5 -12t38.5 -13q10 -3 15 -5q36 -11 59 -21.5
t48.5 -29t35 -47t3.5 -66.5q-12 -69 -61 -105t-153 -36h-236q-123 0 -163.5 56t-21.5 166l31 182h-77q-30 -83 -105.5 -134.5t-176.5 -51.5h-141l-38 -218h-110l128 730h221q100 0 170 -64t69 -166h77l21 118l119 59q-15 -83 -31 -177h104l-17 -96h-104q-32 -181 -33 -183
q-11 -65 9 -93.5t96 -28.5zM338 631h-112l-55 -313h128q73 0 122 43t61 109q12 68 -29.5 114.5t-114.5 46.5z" />
    <glyph glyph-name="uni20A8" unicode="&#x20a8;" horiz-adv-x="1021" 
d="M5 0l128 730h216q120 0 188 -75.5t49 -185.5q-13 -74 -68.5 -129t-144.5 -69q38 -84 126 -135.5t234 -51.5q120 0 130 61q6 32 -49 52q-11 4 -56 18q-38 12 -60.5 22t-49.5 29t-37 47.5t-3 67.5q10 58 64 94t131 36q65 0 117.5 -25t83.5 -68l-88 -56q-42 61 -121 61
q-34 0 -56 -14t-26 -39q-4 -23 19.5 -37t75.5 -31q4 -1 7 -2l6 -2q29 -9 47.5 -16.5t42.5 -21.5t36.5 -29.5t19.5 -40.5t2 -55q-23 -148 -245 -149q-114 0 -205.5 33t-148 88t-89.5 118t-45 133h59q80 0 124.5 35.5t55.5 92.5q11 63 -29 103.5t-114 41.5h-107l-110 -631
h-110z" />
    <glyph glyph-name="uni20A9" unicode="&#x20a9;" horiz-adv-x="1088" 
d="M54 393l12 65h96l-30 272h113l27 -272h170l132 272h103l38 -272h170l123 272h114l-126 -272h98l-12 -65h-116l-24 -51h131l-11 -65h-150l-128 -277h-107l-38 277h-181l-135 -277h-109l-31 277h-149l11 65h130l-5 51h-116zM514 393l-25 -51h141l-7 51h-109zM724 393l7 -51
h102l23 51h-132zM279 393l5 -51h101l25 51h-131zM599 568l-53 -110h68zM804 277h-64l15 -110zM354 277h-64l11 -108z" />
    <glyph glyph-name="uni20AA" unicode="&#x20aa;" horiz-adv-x="771" 
d="M191 0l100 566q67 0 86 -19.5t8 -79.5l-65 -366h94q96 0 140 38.5t61 133.5l81 457h112l-81 -457q-26 -144 -100 -208.5t-226 -64.5h-210zM4 0l129 730h213q275 0 226 -273l-33 -185q-10 -56 -38 -78t-91 -22l50 285q18 96 -11.5 134t-126.5 38h-96l-111 -629h-111z" />
    <glyph glyph-name="Euro" unicode="&#x20ac;" 
d="M72 426l15 86h76l3 13q16 95 84.5 155t171.5 60q63 0 111 -26t75 -68l-98 -62q-30 53 -94 53q-57 0 -95 -34.5t-48 -90.5h242l-30 -86h-227l-22 -122h209l-28 -85h-193q-2 -57 28 -91.5t89 -34.5q64 0 105 54l90 -67q-73 -90 -200 -90q-114 0 -171 64t-51 165h-77l14 85
h76l21 122h-76z" />
    <glyph glyph-name="uni20AE" unicode="&#x20ae;" horiz-adv-x="577" 
d="M513 534l-12 -69l-128 -49l-12 -70l127 49l-12 -70l-127 -49l-48 -276h-110l40 231l-132 -51l11 70l134 51l12 70l-133 -51l12 70l133 50l32 187h-191l18 103h492l-18 -103h-191l-25 -142z" />
    <glyph glyph-name="uni20B1" unicode="&#x20b1;" horiz-adv-x="721" 
d="M79 500l12 65h77l29 165h221q81 0 145 -45t85 -120h98l-12 -65h-77q0 -14 -4 -46q-1 -2 -1 -5h73l-11 -65h-83q-34 -75 -106.5 -120.5t-167.5 -45.5h-140l-38 -218h-110l67 384h-77l11 65h78l9 51h-78zM362 318q91 0 145 66h-261l-12 -66h128zM546 470q2 10 2 30h-282
l-9 -51h284q1 3 2.5 10t2.5 11zM402 631h-113l-11 -66h252q-40 66 -128 66z" />
    <glyph glyph-name="published" unicode="&#x2117;" horiz-adv-x="819" 
d="M391 -71q-111 0 -196 57t-123.5 152t-19.5 204q25 145 137.5 241t259.5 96q111 0 195.5 -57t123 -152t19.5 -204q-25 -145 -137.5 -241t-258.5 -96zM400 19q110 0 193 74t103 185q22 124 -49.5 219t-201.5 95q-113 0 -196.5 -73.5t-104.5 -186.5q-22 -125 51.5 -219
t204.5 -94zM250 115l67 380h155q72 0 112 -47.5t31 -106.5q-10 -57 -55 -93t-111 -36h-86l-17 -97h-96zM451 415h-53l-21 -121h62q70 0 79 59q6 31 -13.5 46.5t-53.5 15.5z" />
    <glyph glyph-name="servicemark" unicode="&#x2120;" horiz-adv-x="647" 
d="M312 440l51 290h76l60 -109l105 109h78l-52 -290h-77l30 169l-100 -98l-64 100l-30 -171h-77zM175 434q-73 0 -109 57l67 42q15 -30 42 -30q25 0 30 23q-1 3 0 5t-1.5 5t-2.5 4t-4 4t-5 4t-5.5 4t-6.5 4t-7.5 4t-7.5 4q-21 11 -33 20.5t-22 30.5t-5 48q5 33 33.5 53
t70.5 20q70 0 99 -48l-64 -41q-13 25 -38 25q-24 0 -27 -20q-1 -5 1 -9.5t10 -10t12 -7.5l18 -9q21 -11 33.5 -20.5t22.5 -31t5 -49.5q-6 -36 -33.5 -58.5t-72.5 -22.5z" />
    <glyph glyph-name="trademark" unicode="&#x2122;" horiz-adv-x="669" 
d="M334 440l51 290h76l60 -109l105 109h78l-52 -290h-77l30 169l-100 -98l-64 100l-30 -171h-77zM146 440l39 219h-82l13 71h239l-13 -71h-80l-39 -219h-77z" />
    <glyph glyph-name="uni2153" unicode="&#x2153;" horiz-adv-x="861" 
d="M45 0l652 730h130l-652 -730h-130zM651 -6q-96 0 -140 67l80 55q18 -36 63 -36q48 0 56 45q4 21 -10 35.5t-41 14.5h-44l14 84h42q26 0 43.5 12t21.5 31q3 20 -10 32.5t-35 12.5q-39 0 -63 -31l-63 59q53 53 132 53q65 0 102.5 -39.5t27.5 -95.5q-11 -55 -60 -81
q49 -39 37 -107q-10 -53 -50 -82t-103 -29zM33 308l14 87h74l34 199q-25 -28 -67 -28h-6l17 95h3q38 0 60 20.5t26 48.5h84l-59 -335h76l-15 -87h-241z" />
    <glyph glyph-name="uni2154" unicode="&#x2154;" horiz-adv-x="906" 
d="M91 0l652 730h130l-652 -730h-130zM35 308l13 77q5 26 18.5 49t36 42t40.5 31t46 28q67 39 81 56q9 11 11 21q4 19 -9 32t-36 13q-46 0 -69 -50l-78 38q22 43 61.5 67t89.5 24q66 0 103.5 -38t27.5 -98q-7 -41 -39.5 -69.5t-86.5 -58.5q-25 -14 -33.5 -19t-25.5 -16.5
t-24.5 -21t-11.5 -20.5h183l-15 -87h-283zM691 -6q-96 0 -140 67l80 55q18 -36 63 -36q48 0 56 45q4 21 -10 35.5t-41 14.5h-44l14 84h42q26 0 43.5 12t21.5 31q3 20 -10 32.5t-35 12.5q-39 0 -63 -31l-63 59q53 53 132 53q65 0 102.5 -39.5t27.5 -95.5q-11 -55 -60 -81
q49 -39 37 -107q-10 -53 -50 -82t-103 -29z" />
    <glyph glyph-name="uni2155" unicode="&#x2155;" horiz-adv-x="850" 
d="M45 0l652 730h130l-652 -730h-130zM654 -6q-107 0 -141 88l91 42q10 -44 55 -44q23 0 41 14.5t22 37.5q5 29 -9 48t-40 19q-40 0 -60 -34l-77 30l68 227h239l-15 -86h-165l-21 -70q24 14 57 14q57 -1 91.5 -45.5t22.5 -107.5t-54 -98t-105 -35zM33 308l14 87h74l34 199
q-25 -28 -67 -28h-6l17 95h3q38 0 60 20.5t26 48.5h84l-59 -335h76l-15 -87h-241z" />
    <glyph glyph-name="uni2156" unicode="&#x2156;" horiz-adv-x="904" 
d="M91 0l652 730h130l-652 -730h-130zM706 -6q-107 0 -141 88l91 42q10 -44 55 -44q23 0 41 14.5t22 37.5q5 29 -9 48t-40 19q-40 0 -60 -34l-77 30l68 227h239l-15 -86h-165l-21 -70q24 14 57 14q57 -1 91.5 -45.5t22.5 -107.5t-54 -98t-105 -35zM35 308l13 77
q5 26 18.5 49t36 42t40.5 31t46 28q67 39 81 56q9 11 11 21q4 19 -9 32t-36 13q-46 0 -69 -50l-78 38q22 43 61.5 67t89.5 24q66 0 103.5 -38t27.5 -98q-7 -41 -39.5 -69.5t-86.5 -58.5q-25 -14 -33.5 -19t-25.5 -16.5t-24.5 -21t-11.5 -20.5h183l-15 -87h-283z" />
    <glyph glyph-name="uni2157" unicode="&#x2157;" horiz-adv-x="892" 
d="M79 0l652 730h130l-652 -730h-130zM694 -6q-107 0 -141 88l91 42q10 -44 55 -44q23 0 41 14.5t22 37.5q5 29 -9 48t-40 19q-40 0 -60 -34l-77 30l68 227h239l-15 -86h-165l-21 -70q24 14 57 14q57 -1 91.5 -45.5t22.5 -107.5t-54 -98t-105 -35zM174 302q-96 0 -140 67
l80 55q18 -36 63 -36q49 0 56 45q4 21 -10 35.5t-41 14.5h-44l14 84h42q26 0 43.5 12t21.5 31q3 20 -10 32.5t-35 12.5q-39 0 -63 -31l-63 59q53 53 132 53q65 0 102.5 -39.5t27.5 -95.5q-11 -55 -60 -81q49 -39 37 -107q-10 -53 -50 -82t-103 -29z" />
    <glyph glyph-name="uni2158" unicode="&#x2158;" horiz-adv-x="915" 
d="M102 0l652 730h130l-652 -730h-130zM209 308l15 90h-176l14 82l214 250h95l-44 -252h59l-14 -80h-59l-16 -90h-88zM717 -6q-107 0 -141 88l91 42q10 -44 55 -44q23 0 41 14.5t22 37.5q5 29 -9 48t-40 19q-40 0 -60 -34l-77 30l68 227h239l-15 -86h-165l-21 -70
q25 14 57 14q57 -1 91.5 -45.5t22.5 -107.5t-54 -98t-105 -35zM161 478h77l20 113z" />
    <glyph glyph-name="uni2159" unicode="&#x2159;" horiz-adv-x="837" 
d="M45 0l652 730h130l-652 -730h-130zM618 -6q-75 0 -114.5 49t-27.5 113q8 45 39 82l152 184h108l-109 -130h1q59 0 95.5 -47t25.5 -111q-11 -60 -54 -99.5t-116 -40.5zM33 308l14 87h74l34 199q-25 -28 -67 -28h-6l17 95h3q38 0 60 20.5t26 48.5h84l-59 -335h76l-15 -87
h-241zM625 79q27 0 47 17t24 45q5 29 -11.5 51t-46.5 22q-26 0 -46 -18t-25 -44q-5 -30 11.5 -51.5t46.5 -21.5z" />
    <glyph glyph-name="uni215A" unicode="&#x215a;" horiz-adv-x="869" 
d="M77 0l652 730h130l-652 -730h-130zM650 -6q-75 0 -114.5 49t-27.5 113q8 45 39 82l152 184h108l-109 -130h1q59 0 95.5 -47t25.5 -111q-11 -60 -54 -99.5t-116 -40.5zM186 302q-107 0 -141 88l91 42q10 -44 55 -44q23 0 41 14.5t22 37.5q5 29 -9 48t-40 19q-40 0 -60 -34
l-77 30l68 227h239l-15 -86h-165l-21 -70q25 14 57 14q57 -1 91.5 -45.5t22.5 -107.5t-54 -98t-105 -35zM657 79q27 0 47 17t24 45q5 29 -11.5 51t-46.5 22q-26 0 -46 -18t-25 -44q-5 -30 11.5 -51.5t46.5 -21.5z" />
    <glyph glyph-name="uni215B" unicode="&#x215b;" horiz-adv-x="850" 
d="M647 -6q-66 0 -104.5 39.5t-26.5 104.5q9 60 62 94q-28 38 -20 86q10 50 48.5 80t94.5 30q58 0 94 -39t27 -94q-10 -54 -50 -83q37 -41 27 -96q-9 -56 -50 -89t-102 -33zM45 0l652 730h130l-652 -730h-130zM33 308l14 87h74l34 199q-25 -28 -67 -28h-6l17 95h3
q38 0 60 20.5t26 48.5h84l-59 -335h76l-15 -87h-241zM652 76q25 0 41.5 13.5t20.5 34.5q4 25 -10.5 41t-40.5 16q-24 0 -41 -13.5t-21 -35.5q-4 -23 10.5 -39.5t40.5 -16.5zM686 260q21 0 35.5 11.5t18.5 30.5q3 20 -10 33.5t-35 13.5q-21 0 -35 -10.5t-18 -28.5
q-4 -21 9 -35.5t35 -14.5z" />
    <glyph glyph-name="uni215C" unicode="&#x215c;" horiz-adv-x="884" 
d="M681 -6q-66 0 -104.5 39.5t-26.5 104.5q9 60 62 94q-28 38 -20 86q10 50 48.5 80t94.5 30q58 0 94 -39t27 -94q-10 -54 -50 -83q37 -41 27 -96q-9 -56 -50 -89t-102 -33zM79 0l652 730h130l-652 -730h-130zM185 302q-96 0 -140 67l80 55q18 -36 63 -36q48 0 56 45
q4 21 -10 35.5t-41 14.5h-44l14 84h42q26 0 43.5 12t21.5 31q3 20 -10 32.5t-35 12.5q-39 0 -63 -31l-63 59q53 53 132 53q65 0 102.5 -39.5t27.5 -95.5q-11 -55 -60 -81q49 -39 37 -107q-10 -53 -50 -82t-103 -29zM686 76q25 0 41.5 13.5t20.5 34.5q4 25 -10.5 41t-40.5 16
q-24 0 -41 -13.5t-21 -35.5q-4 -23 10.5 -39.5t40.5 -16.5zM720 260q21 0 35.5 11.5t18.5 30.5q3 20 -10 33.5t-35 13.5q-21 0 -35 -10.5t-18 -28.5q-4 -21 9 -35.5t35 -14.5z" />
    <glyph glyph-name="uni215D" unicode="&#x215d;" horiz-adv-x="876" 
d="M679 -6q-66 0 -104.5 39.5t-26.5 104.5q9 60 62 94q-28 38 -20 86q10 50 48.5 80t94.5 30q58 0 94 -39t27 -94q-10 -54 -50 -83q37 -41 27 -96q-9 -56 -50 -89t-102 -33zM77 0l652 730h130l-652 -730h-130zM186 302q-107 0 -141 88l91 42q10 -44 55 -44q23 0 41 14.5
t22 37.5q5 29 -9 48t-40 19q-40 0 -60 -34l-77 30l68 227h239l-15 -86h-165l-21 -70q25 14 57 14q57 -1 91.5 -45.5t22.5 -107.5t-54 -98t-105 -35zM684 76q25 0 41.5 13.5t20.5 34.5q4 25 -10.5 41t-40.5 16q-24 0 -41 -13.5t-21 -35.5q-4 -23 10.5 -39.5t40.5 -16.5z
M718 260q21 0 35.5 11.5t18.5 30.5q3 20 -10 33.5t-35 13.5q-21 0 -35 -10.5t-18 -28.5q-4 -21 9 -35.5t35 -14.5z" />
    <glyph glyph-name="uni215E" unicode="&#x215e;" horiz-adv-x="791" 
d="M591 -6q-66 0 -104.5 39.5t-26.5 104.5q9 60 62 94q-28 38 -20 86q10 50 48.5 80t94.5 30q58 0 94 -39t27 -94q-10 -54 -50 -83q37 -41 27 -96q-9 -56 -50 -89t-102 -33zM-11 0l652 730h130l-652 -730h-130zM68 308l198 336h-173l15 86h272l-14 -78l-195 -344h-103z
M596 76q25 0 41.5 13.5t20.5 34.5q4 25 -10.5 41t-40.5 16q-24 0 -41 -13.5t-21 -35.5q-4 -23 10.5 -39.5t40.5 -16.5zM630 260q21 0 35.5 11.5t18.5 30.5q3 20 -10 33.5t-35 13.5q-21 0 -35 -10.5t-18 -28.5q-4 -21 9 -35.5t35 -14.5z" />
    <glyph glyph-name="uni215F" unicode="&#x215f;" horiz-adv-x="763" 
d="M45 0l652 730h130l-652 -730h-130zM33 308l14 87h74l34 199q-25 -28 -67 -28h-6l17 95h3q38 0 60 20.5t26 48.5h84l-59 -335h76l-15 -87h-241z" />
    <glyph glyph-name="arrowleft" unicode="&#x2190;" horiz-adv-x="896" 
d="M305 90q-36 74 -95.5 141.5t-127.5 107.5v52q66 42 126.5 115.5t85.5 136.5l95 -55q-22 -48 -60.5 -93.5t-80.5 -76.5h586v-104h-584q86 -60 144 -163z" />
    <glyph glyph-name="arrowup" unicode="&#x2191;" horiz-adv-x="896" 
d="M427 0v574q-74 -94 -169 -138l-54 94q64 27 137 87t114 125h50q41 -65 114 -125t137 -87l-54 -94q-94 43 -169 138v-574h-106z" />
    <glyph glyph-name="arrowright" unicode="&#x2192;" horiz-adv-x="896" 
d="M613 90l-88 61q55 101 143 163h-583v104h585q-97 75 -140 170l95 55q25 -64 85.5 -137.5t126.5 -114.5v-52q-67 -40 -127 -107.5t-97 -141.5z" />
    <glyph glyph-name="arrowdown" unicode="&#x2193;" horiz-adv-x="896" 
d="M421 -12q-41 66 -114.5 126.5t-136.5 85.5l55 95q96 -46 168 -138v573h105v-576q31 42 76.5 80.5t93.5 60.5l55 -95q-63 -25 -136.5 -85.5t-115.5 -126.5h-50z" />
    <glyph glyph-name="uni2196" unicode="&#x2196;" horiz-adv-x="896" 
d="M158 269q26 77 31.5 171t-13.5 172l37 38q83 -17 179 -8t159 36l7 -105q-91 -34 -209 -22l415 -414l-74 -73l-412 411q21 -108 -10 -214z" />
    <glyph glyph-name="uni2197" unicode="&#x2197;" horiz-adv-x="896" 
d="M215 67l-74 74l412 412q-108 -21 -214 10l8 110q77 -26 170.5 -31t172.5 14l37 -37q-17 -83 -7.5 -179t35.5 -159l-105 -8q-34 89 -21 209z" />
    <glyph glyph-name="uni2198" unicode="&#x2198;" horiz-adv-x="896" 
d="M708 90q-83 17 -179 7.5t-159 -35.5l-7 105q89 34 208 21l-414 414l74 74l411 -412q-20 106 11 214l110 -8q-26 -77 -31.5 -170.5t13.5 -172.5z" />
    <glyph glyph-name="uni2199" unicode="&#x2199;" horiz-adv-x="896" 
d="M565 66q-77 26 -171 31.5t-172 -13.5l-38 37q17 83 8 179t-36 159l105 7q35 -93 21 -209l415 415l73 -74l-411 -412q108 21 214 -10z" />
    <glyph glyph-name="partialdiff" unicode="&#x2202;" horiz-adv-x="592" 
d="M276 -10q-117 0 -186.5 81.5t-51.5 200.5q15 101 88 166t166 65q76 0 126 -35q-63 110 -243 262h147q127 -119 190 -253t40 -259q-18 -101 -93 -164.5t-183 -63.5zM283 88q59 0 106 39t58 101q14 71 -24.5 126t-114.5 56q-59 0 -105.5 -39.5t-58.5 -102.5
q-13 -71 27 -125.5t112 -54.5z" />
    <glyph glyph-name="increment" unicode="&#x2206;" horiz-adv-x="897" 
d="M832 0h-852l553 742zM504 530l-320 -426h492z" />
    <glyph glyph-name="product" unicode="&#x220f;" horiz-adv-x="780" 
d="M107 627l18 103h698l-18 -103h-130l-110 -627h-110l110 627h-216l-110 -627h-110l110 627h-132z" />
    <glyph glyph-name="summation" unicode="&#x2211;" horiz-adv-x="563" 
d="M-8 0l17 108l281 269l-175 254l19 99h475l-18 -103h-351l181 -266l-271 -257h357l-18 -104h-497z" />
    <glyph glyph-name="minus" unicode="&#x2212;" horiz-adv-x="452" 
d="M51 319l16 92h370l-16 -92h-370z" />
    <glyph glyph-name="radical" unicode="&#x221a;" horiz-adv-x="789" 
d="M288 0l-146 402h-87v98h163l133 -373l327 603h122l-404 -730h-108z" />
    <glyph glyph-name="infinity" unicode="&#x221e;" horiz-adv-x="915" 
d="M270 210q-72 0 -123.5 51t-51.5 123q0 73 51.5 124t123.5 51q54 0 103.5 -29t105.5 -81q116 110 206 110q73 0 124 -51t51 -124q0 -72 -51 -123t-124 -51q-53 0 -102 29.5t-105 81.5q-56 -52 -105.5 -81.5t-102.5 -29.5zM271 302q53 0 141 83q-87 80 -141 80
q-33 0 -57.5 -24.5t-24.5 -56.5q0 -33 24.5 -57.5t57.5 -24.5zM685 303q33 0 57 24.5t24 57.5q0 32 -24 56.5t-57 24.5q-31 0 -63.5 -20.5t-76.5 -59.5q88 -83 140 -83z" />
    <glyph glyph-name="integral" unicode="&#x222b;" horiz-adv-x="353" 
d="M-79 -201l17 100h22q50 0 69 18.5t29 80.5l93 530q21 127 62.5 165.5t151.5 38.5h31l-17 -100h-23q-51 0 -68.5 -18t-29.5 -87l-93 -529q-21 -118 -58.5 -158.5t-134.5 -40.5h-51z" />
    <glyph glyph-name="approxequal" unicode="&#x2248;" horiz-adv-x="452" 
d="M64 394l17 93q58 26 100 26q31 0 88.5 -19.5t82.5 -19.5q37 0 101 26l-17 -93q-50 -26 -100 -26q-29 0 -87 20t-83 20q-40 0 -102 -27zM35 227l16 93q62 28 98 28q31 0 91 -19.5t85 -19.5q40 0 98 24l-17 -93q-48 -25 -97 -25q-29 0 -90 20t-86 20q-8 0 -16 -0.5
t-16 -2.5t-13 -3.5t-13.5 -5t-12.5 -5t-14 -6t-13 -5.5z" />
    <glyph glyph-name="notequal" unicode="&#x2260;" horiz-adv-x="452" 
d="M65 400l17 92h189l37 69h80l-37 -69h101l-17 -92h-134l-39 -73h160l-16 -92h-193l-37 -70h-79l37 70h-98l16 92h131l39 73h-157z" />
    <glyph glyph-name="equivalence" unicode="&#x2261;" horiz-adv-x="452" 
d="M50 317l17 92h370l-17 -92h-370zM21 153l16 91h370l-16 -91h-370zM80 482l16 92h370l-16 -92h-370z" />
    <glyph glyph-name="lessequal" unicode="&#x2264;" horiz-adv-x="452" 
d="M411 265l-346 138l17 92l393 136l-17 -97l-270 -87l240 -88zM18 136l16 92h370l-16 -92h-370z" />
    <glyph glyph-name="greaterequal" unicode="&#x2265;" horiz-adv-x="452" 
d="M40 265l18 99l270 87l-239 88l16 92l345 -137l-16 -92zM18 136l16 92h370l-16 -92h-370z" />
    <glyph glyph-name="squaremultiply" unicode="&#x22a0;" horiz-adv-x="926" 
d="M117 0v730h726v-730h-726zM226 626v-522h509v522h-509zM349 166l-64 63l132 137l-134 140l64 63l133 -138l133 139l64 -63l-135 -140l133 -138l-64 -63l-132 136z" />
    <glyph glyph-name="house" unicode="&#x2302;" horiz-adv-x="874" 
d="M772 0h-674v427l337 323l337 -323v-427z" />
    <glyph glyph-name="blacksquare" unicode="&#x25a0;" horiz-adv-x="926" 
d="M117 0v730h726v-730h-726z" />
    <glyph glyph-name="blacksquare" unicode="&#xe740;" horiz-adv-x="926" 
d="M117 0v730h726v-730h-726z" />
    <glyph glyph-name="whitesquare" unicode="&#x25a1;" horiz-adv-x="926" 
d="M117 0v730h726v-730h-726zM226 626v-522h509v522h-509z" />
    <glyph glyph-name="blacksmallsquare" unicode="&#x25aa;" horiz-adv-x="700" 
d="M100 0v500h500v-500h-500z" />
    <glyph glyph-name="whitesmallsquare" unicode="&#x25ab;" horiz-adv-x="700" 
d="M100 0v500h500v-500h-500zM208 395v-289h285v289h-285z" />
    <glyph glyph-name="triagup" unicode="&#x25b2;" horiz-adv-x="897" 
d="M843 0h-857l429 742z" />
    <glyph glyph-name="triagrt" unicode="&#x25ba;" horiz-adv-x="897" 
d="M139 -57v857l742 -428z" />
    <glyph glyph-name="triagdn" unicode="&#x25bc;" horiz-adv-x="897" 
d="M95 730h857l-428 -742z" />
    <glyph glyph-name="triaglf" unicode="&#x25c4;" horiz-adv-x="897" 
d="M797 800v-857l-742 429z" />
    <glyph glyph-name="lozenge" unicode="&#x25ca;" horiz-adv-x="843" 
d="M384 -16l-328 394l434 368l328 -394zM194 370l203 -244l282 236l-203 244z" />
    <glyph glyph-name="whitecircle" unicode="&#x25cb;" horiz-adv-x="927" 
d="M481 -10q-155 0 -264.5 110t-109.5 265t109.5 265t264.5 110q156 0 265.5 -110t109.5 -265t-109.5 -265t-265.5 -110zM481 96q112 0 189 78.5t77 190.5t-77 191t-189 79q-111 0 -188 -79t-77 -191t77 -190.5t188 -78.5z" />
    <glyph glyph-name="whitecircle" unicode="&#x25ef;" horiz-adv-x="927" 
d="M481 -10q-155 0 -264.5 110t-109.5 265t109.5 265t264.5 110q156 0 265.5 -110t109.5 -265t-109.5 -265t-265.5 -110zM481 96q112 0 189 78.5t77 190.5t-77 191t-189 79q-111 0 -188 -79t-77 -191t77 -190.5t188 -78.5z" />
    <glyph glyph-name="bullseye" unicode="&#x25ce;" horiz-adv-x="927" 
d="M856 365q0 -155 -110 -265t-265 -110t-265 110t-110 265t110 265t265 110t265 -110t110 -265zM759 365q0 116 -81.5 194.5t-196.5 78.5t-196.5 -78.5t-81.5 -194.5t81.5 -194.5t196.5 -78.5t196.5 78.5t81.5 194.5zM714 365q0 -98 -66.5 -166t-165.5 -68t-165.5 68
t-66.5 166q0 97 66.5 166t165.5 69t165.5 -69t66.5 -166zM617 365q0 55 -38.5 94t-96.5 39t-97 -39t-39 -94q0 -56 39 -94t97 -38t96.5 38t38.5 94zM576 365q0 -39 -27 -66.5t-67 -27.5t-68 27.5t-28 66.5t28 66.5t68 27.5t67 -27.5t27 -66.5z" />
    <glyph glyph-name="blackcircle" unicode="&#x25cf;" horiz-adv-x="927" 
d="M481 -10q-155 0 -264.5 110t-109.5 265t109.5 265t264.5 110q156 0 265.5 -110t109.5 -265t-109.5 -265t-265.5 -110z" />
    <glyph glyph-name="uni25E2" unicode="&#x25e2;" horiz-adv-x="897" 
d="M919 533l-606 -606l-222 828z" />
    <glyph glyph-name="uni25E3" unicode="&#x25e3;" horiz-adv-x="897" 
d="M686 -73l-606 606l828 222z" />
    <glyph glyph-name="uni25E4" unicode="&#x25e4;" horiz-adv-x="897" 
d="M837 -54l-828 222l606 606z" />
    <glyph glyph-name="uni25E5" unicode="&#x25e5;" horiz-adv-x="897" 
d="M857 163l-828 -221l223 828z" />
    <glyph glyph-name="uni2605" unicode="&#x2605;" horiz-adv-x="900" 
d="M570 303l72 -218l-187 135l-186 -135l72 219l-186 135l229 -1l72 218l71 -218l230 -1z" />
    <glyph glyph-name="ballotboxwithx" unicode="&#x2612;" horiz-adv-x="700" 
d="M100 0v500h500v-500h-500zM199 403v-306h302v306h-302zM281 121l-56 56l69 71l-71 70l56 56l70 -70l71 73l56 -56l-70 -72l71 -70l-56 -56l-71 69z" />
    <glyph glyph-name="uni263C" unicode="&#x263c;" horiz-adv-x="928" 
d="M304 365q0 71 51.5 122.5t122.5 51.5t122.5 -51.5t51.5 -122.5t-51.5 -122.5t-122.5 -51.5t-122.5 51.5t-51.5 122.5zM468 577l-17 142h54l-17 -142h-20zM488 155l17 -142h-54l17 142h20zM267 356l-142 -17v54l142 -17v-20zM689 376l142 17v-54l-142 17v20zM290 464
l-133 55l28 47l115 -87zM666 268l133 -55l-28 -47l-115 87zM365 544l-87 115l47 28l55 -133zM591 188l87 -115l-47 -28l-55 133zM576 554l55 133l47 -28l-87 -115zM380 178l-55 -133l-47 28l87 115zM656 480l113 86l30 -46l-133 -56zM300 252l-113 -86l-30 46l133 56z" />
    <glyph glyph-name="uni263E" unicode="&#x263e;" horiz-adv-x="787" 
d="M549 616q-99 0 -169 -73.5t-70 -177.5t70 -177.5t169 -73.5q32 0 71 12q-81 -57 -178 -57q-122 0 -209 87t-87 209t87 209t209 87q97 0 178 -57q-46 12 -71 12z" />
    <glyph glyph-name="spade" unicode="&#x2660;" horiz-adv-x="920" 
d="M605 0h-259q27 50 39.5 75.5t33.5 92.5t21 122q-21 -59 -64 -97.5t-106 -38.5q-70 0 -120.5 47t-50.5 111q0 82 52 150t183 173l140 112h1l140 -112q128 -103 178 -171t50 -152q0 -64 -46.5 -110.5t-110.5 -46.5q-69 0 -114.5 38.5t-66.5 96.5q0 -29 6 -61t13 -55.5
t21.5 -56t21 -45.5t22.5 -42t16 -30z" />
    <glyph glyph-name="club" unicode="&#x2663;" horiz-adv-x="920" 
d="M601 0h-259q80 150 91 248q-22 -53 -66.5 -85.5t-100.5 -32.5q-74 0 -125.5 52t-51.5 125t51.5 125t125.5 52q19 0 42 -7q-19 41 -19 87q0 73 51 124.5t124 51.5t124.5 -51.5t51.5 -124.5q0 -45 -19 -88q22 8 46 8q73 0 124.5 -51.5t51.5 -125.5q0 -73 -51.5 -125
t-125.5 -52q-56 0 -99 32t-64 85q3 -25 10.5 -52t15.5 -48t20 -46.5t19 -39t19 -35.5t14 -26z" />
    <glyph glyph-name="heart" unicode="&#x2665;" horiz-adv-x="920" 
d="M138 550q0 78 53 134t130 56q75 0 126 -45.5t59 -115.5q9 70 59.5 115.5t125.5 45.5q77 0 133 -56.5t56 -133.5q0 -85 -52.5 -177t-179.5 -233l-142 -157l-141 157q-125 139 -176 231.5t-51 178.5z" />
    <glyph glyph-name="diamond" unicode="&#x2666;" horiz-adv-x="920" 
d="M157 390l327 401l327 -401l-327 -400z" />
    <glyph glyph-name="uni267B" unicode="&#x267b;" horiz-adv-x="921" 
d="M838 246l1 -2l-91 -157q-13 -19 -19.5 -27.5t-23 -16.5t-39.5 -8h-54v-47l-106 128l106 127v-46h136q25 0 47.5 12.5t32.5 24.5zM201 111h-2l-90 158q-10 19 -14 29.5t-3 28.5t13 38l27 46l-40 23l164 29l55 -156l-38 23q-66 -113 -68 -118q-12 -21 -13 -46.5t4 -39.5z
M406 728v1h182q22 -1 33.5 -2.5t26.5 -11.5t26 -30l26 -46l41 23l-58 -157l-162 30l38 22l-67 118q-13 22 -34.5 35t-36.5 16zM214 558l63 112q11 18 32 29q43 22 91 9t64 -42l-109 -189zM446 35h-127q-23 0 -42 12q-40 23 -53.5 74t4.5 76h218v-162zM784 491l65 -110
q9 -14 9 -41q1 -45 -35.5 -81.5t-69.5 -36.5l-109 189z" />
    <glyph glyph-name="uni267C" unicode="&#x267c;" horiz-adv-x="921" 
d="M853 366q0 -156 -110 -265.5t-265 -109.5q-157 0 -267 109.5t-110 265.5t110 266.5t267 110.5q155 0 265 -110.5t110 -266.5zM320 606l-49 -86l109 -63l84 146q-12 23 -49.5 33t-70.5 -7q-19 -12 -24 -23zM415 652v-1q46 -4 67 -41l53 -91l-30 -18l126 -23l44 122
l-31 -18l-21 36q-13 22 -27.5 28t-39.5 6h-141zM348 114h99v126h-170q-14 -20 -3 -59.5t42 -57.5q17 -9 32 -9zM259 173h1q-18 41 3 79l53 91l30 -18l-43 121l-127 -22l31 -18l-21 -36q-9 -15 -10 -29.5t2 -21.5t11 -24zM762 383l-49 85l-110 -63l85 -147q26 0 54.5 28.5
t27.5 64.5q0 18 -8 32zM755 276l-1 1q-26 -37 -70 -37h-105v35l-83 -98l83 -99v36h41q26 0 39 9.5t25 30.5z" />
    <glyph glyph-name="uni267D" unicode="&#x267d;" horiz-adv-x="921" 
d="M852 366q0 -156 -110 -265.5t-265 -109.5q-157 0 -267 109.5t-110 265.5t110 266.5t267 110.5q155 0 265 -110.5t110 -266.5zM833 366q0 149 -104 253.5t-252 104.5q-149 0 -254 -104.5t-105 -253.5q0 -148 105 -252.5t254 -104.5q148 0 252 104.5t104 252.5zM270 520
l49 86q5 11 24 23q33 17 70.5 7t49.5 -33l-84 -146zM414 651v1h141q25 0 39.5 -6t27.5 -28l21 -36l31 18l-44 -122l-126 23l30 18l-53 91q-9 16 -26 26.5t-29 12.5zM446 114h-99q-15 0 -32 9q-31 18 -42 57.5t3 59.5h170v-126zM259 173h-1l-70 122q-8 17 -11 24t-2 21.5
t10 29.5l21 36l-31 18l127 22l43 -121l-30 18l-53 -91q-9 -17 -10 -36.5t3 -31.5zM712 468l49 -85q8 -14 8 -32q1 -36 -27.5 -64.5t-54.5 -28.5l-85 147zM753 277l1 -1l-71 -122q-8 -14 -14 -21t-19 -13t-31 -6h-41v-36l-83 99l83 98v-35h105q20 0 37.5 9t25.5 19z" />
    <glyph glyph-name="mediumwhitecircle" unicode="&#x26aa;" horiz-adv-x="698" 
d="M349 -10q-108 0 -183.5 75.5t-75.5 184.5t75.5 184.5t183.5 75.5t183.5 -75.5t75.5 -184.5t-75.5 -184.5t-183.5 -75.5zM349 90q64 0 109 47t45 113t-45 113t-109 47q-65 0 -109 -46.5t-44 -113.5t44 -113.5t109 -46.5z" />
    <glyph glyph-name="mediumblackcircle" unicode="&#x26ab;" horiz-adv-x="698" 
d="M349 -10q-108 0 -183.5 76t-75.5 184t75.5 184t183.5 76t183.5 -76t75.5 -184t-75.5 -184t-183.5 -76z" />
    <glyph glyph-name="anglebracketleft" unicode="&#x3008;" horiz-adv-x="365" 
d="M125 -230l-85 494l250 466h121l-258 -481l84 -479h-112z" />
    <glyph glyph-name="anglebracketright" unicode="&#x3009;" horiz-adv-x="365" 
d="M-49 -230l258 481l-84 479h112l85 -494l-249 -466h-122z" />
    <glyph glyph-name="cordinal" unicode="&#xe181;" horiz-adv-x="362" 
d="M227 435q-64 0 -103.5 46.5t-31.5 111.5q7 61 53 102t109 41q45 0 79.5 -22.5t49.5 -61.5l-73 -33q-17 43 -63 43q-29 0 -51.5 -21t-26.5 -51q-5 -32 13 -55.5t51 -23.5q46 0 69 42l70 -34q-20 -39 -58 -61.5t-87 -22.5z" />
    <glyph glyph-name="p.smcp" unicode="&#xe200;" horiz-adv-x="501" 
d="M9 0l104 596h182q90 0 150 -64.5t42 -164.5q-15 -88 -79.5 -142.5t-164.5 -54.5h-98l-29 -170h-107zM279 498h-76l-40 -228h86q54 0 89 31t44 80t-20.5 83t-82.5 34z" />
    <glyph glyph-name="p.smcp" unicode="&#xf770;" horiz-adv-x="501" 
d="M9 0l104 596h182q90 0 150 -64.5t42 -164.5q-15 -88 -79.5 -142.5t-164.5 -54.5h-98l-29 -170h-107zM279 498h-76l-40 -228h86q54 0 89 31t44 80t-20.5 83t-82.5 34z" />
    <glyph glyph-name="a.smcp" unicode="&#xe201;" horiz-adv-x="577" 
d="M-24 0l325 596h107l103 -596h-108l-19 114h-233l-61 -114h-114zM330 449l-126 -235h164z" />
    <glyph glyph-name="a.smcp" unicode="&#xf761;" horiz-adv-x="577" 
d="M-24 0l325 596h107l103 -596h-108l-19 114h-233l-61 -114h-114zM330 449l-126 -235h164z" />
    <glyph glyph-name="b.smcp" unicode="&#xe202;" horiz-adv-x="519" 
d="M9 0l104 596h207q86 0 136 -52t36 -128q-12 -78 -83 -118q76 -48 59 -145q-14 -72 -72.5 -112.5t-152.5 -40.5h-234zM269 255h-108l-28 -157h116q97 0 111 74q6 38 -17.5 60.5t-73.5 22.5zM306 500h-102l-26 -149h110q44 0 69 20.5t30 50.5q5 35 -16 56.5t-65 21.5z" />
    <glyph glyph-name="b.smcp" unicode="&#xf762;" horiz-adv-x="519" 
d="M9 0l104 596h207q86 0 136 -52t36 -128q-12 -78 -83 -118q76 -48 59 -145q-14 -72 -72.5 -112.5t-152.5 -40.5h-234zM269 255h-108l-28 -157h116q97 0 111 74q6 38 -17.5 60.5t-73.5 22.5zM306 500h-102l-26 -149h110q44 0 69 20.5t30 50.5q5 35 -16 56.5t-65 21.5z" />
    <glyph glyph-name="c.smcp" unicode="&#xe203;" horiz-adv-x="641" 
d="M318 -8q-141 0 -220 99t-55 236q20 118 114 198t220 80q89 0 161 -47t101 -123l-105 -48q-19 53 -62 84t-108 31q-77 0 -138 -53.5t-75 -132.5q-15 -88 34.5 -153.5t141.5 -65.5q59 0 107 31t75 86l100 -47q-92 -175 -291 -175z" />
    <glyph glyph-name="c.smcp" unicode="&#xf763;" horiz-adv-x="641" 
d="M318 -8q-141 0 -220 99t-55 236q20 118 114 198t220 80q89 0 161 -47t101 -123l-105 -48q-19 53 -62 84t-108 31q-77 0 -138 -53.5t-75 -132.5q-15 -88 34.5 -153.5t141.5 -65.5q59 0 107 31t75 86l100 -47q-92 -175 -291 -175z" />
    <glyph glyph-name="d.smcp" unicode="&#xe204;" horiz-adv-x="580" 
d="M9 0l104 596h176q131 0 208 -93t55 -221q-22 -120 -111 -201t-216 -81h-216zM276 497h-73l-70 -397h100q77 0 136.5 54.5t74.5 134.5q15 87 -32.5 147.5t-135.5 60.5z" />
    <glyph glyph-name="d.smcp" unicode="&#xf764;" horiz-adv-x="580" 
d="M9 0l104 596h176q131 0 208 -93t55 -221q-22 -120 -111 -201t-216 -81h-216zM276 497h-73l-70 -397h100q77 0 136.5 54.5t74.5 134.5q15 87 -32.5 147.5t-135.5 60.5z" />
    <glyph glyph-name="e.smcp" unicode="&#xe205;" horiz-adv-x="453" 
d="M9 0l104 596h357l-18 -100h-249l-26 -147h250l-18 -101h-250l-26 -147h250l-18 -101h-356z" />
    <glyph glyph-name="e.smcp" unicode="&#xf765;" horiz-adv-x="453" 
d="M9 0l104 596h357l-18 -100h-249l-26 -147h250l-18 -101h-250l-26 -147h250l-18 -101h-356z" />
    <glyph glyph-name="f.smcp" unicode="&#xe206;" horiz-adv-x="431" 
d="M9 0l104 596h338l-17 -101h-231l-26 -145h231l-18 -101h-230l-44 -249h-107z" />
    <glyph glyph-name="f.smcp" unicode="&#xf766;" horiz-adv-x="431" 
d="M9 0l104 596h338l-17 -101h-231l-26 -145h231l-18 -101h-230l-44 -249h-107z" />
    <glyph glyph-name="g.smcp" unicode="&#xe207;" horiz-adv-x="680" 
d="M326 -9q-139 0 -220.5 100.5t-57.5 237.5q20 117 111.5 196.5t215.5 79.5q89 0 156.5 -42t102.5 -111l-104 -52q-46 103 -163 103q-82 0 -140.5 -53t-72.5 -132q-16 -91 36 -158t146 -67q67 0 116.5 37t72.5 99h-204l19 101h318l-9 -55q-23 -128 -110.5 -206t-212.5 -78z
" />
    <glyph glyph-name="g.smcp" unicode="&#xf767;" horiz-adv-x="680" 
d="M326 -9q-139 0 -220.5 100.5t-57.5 237.5q20 117 111.5 196.5t215.5 79.5q89 0 156.5 -42t102.5 -111l-104 -52q-46 103 -163 103q-82 0 -140.5 -53t-72.5 -132q-16 -91 36 -158t146 -67q67 0 116.5 37t72.5 99h-204l19 101h318l-9 -55q-23 -128 -110.5 -206t-212.5 -78z
" />
    <glyph glyph-name="h.smcp" unicode="&#xe208;" horiz-adv-x="539" 
d="M9 0l104 596h108l-43 -244h219l43 244h107l-105 -596h-107l43 246h-219l-43 -246h-107z" />
    <glyph glyph-name="h.smcp" unicode="&#xf768;" horiz-adv-x="539" 
d="M9 0l104 596h108l-43 -244h219l43 244h107l-105 -596h-107l43 246h-219l-43 -246h-107z" />
    <glyph glyph-name="i.smcp" unicode="&#xe209;" horiz-adv-x="222" 
d="M14 0l104 596h107l-104 -596h-107z" />
    <glyph glyph-name="i.smcp" unicode="&#xf769;" horiz-adv-x="222" 
d="M14 0l104 596h107l-104 -596h-107z" />
    <glyph glyph-name="j.smcp" unicode="&#xe20a;" horiz-adv-x="421" 
d="M167 -9q-70 0 -114.5 36.5t-59.5 100.5l105 32q16 -69 71 -69q32 0 53 22.5t28 57.5l74 425h108l-77 -433q-15 -82 -62.5 -127t-125.5 -45z" />
    <glyph glyph-name="j.smcp" unicode="&#xf76a;" horiz-adv-x="421" 
d="M167 -9q-70 0 -114.5 36.5t-59.5 100.5l105 32q16 -69 71 -69q32 0 53 22.5t28 57.5l74 425h108l-77 -433q-15 -82 -62.5 -127t-125.5 -45z" />
    <glyph glyph-name="k.smcp" unicode="&#xe20b;" horiz-adv-x="538" 
d="M360 0l-119 290l-89 -86l-36 -204h-107l104 596h108l-44 -246l257 246h137l-246 -235l149 -361h-114z" />
    <glyph glyph-name="k.smcp" unicode="&#xf76b;" horiz-adv-x="538" 
d="M360 0l-119 290l-89 -86l-36 -204h-107l104 596h108l-44 -246l257 246h137l-246 -235l149 -361h-114z" />
    <glyph glyph-name="l.smcp" unicode="&#xe20c;" horiz-adv-x="419" 
d="M9 0l104 596h108l-87 -493h222l-18 -103h-329z" />
    <glyph glyph-name="l.smcp" unicode="&#xf76c;" horiz-adv-x="419" 
d="M9 0l104 596h108l-87 -493h222l-18 -103h-329z" />
    <glyph glyph-name="m.smcp" unicode="&#xe20d;" horiz-adv-x="691" 
d="M9 0l104 596h94l151 -254l244 254h97l-105 -596h-107l73 416l-225 -234l-145 244l-74 -426h-107z" />
    <glyph glyph-name="m.smcp" unicode="&#xf76d;" horiz-adv-x="691" 
d="M9 0l104 596h94l151 -254l244 254h97l-105 -596h-107l73 416l-225 -234l-145 244l-74 -426h-107z" />
    <glyph glyph-name="n.smcp" unicode="&#xe20e;" horiz-adv-x="586" 
d="M9 0l105 596h113l187 -409l72 409h108l-105 -596h-105l-194 423l-74 -423h-107z" />
    <glyph glyph-name="n.smcp" unicode="&#xf76e;" horiz-adv-x="586" 
d="M9 0l105 596h113l187 -409l72 409h108l-105 -596h-105l-194 423l-74 -423h-107z" />
    <glyph glyph-name="o.smcp" unicode="&#xe20f;" horiz-adv-x="683" 
d="M326 -9q-138 0 -219.5 100.5t-58.5 237.5q20 119 112.5 197.5t212.5 78.5q92 0 162 -48t101 -126t16 -165q-20 -119 -111.5 -197t-214.5 -78zM335 95q79 0 137.5 52t72.5 131q16 88 -35.5 155.5t-144.5 67.5q-79 0 -138 -51.5t-73 -130.5q-15 -91 37 -157.5t144 -66.5z
" />
    <glyph glyph-name="o.smcp" unicode="&#xf76f;" horiz-adv-x="683" 
d="M326 -9q-138 0 -219.5 100.5t-58.5 237.5q20 119 112.5 197.5t212.5 78.5q92 0 162 -48t101 -126t16 -165q-20 -119 -111.5 -197t-214.5 -78zM335 95q79 0 137.5 52t72.5 131q16 88 -35.5 155.5t-144.5 67.5q-79 0 -138 -51.5t-73 -130.5q-15 -91 37 -157.5t144 -66.5z
" />
    <glyph glyph-name="q.smcp" unicode="&#xe211;" horiz-adv-x="695" 
d="M324 -9q-138 0 -218.5 100.5t-57.5 237.5q20 118 113.5 197t213.5 79q91 0 161 -47.5t101 -125t16 -163.5q-17 -91 -75 -158q21 -8 45 -8h15l-18 -103h-15q-50 0 -87.5 20t-59.5 48.5t-41 57.5t-42.5 49t-52.5 20h-17l19 103h16q13 0 25.5 -2t22.5 -4.5t20.5 -8.5
t17 -9.5t16 -13l13.5 -13.5t13 -16t11.5 -15t11.5 -17t11 -16q33 42 43 95q16 88 -35 156.5t-143 68.5q-80 0 -139.5 -52.5t-73.5 -132.5q-16 -91 35.5 -157.5t143.5 -66.5q39 0 65 11q42 -59 70 -81q-64 -33 -144 -33z" />
    <glyph glyph-name="q.smcp" unicode="&#xf771;" horiz-adv-x="695" 
d="M324 -9q-138 0 -218.5 100.5t-57.5 237.5q20 118 113.5 197t213.5 79q91 0 161 -47.5t101 -125t16 -163.5q-17 -91 -75 -158q21 -8 45 -8h15l-18 -103h-15q-50 0 -87.5 20t-59.5 48.5t-41 57.5t-42.5 49t-52.5 20h-17l19 103h16q13 0 25.5 -2t22.5 -4.5t20.5 -8.5
t17 -9.5t16 -13l13.5 -13.5t13 -16t11.5 -15t11.5 -17t11 -16q33 42 43 95q16 88 -35 156.5t-143 68.5q-80 0 -139.5 -52.5t-73.5 -132.5q-16 -91 35.5 -157.5t143.5 -66.5q39 0 65 11q42 -59 70 -81q-64 -33 -144 -33z" />
    <glyph glyph-name="r.smcp" unicode="&#xe212;" horiz-adv-x="508" 
d="M9 0l104 596h181q102 0 158.5 -62t40.5 -154q-11 -62 -56.5 -107t-123.5 -57q13 -55 46.5 -85t80.5 -30h11l-18 -101h-12q-77 0 -130 44.5t-74.5 111.5t-17.5 147h50q117 0 135 93q8 45 -21 73.5t-86 29.5h-74l-87 -499h-107z" />
    <glyph glyph-name="r.smcp" unicode="&#xf772;" horiz-adv-x="508" 
d="M9 0l104 596h181q102 0 158.5 -62t40.5 -154q-11 -62 -56.5 -107t-123.5 -57q13 -55 46.5 -85t80.5 -30h11l-18 -101h-12q-77 0 -130 44.5t-74.5 111.5t-17.5 147h50q117 0 135 93q8 45 -21 73.5t-86 29.5h-74l-87 -499h-107z" />
    <glyph glyph-name="s.smcp" unicode="&#xe213;" horiz-adv-x="461" 
d="M200 -9q-144 0 -214 115l97 65q18 -37 50 -58.5t72 -21.5t66 20t31 51q4 20 -2 35.5t-25.5 29.5t-33.5 21.5t-45 21.5q-33 15 -54 27.5t-44 34.5t-31 53t-1 71q12 69 67.5 109.5t137.5 40.5q63 0 113.5 -28t78.5 -70l-91 -62q-34 63 -109 63q-37 0 -60.5 -17t-28.5 -45
q-4 -23 11 -42t30 -27.5t52 -25.5q7 -3 10 -5q34 -16 55.5 -29.5t45.5 -36.5t32 -55.5t1 -74.5q-13 -69 -68.5 -114.5t-142.5 -45.5z" />
    <glyph glyph-name="s.smcp" unicode="&#xf773;" horiz-adv-x="461" 
d="M200 -9q-144 0 -214 115l97 65q18 -37 50 -58.5t72 -21.5t66 20t31 51q4 20 -2 35.5t-25.5 29.5t-33.5 21.5t-45 21.5q-33 15 -54 27.5t-44 34.5t-31 53t-1 71q12 69 67.5 109.5t137.5 40.5q63 0 113.5 -28t78.5 -70l-91 -62q-34 63 -109 63q-37 0 -60.5 -17t-28.5 -45
q-4 -23 11 -42t30 -27.5t52 -25.5q7 -3 10 -5q34 -16 55.5 -29.5t45.5 -36.5t32 -55.5t1 -74.5q-13 -69 -68.5 -114.5t-142.5 -45.5z" />
    <glyph glyph-name="t.smcp" unicode="&#xe214;" horiz-adv-x="471" 
d="M80 495l17 101h399l-18 -101h-144l-87 -495h-108l87 495h-146z" />
    <glyph glyph-name="t.smcp" unicode="&#xf774;" horiz-adv-x="471" 
d="M80 495l17 101h399l-18 -101h-144l-87 -495h-108l87 495h-146z" />
    <glyph glyph-name="u.smcp" unicode="&#xe215;" horiz-adv-x="519" 
d="M224 -9q-95 0 -147 55.5t-35 154.5l69 395h107l-70 -401q-8 -46 16 -75.5t73 -29.5q43 0 74 27t39 71l72 408h108l-71 -402q-17 -100 -78.5 -151.5t-156.5 -51.5z" />
    <glyph glyph-name="u.smcp" unicode="&#xf775;" horiz-adv-x="519" 
d="M224 -9q-95 0 -147 55.5t-35 154.5l69 395h107l-70 -401q-8 -46 16 -75.5t73 -29.5q43 0 74 27t39 71l72 408h108l-71 -402q-17 -100 -78.5 -151.5t-156.5 -51.5z" />
    <glyph glyph-name="v.smcp" unicode="&#xe216;" horiz-adv-x="543" 
d="M172 0l-89 596h108l60 -428l215 428h115l-304 -596h-105z" />
    <glyph glyph-name="v.smcp" unicode="&#xf776;" horiz-adv-x="543" 
d="M172 0l-89 596h108l60 -428l215 428h115l-304 -596h-105z" />
    <glyph glyph-name="w.smcp" unicode="&#xe217;" horiz-adv-x="859" 
d="M149 0l-64 596h109l41 -421l200 421h107l54 -421l187 421h114l-275 -596h-107l-54 428l-203 -428h-109z" />
    <glyph glyph-name="w.smcp" unicode="&#xf777;" horiz-adv-x="859" 
d="M149 0l-64 596h109l41 -421l200 421h107l54 -421l187 421h114l-275 -596h-107l-54 428l-203 -428h-109z" />
    <glyph glyph-name="x.smcp" unicode="&#xe218;" horiz-adv-x="533" 
d="M361 0l-99 215l-168 -215h-124l246 311l-131 285h112l92 -200l158 200h124l-235 -294l137 -302h-112z" />
    <glyph glyph-name="x.smcp" unicode="&#xf778;" horiz-adv-x="533" 
d="M361 0l-99 215l-168 -215h-124l246 311l-131 285h112l92 -200l158 200h124l-235 -294l137 -302h-112z" />
    <glyph glyph-name="y.smcp" unicode="&#xe219;" horiz-adv-x="532" 
d="M162 0l50 289l-130 307h111l89 -215l167 215h122l-251 -316l-50 -280h-108z" />
    <glyph glyph-name="y.smcp" unicode="&#xf779;" horiz-adv-x="532" 
d="M162 0l50 289l-130 307h111l89 -215l167 215h122l-251 -316l-50 -280h-108z" />
    <glyph glyph-name="z.smcp" unicode="&#xe21a;" horiz-adv-x="473" 
d="M-8 0l18 98l332 398h-253l16 100h385l-17 -97l-332 -399h263l-17 -100h-395z" />
    <glyph glyph-name="z.smcp" unicode="&#xf77a;" horiz-adv-x="473" 
d="M-8 0l18 98l332 398h-253l16 100h385l-17 -97l-332 -399h263l-17 -100h-395z" />
    <glyph glyph-name="anocross.smcp" unicode="&#xe220;" horiz-adv-x="577" 
d="M-24 0l325 596h107l103 -596h-108l-73 449l-240 -449h-114z" />
    <glyph glyph-name="aacute.smcp" unicode="&#xe221;" horiz-adv-x="577" 
d="M-24 0l325 596h107l103 -596h-108l-19 114h-233l-61 -114h-114zM330 449l-126 -235h164zM320 650l144 166h114l-176 -166h-82z" />
    <glyph glyph-name="aacute.smcp" unicode="&#xf7e1;" horiz-adv-x="577" 
d="M-24 0l325 596h107l103 -596h-108l-19 114h-233l-61 -114h-114zM330 449l-126 -235h164zM320 650l144 166h114l-176 -166h-82z" />
    <glyph glyph-name="agrave.smcp" unicode="&#xe222;" horiz-adv-x="577" 
d="M-24 0l325 596h107l103 -596h-108l-19 114h-233l-61 -114h-114zM330 449l-126 -235h164zM320 650l-118 166h113l86 -166h-81z" />
    <glyph glyph-name="agrave.smcp" unicode="&#xf7e0;" horiz-adv-x="577" 
d="M-24 0l325 596h107l103 -596h-108l-19 114h-233l-61 -114h-114zM330 449l-126 -235h164zM320 650l-118 166h113l86 -166h-81z" />
    <glyph glyph-name="acircumflex.smcp" unicode="&#xe223;" horiz-adv-x="577" 
d="M-24 0l325 596h107l103 -596h-108l-19 114h-233l-61 -114h-114zM203 649l148 166h76l90 -166h-92l-48 94l-82 -94h-92zM330 449l-126 -235h164z" />
    <glyph glyph-name="acircumflex.smcp" unicode="&#xf7e2;" horiz-adv-x="577" 
d="M-24 0l325 596h107l103 -596h-108l-19 114h-233l-61 -114h-114zM203 649l148 166h76l90 -166h-92l-48 94l-82 -94h-92zM330 449l-126 -235h164z" />
    <glyph glyph-name="adieresis.smcp" unicode="&#xe224;" horiz-adv-x="577" 
d="M-24 0l325 596h107l103 -596h-108l-19 114h-233l-61 -114h-114zM330 449l-126 -235h164zM390 654l25 138h107l-24 -138h-108zM230 654l25 138h107l-25 -138h-107z" />
    <glyph glyph-name="adieresis.smcp" unicode="&#xf7e4;" horiz-adv-x="577" 
d="M-24 0l325 596h107l103 -596h-108l-19 114h-233l-61 -114h-114zM330 449l-126 -235h164zM390 654l25 138h107l-24 -138h-108zM230 654l25 138h107l-25 -138h-107z" />
    <glyph glyph-name="atilde.smcp" unicode="&#xe225;" horiz-adv-x="577" 
d="M-24 0l325 596h107l103 -596h-108l-19 114h-233l-61 -114h-114zM192 650q11 58 43.5 93t79.5 35q38 0 75 -25q38 -26 55 -26q31 0 40 47h71q-12 -60 -43.5 -94t-80.5 -34q-37 0 -85 32q-29 19 -46 19q-30 0 -39 -47h-70zM330 449l-126 -235h164z" />
    <glyph glyph-name="atilde.smcp" unicode="&#xf7e3;" horiz-adv-x="577" 
d="M-24 0l325 596h107l103 -596h-108l-19 114h-233l-61 -114h-114zM192 650q11 58 43.5 93t79.5 35q38 0 75 -25q38 -26 55 -26q31 0 40 47h71q-12 -60 -43.5 -94t-80.5 -34q-37 0 -85 32q-29 19 -46 19q-30 0 -39 -47h-70zM330 449l-126 -235h164z" />
    <glyph glyph-name="aring.smcp" unicode="&#xe226;" horiz-adv-x="577" 
d="M-24 0l308 565q-45 42 -28 106q11 41 44.5 67t74.5 26q52 0 82 -40t16 -91q-15 -51 -58 -78l96 -555h-108l-19 114h-233l-61 -114h-114zM330 449l-126 -235h164zM359 607q17 0 31 11t18 27q5 21 -6.5 36.5t-32.5 15.5q-17 0 -30 -11t-17 -27q-6 -21 5 -36.5t32 -15.5z
" />
    <glyph glyph-name="aring.smcp" unicode="&#xf7e5;" horiz-adv-x="577" 
d="M-24 0l308 565q-45 42 -28 106q11 41 44.5 67t74.5 26q52 0 82 -40t16 -91q-15 -51 -58 -78l96 -555h-108l-19 114h-233l-61 -114h-114zM330 449l-126 -235h164zM359 607q17 0 31 11t18 27q5 21 -6.5 36.5t-32.5 15.5q-17 0 -30 -11t-17 -27q-6 -21 5 -36.5t32 -15.5z
" />
    <glyph glyph-name="amacron.smcp" unicode="&#xe228;" horiz-adv-x="577" 
d="M-24 0l325 596h107l103 -596h-108l-19 114h-233l-61 -114h-114zM229 650l15 77h264l-15 -77h-264zM330 449l-126 -235h164z" />
    <glyph glyph-name="amacron.smcp" unicode="&#xf641;" horiz-adv-x="577" 
d="M-24 0l325 596h107l103 -596h-108l-19 114h-233l-61 -114h-114zM229 650l15 77h264l-15 -77h-264zM330 449l-126 -235h164z" />
    <glyph glyph-name="abreve.smcp" unicode="&#xe229;" horiz-adv-x="577" 
d="M-24 0l325 596h107l103 -596h-108l-19 114h-233l-61 -114h-114zM363 643q-78 0 -111.5 46.5t-20.5 119.5h76q-9 -47 9 -73t59 -27q83 2 102 100h77q-13 -72 -65 -119t-126 -47zM330 449l-126 -235h164z" />
    <glyph glyph-name="abreve.smcp" unicode="&#xf640;" horiz-adv-x="577" 
d="M-24 0l325 596h107l103 -596h-108l-19 114h-233l-61 -114h-114zM363 643q-78 0 -111.5 46.5t-20.5 119.5h76q-9 -47 9 -73t59 -27q83 2 102 100h77q-13 -72 -65 -119t-126 -47zM330 449l-126 -235h164z" />
    <glyph glyph-name="aringacute.smcp" unicode="&#xe22d;" horiz-adv-x="577" 
d="M-24 0l310 568q-22 18 -31 47t0 61q11 41 44.5 67t74.5 26q52 0 82 -40t16 -91q-15 -51 -58 -78l97 -560h-108l-19 114h-233l-61 -114h-114zM330 448l-126 -234h164zM344 806l144 166h114l-176 -166h-82zM358 612q17 0 31 11t18 27q5 21 -6.5 36.5t-32.5 15.5
q-17 0 -30 -11t-17 -27q-6 -21 5 -36.5t32 -15.5z" />
    <glyph glyph-name="aringacute.smcp" unicode="&#xf625;" horiz-adv-x="577" 
d="M-24 0l310 568q-22 18 -31 47t0 61q11 41 44.5 67t74.5 26q52 0 82 -40t16 -91q-15 -51 -58 -78l97 -560h-108l-19 114h-233l-61 -114h-114zM330 448l-126 -234h164zM344 806l144 166h114l-176 -166h-82zM358 612q17 0 31 11t18 27q5 21 -6.5 36.5t-32.5 15.5
q-17 0 -30 -11t-17 -27q-6 -21 5 -36.5t32 -15.5z" />
    <glyph glyph-name="aogonek.smcp" unicode="&#xe22f;" horiz-adv-x="577" 
d="M-24 0l325 596h107l103 -596q-90 -52 -116.5 -72t-29.5 -40q-4 -18 8.5 -27.5t33.5 -9.5q30 0 73 31l63 -48q-75 -57 -148 -57q-61 0 -94.5 31.5t-25.5 76.5q6 36 34.5 66.5t90.5 63.5l-16 99h-233l-61 -114h-114zM330 449l-126 -235h164z" />
    <glyph glyph-name="aogonek.smcp" unicode="&#xf642;" horiz-adv-x="577" 
d="M-24 0l325 596h107l103 -596q-90 -52 -116.5 -72t-29.5 -40q-4 -18 8.5 -27.5t33.5 -9.5q30 0 73 31l63 -48q-75 -57 -148 -57q-61 0 -94.5 31.5t-25.5 76.5q6 36 34.5 66.5t90.5 63.5l-16 99h-233l-61 -114h-114zM330 449l-126 -235h164z" />
    <glyph glyph-name="edieresis.smcp" unicode="&#xe230;" horiz-adv-x="453" 
d="M9 0l104 596h357l-18 -100h-249l-26 -147h250l-18 -101h-250l-26 -147h250l-18 -101h-356zM328 654l25 138h107l-24 -138h-108zM168 654l25 138h107l-25 -138h-107z" />
    <glyph glyph-name="edieresis.smcp" unicode="&#xf7eb;" horiz-adv-x="453" 
d="M9 0l104 596h357l-18 -100h-249l-26 -147h250l-18 -101h-250l-26 -147h250l-18 -101h-356zM328 654l25 138h107l-24 -138h-108zM168 654l25 138h107l-25 -138h-107z" />
    <glyph glyph-name="ae.smcp" unicode="&#xe231;" horiz-adv-x="801" 
d="M-24 0l399 596h438l-18 -101h-306l-2 -145h283l-18 -101h-266l-2 -147h242l-17 -102h-332l1 110h-207l-73 -110h-122zM236 208h144l3 220z" />
    <glyph glyph-name="ae.smcp" unicode="&#xf7e6;" horiz-adv-x="801" 
d="M-24 0l399 596h438l-18 -101h-306l-2 -145h283l-18 -101h-266l-2 -147h242l-17 -102h-332l1 110h-207l-73 -110h-122zM236 208h144l3 220z" />
    <glyph glyph-name="aeacute.smcp" unicode="&#xe232;" horiz-adv-x="801" 
d="M-24 0l399 596h438l-18 -101h-306l-2 -145h283l-18 -101h-266l-2 -147h242l-17 -102h-332l1 110h-207l-73 -110h-122zM500 650l144 166h114l-176 -166h-82zM236 208h144l3 220z" />
    <glyph glyph-name="aeacute.smcp" unicode="&#xf624;" horiz-adv-x="801" 
d="M-24 0l399 596h438l-18 -101h-306l-2 -145h283l-18 -101h-266l-2 -147h242l-17 -102h-332l1 110h-207l-73 -110h-122zM500 650l144 166h114l-176 -166h-82zM236 208h144l3 220z" />
    <glyph glyph-name="cacute.smcp" unicode="&#xe234;" horiz-adv-x="641" 
d="M352 650l144 166h114l-176 -166h-82zM318 -8q-141 0 -220 99t-55 236q20 118 114 198t220 80q89 0 161 -47t101 -123l-105 -48q-19 53 -62 84t-108 31q-77 0 -138 -53.5t-75 -132.5q-15 -88 34.5 -153.5t141.5 -65.5q59 0 107 31t75 86l100 -47q-92 -175 -291 -175z" />
    <glyph glyph-name="cacute.smcp" unicode="&#xf643;" horiz-adv-x="641" 
d="M352 650l144 166h114l-176 -166h-82zM318 -8q-141 0 -220 99t-55 236q20 118 114 198t220 80q89 0 161 -47t101 -123l-105 -48q-19 53 -62 84t-108 31q-77 0 -138 -53.5t-75 -132.5q-15 -88 34.5 -153.5t141.5 -65.5q59 0 107 31t75 86l100 -47q-92 -175 -291 -175z" />
    <glyph glyph-name="ccircumflex.smcp" unicode="&#xe235;" horiz-adv-x="641" 
d="M318 -8q-141 0 -220 99t-55 236q20 118 114 198t220 80q89 0 161 -47t101 -123l-105 -48q-19 53 -62 84t-108 31q-77 0 -138 -53.5t-75 -132.5q-15 -88 34.5 -153.5t141.5 -65.5q59 0 107 31t75 86l100 -47q-92 -175 -291 -175zM234 648l148 166h76l90 -166h-92l-48 94
l-82 -94h-92z" />
    <glyph glyph-name="ccircumflex.smcp" unicode="&#xf628;" horiz-adv-x="641" 
d="M318 -8q-141 0 -220 99t-55 236q20 118 114 198t220 80q89 0 161 -47t101 -123l-105 -48q-19 53 -62 84t-108 31q-77 0 -138 -53.5t-75 -132.5q-15 -88 34.5 -153.5t141.5 -65.5q59 0 107 31t75 86l100 -47q-92 -175 -291 -175zM234 648l148 166h76l90 -166h-92l-48 94
l-82 -94h-92z" />
    <glyph glyph-name="ccaron.smcp" unicode="&#xe236;" horiz-adv-x="641" 
d="M318 -8q-141 0 -220 99t-55 236q20 118 114 198t220 80q89 0 161 -47t101 -123l-105 -48q-19 53 -62 84t-108 31q-77 0 -138 -53.5t-75 -132.5q-15 -88 34.5 -153.5t141.5 -65.5q59 0 107 31t75 86l100 -47q-92 -175 -291 -175zM349 650l-90 166h92l48 -94l82 94h92
l-149 -166h-75z" />
    <glyph glyph-name="ccaron.smcp" unicode="&#xf644;" horiz-adv-x="641" 
d="M318 -8q-141 0 -220 99t-55 236q20 118 114 198t220 80q89 0 161 -47t101 -123l-105 -48q-19 53 -62 84t-108 31q-77 0 -138 -53.5t-75 -132.5q-15 -88 34.5 -153.5t141.5 -65.5q59 0 107 31t75 86l100 -47q-92 -175 -291 -175zM349 650l-90 166h92l48 -94l82 94h92
l-149 -166h-75z" />
    <glyph glyph-name="cdotaccent.smcp" unicode="&#xe237;" horiz-adv-x="641" 
d="M318 -8q-141 0 -220 99t-55 236q20 118 114 198t220 80q89 0 161 -47t101 -123l-105 -48q-19 53 -62 84t-108 31q-77 0 -138 -53.5t-75 -132.5q-15 -88 34.5 -153.5t141.5 -65.5q59 0 107 31t75 86l100 -47q-92 -175 -291 -175zM337 654l24 138h107l-24 -138h-107z" />
    <glyph glyph-name="cdotaccent.smcp" unicode="&#xf629;" horiz-adv-x="641" 
d="M318 -8q-141 0 -220 99t-55 236q20 118 114 198t220 80q89 0 161 -47t101 -123l-105 -48q-19 53 -62 84t-108 31q-77 0 -138 -53.5t-75 -132.5q-15 -88 34.5 -153.5t141.5 -65.5q59 0 107 31t75 86l100 -47q-92 -175 -291 -175zM337 654l24 138h107l-24 -138h-107z" />
    <glyph glyph-name="ccedilla.smcp" unicode="&#xe238;" horiz-adv-x="641" 
d="M274 -237q-99 0 -152 58l75 43q37 -35 81 -35q56 0 62 33q4 16 -11 24.5t-47 8.5h-47l18 104q-113 22 -172 115.5t-38 212.5q20 118 114 198t220 80q89 0 161 -47t101 -123l-105 -48q-19 53 -62 84t-108 31q-77 0 -138 -53.5t-75 -132.5q-15 -88 34.5 -153.5t141.5 -65.5
q59 0 107 31t75 86l100 -47q-90 -171 -282 -175l-7 -41q55 -4 80 -31.5t19 -67.5q-7 -42 -47 -65.5t-98 -23.5z" />
    <glyph glyph-name="ccedilla.smcp" unicode="&#xf7e7;" horiz-adv-x="641" 
d="M274 -237q-99 0 -152 58l75 43q37 -35 81 -35q56 0 62 33q4 16 -11 24.5t-47 8.5h-47l18 104q-113 22 -172 115.5t-38 212.5q20 118 114 198t220 80q89 0 161 -47t101 -123l-105 -48q-19 53 -62 84t-108 31q-77 0 -138 -53.5t-75 -132.5q-15 -88 34.5 -153.5t141.5 -65.5
q59 0 107 31t75 86l100 -47q-90 -171 -282 -175l-7 -41q55 -4 80 -31.5t19 -67.5q-7 -42 -47 -65.5t-98 -23.5z" />
    <glyph glyph-name="dcaron.smcp" unicode="&#xe239;" horiz-adv-x="580" 
d="M9 0l104 596h176q131 0 208 -93t55 -221q-22 -120 -111 -201t-216 -81h-216zM276 497h-73l-70 -397h100q77 0 136.5 54.5t74.5 134.5q15 87 -32.5 147.5t-135.5 60.5zM270 653l-90 166h92l48 -94l82 94h92l-149 -166h-75z" />
    <glyph glyph-name="dcaron.smcp" unicode="&#xf645;" horiz-adv-x="580" 
d="M9 0l104 596h176q131 0 208 -93t55 -221q-22 -120 -111 -201t-216 -81h-216zM276 497h-73l-70 -397h100q77 0 136.5 54.5t74.5 134.5q15 87 -32.5 147.5t-135.5 60.5zM270 653l-90 166h92l48 -94l82 94h92l-149 -166h-75z" />
    <glyph glyph-name="dcroat.smcp" unicode="&#xe23c;" horiz-adv-x="589" 
d="M9 255l15 86h53l45 255h176q131 0 208 -93t55 -221q-22 -120 -111 -201t-216 -81h-216l44 255h-53zM306 255h-137l-27 -155h100q77 0 136.5 54.5t74.5 134.5q15 87 -32.5 147.5t-135.5 60.5h-73l-28 -156h137z" />
    <glyph glyph-name="dcroat.smcp" unicode="&#xf646;" horiz-adv-x="589" 
d="M9 255l15 86h53l45 255h176q131 0 208 -93t55 -221q-22 -120 -111 -201t-216 -81h-216l44 255h-53zM306 255h-137l-27 -155h100q77 0 136.5 54.5t74.5 134.5q15 87 -32.5 147.5t-135.5 60.5h-73l-28 -156h137z" />
    <glyph glyph-name="eacute.smcp" unicode="&#xe23d;" horiz-adv-x="453" 
d="M9 0l104 596h357l-18 -100h-249l-26 -147h250l-18 -101h-250l-26 -147h250l-18 -101h-356zM246 650l144 166h114l-176 -166h-82z" />
    <glyph glyph-name="eacute.smcp" unicode="&#xf7e9;" horiz-adv-x="453" 
d="M9 0l104 596h357l-18 -100h-249l-26 -147h250l-18 -101h-250l-26 -147h250l-18 -101h-356zM246 650l144 166h114l-176 -166h-82z" />
    <glyph glyph-name="egrave.smcp" unicode="&#xe23e;" horiz-adv-x="453" 
d="M9 0l104 596h357l-18 -100h-249l-26 -147h250l-18 -101h-250l-26 -147h250l-18 -101h-356zM272 650l-118 166h113l86 -166h-81z" />
    <glyph glyph-name="egrave.smcp" unicode="&#xf7e8;" horiz-adv-x="453" 
d="M9 0l104 596h357l-18 -100h-249l-26 -147h250l-18 -101h-250l-26 -147h250l-18 -101h-356zM272 650l-118 166h113l86 -166h-81z" />
    <glyph glyph-name="ecircumflex.smcp" unicode="&#xe23f;" horiz-adv-x="453" 
d="M9 0l104 596h357l-18 -100h-249l-26 -147h250l-18 -101h-250l-26 -147h250l-18 -101h-356zM140 650l148 166h76l90 -166h-92l-48 94l-82 -94h-92z" />
    <glyph glyph-name="ecircumflex.smcp" unicode="&#xf7ea;" horiz-adv-x="453" 
d="M9 0l104 596h357l-18 -100h-249l-26 -147h250l-18 -101h-250l-26 -147h250l-18 -101h-356zM140 650l148 166h76l90 -166h-92l-48 94l-82 -94h-92z" />
    <glyph glyph-name="gcommaaccent.smcp" unicode="&#xe240;" horiz-adv-x="680" 
d="M326 -9q-139 0 -220.5 100.5t-57.5 237.5q20 117 111.5 196.5t215.5 79.5q89 0 156.5 -42t102.5 -111l-104 -52q-46 103 -163 103q-82 0 -140.5 -53t-72.5 -132q-16 -91 36 -158t146 -67q67 0 116.5 37t72.5 99h-204l19 101h318l-9 -55q-23 -128 -110.5 -206t-212.5 -78z
M200 -253l74 204h95l-102 -204h-67z" />
    <glyph glyph-name="gcommaaccent.smcp" unicode="&#xf64c;" horiz-adv-x="680" 
d="M326 -9q-139 0 -220.5 100.5t-57.5 237.5q20 117 111.5 196.5t215.5 79.5q89 0 156.5 -42t102.5 -111l-104 -52q-46 103 -163 103q-82 0 -140.5 -53t-72.5 -132q-16 -91 36 -158t146 -67q67 0 116.5 37t72.5 99h-204l19 101h318l-9 -55q-23 -128 -110.5 -206t-212.5 -78z
M200 -253l74 204h95l-102 -204h-67z" />
    <glyph glyph-name="ecaron.smcp" unicode="&#xe241;" horiz-adv-x="453" 
d="M9 0l104 596h357l-18 -100h-249l-26 -147h250l-18 -101h-250l-26 -147h250l-18 -101h-356zM264 650l-90 166h92l48 -94l82 94h92l-149 -166h-75z" />
    <glyph glyph-name="ecaron.smcp" unicode="&#xf647;" horiz-adv-x="453" 
d="M9 0l104 596h357l-18 -100h-249l-26 -147h250l-18 -101h-250l-26 -147h250l-18 -101h-356zM264 650l-90 166h92l48 -94l82 94h92l-149 -166h-75z" />
    <glyph glyph-name="emacron.smcp" unicode="&#xe242;" horiz-adv-x="453" 
d="M9 0l104 596h357l-18 -100h-249l-26 -147h250l-18 -101h-250l-26 -147h250l-18 -101h-356zM169 650l15 77h264l-15 -77h-264z" />
    <glyph glyph-name="emacron.smcp" unicode="&#xf649;" horiz-adv-x="453" 
d="M9 0l104 596h357l-18 -100h-249l-26 -147h250l-18 -101h-250l-26 -147h250l-18 -101h-356zM169 650l15 77h264l-15 -77h-264z" />
    <glyph glyph-name="ebreve.smcp" unicode="&#xe243;" horiz-adv-x="453" 
d="M9 0l104 596h357l-18 -100h-249l-26 -147h250l-18 -101h-250l-26 -147h250l-18 -101h-356zM300 643q-78 0 -111.5 46.5t-20.5 119.5h76q-9 -47 9 -73t59 -27q83 2 102 100h77q-13 -72 -65 -119t-126 -47z" />
    <glyph glyph-name="ebreve.smcp" unicode="&#xf62a;" horiz-adv-x="453" 
d="M9 0l104 596h357l-18 -100h-249l-26 -147h250l-18 -101h-250l-26 -147h250l-18 -101h-356zM300 643q-78 0 -111.5 46.5t-20.5 119.5h76q-9 -47 9 -73t59 -27q83 2 102 100h77q-13 -72 -65 -119t-126 -47z" />
    <glyph glyph-name="edotaccent.smcp" unicode="&#xe246;" horiz-adv-x="453" 
d="M9 0l104 596h357l-18 -100h-249l-26 -147h250l-18 -101h-250l-26 -147h250l-18 -101h-356zM250 654l24 138h107l-24 -138h-107z" />
    <glyph glyph-name="edotaccent.smcp" unicode="&#xf648;" horiz-adv-x="453" 
d="M9 0l104 596h357l-18 -100h-249l-26 -147h250l-18 -101h-250l-26 -147h250l-18 -101h-356zM250 654l24 138h107l-24 -138h-107z" />
    <glyph glyph-name="eogonek.smcp" unicode="&#xe249;" horiz-adv-x="453" 
d="M9 0l104 596h357l-18 -100h-249l-26 -147h250l-18 -101h-250l-26 -147h250l-18 -101q-90 -52 -116.5 -72t-29.5 -40q-4 -18 8.5 -27.5t33.5 -9.5q30 0 73 31l63 -48q-75 -57 -148 -57q-61 0 -94.5 31.5t-25.5 76.5q11 63 97 115h-217z" />
    <glyph glyph-name="eogonek.smcp" unicode="&#xf64a;" horiz-adv-x="453" 
d="M9 0l104 596h357l-18 -100h-249l-26 -147h250l-18 -101h-250l-26 -147h250l-18 -101q-90 -52 -116.5 -72t-29.5 -40q-4 -18 8.5 -27.5t33.5 -9.5q30 0 73 31l63 -48q-75 -57 -148 -57q-61 0 -94.5 31.5t-25.5 76.5q11 63 97 115h-217z" />
    <glyph glyph-name="gcircumflex.smcp" unicode="&#xe24b;" horiz-adv-x="680" 
d="M326 -9q-139 0 -220.5 100.5t-57.5 237.5q20 117 111.5 196.5t215.5 79.5q89 0 156.5 -42t102.5 -111l-104 -52q-46 103 -163 103q-82 0 -140.5 -53t-72.5 -132q-16 -91 36 -158t146 -67q67 0 116.5 37t72.5 99h-204l19 101h318l-9 -55q-23 -128 -110.5 -206t-212.5 -78z
M225 650l148 166h76l90 -166h-92l-48 94l-82 -94h-92z" />
    <glyph glyph-name="gcircumflex.smcp" unicode="&#xf62c;" horiz-adv-x="680" 
d="M326 -9q-139 0 -220.5 100.5t-57.5 237.5q20 117 111.5 196.5t215.5 79.5q89 0 156.5 -42t102.5 -111l-104 -52q-46 103 -163 103q-82 0 -140.5 -53t-72.5 -132q-16 -91 36 -158t146 -67q67 0 116.5 37t72.5 99h-204l19 101h318l-9 -55q-23 -128 -110.5 -206t-212.5 -78z
M225 650l148 166h76l90 -166h-92l-48 94l-82 -94h-92z" />
    <glyph glyph-name="gbreve.smcp" unicode="&#xe24e;" horiz-adv-x="680" 
d="M326 -9q-139 0 -220.5 100.5t-57.5 237.5q20 117 111.5 196.5t215.5 79.5q89 0 156.5 -42t102.5 -111l-104 -52q-46 103 -163 103q-82 0 -140.5 -53t-72.5 -132q-16 -91 36 -158t146 -67q67 0 116.5 37t72.5 99h-204l19 101h318l-9 -55q-23 -128 -110.5 -206t-212.5 -78z
M395 649q-78 0 -111.5 46.5t-20.5 119.5h76q-9 -47 9 -73t59 -27q83 2 102 100h77q-13 -72 -65 -119t-126 -47z" />
    <glyph glyph-name="gbreve.smcp" unicode="&#xf64b;" horiz-adv-x="680" 
d="M326 -9q-139 0 -220.5 100.5t-57.5 237.5q20 117 111.5 196.5t215.5 79.5q89 0 156.5 -42t102.5 -111l-104 -52q-46 103 -163 103q-82 0 -140.5 -53t-72.5 -132q-16 -91 36 -158t146 -67q67 0 116.5 37t72.5 99h-204l19 101h318l-9 -55q-23 -128 -110.5 -206t-212.5 -78z
M395 649q-78 0 -111.5 46.5t-20.5 119.5h76q-9 -47 9 -73t59 -27q83 2 102 100h77q-13 -72 -65 -119t-126 -47z" />
    <glyph glyph-name="gdotaccent.smcp" unicode="&#xe24f;" horiz-adv-x="680" 
d="M326 -9q-139 0 -220.5 100.5t-57.5 237.5q20 117 111.5 196.5t215.5 79.5q89 0 156.5 -42t102.5 -111l-104 -52q-46 103 -163 103q-82 0 -140.5 -53t-72.5 -132q-16 -91 36 -158t146 -67q67 0 116.5 37t72.5 99h-204l19 101h318l-9 -55q-23 -128 -110.5 -206t-212.5 -78z
M335 654l24 138h107l-24 -138h-107z" />
    <glyph glyph-name="gdotaccent.smcp" unicode="&#xf62d;" horiz-adv-x="680" 
d="M326 -9q-139 0 -220.5 100.5t-57.5 237.5q20 117 111.5 196.5t215.5 79.5q89 0 156.5 -42t102.5 -111l-104 -52q-46 103 -163 103q-82 0 -140.5 -53t-72.5 -132q-16 -91 36 -158t146 -67q67 0 116.5 37t72.5 99h-204l19 101h318l-9 -55q-23 -128 -110.5 -206t-212.5 -78z
M335 654l24 138h107l-24 -138h-107z" />
    <glyph glyph-name="hcircumflex.smcp" unicode="&#xe253;" horiz-adv-x="539" 
d="M9 0l104 596h108l-43 -244h219l43 244h107l-105 -596h-107l43 246h-219l-43 -246h-107zM179 650l148 166h76l90 -166h-92l-48 94l-82 -94h-92z" />
    <glyph glyph-name="hcircumflex.smcp" unicode="&#xf62f;" horiz-adv-x="539" 
d="M9 0l104 596h108l-43 -244h219l43 244h107l-105 -596h-107l43 246h-219l-43 -246h-107zM179 650l148 166h76l90 -166h-92l-48 94l-82 -94h-92z" />
    <glyph glyph-name="hbar.smcp" unicode="&#xe257;" horiz-adv-x="564" 
d="M49 426l16 88h46l14 82h108l-15 -82h219l15 82h107l-15 -82h49l-16 -88h-48l-75 -426h-107l43 246h-219l-43 -246h-107l74 426h-46zM203 426l-13 -74h219l13 74h-219z" />
    <glyph glyph-name="hbar.smcp" unicode="&#xf62e;" horiz-adv-x="564" 
d="M49 426l16 88h46l14 82h108l-15 -82h219l15 82h107l-15 -82h49l-16 -88h-48l-75 -426h-107l43 246h-219l-43 -246h-107l74 426h-46zM203 426l-13 -74h219l13 74h-219z" />
    <glyph glyph-name="iacute.smcp" unicode="&#xe258;" horiz-adv-x="222" 
d="M141 650l144 166h114l-176 -166h-82zM14 0l104 596h107l-104 -596h-107z" />
    <glyph glyph-name="iacute.smcp" unicode="&#xf7ed;" horiz-adv-x="222" 
d="M141 650l144 166h114l-176 -166h-82zM14 0l104 596h107l-104 -596h-107z" />
    <glyph glyph-name="igrave.smcp" unicode="&#xe259;" horiz-adv-x="222" 
d="M139 650l-118 166h113l86 -166h-81zM14 0l104 596h107l-104 -596h-107z" />
    <glyph glyph-name="igrave.smcp" unicode="&#xf7ec;" horiz-adv-x="222" 
d="M139 650l-118 166h113l86 -166h-81zM14 0l104 596h107l-104 -596h-107z" />
    <glyph glyph-name="icircumflex.smcp" unicode="&#xe25a;" horiz-adv-x="222" 
d="M14 0l104 596h107l-104 -596h-107zM22 648l148 166h76l90 -166h-92l-48 94l-82 -94h-92z" />
    <glyph glyph-name="icircumflex.smcp" unicode="&#xf7ee;" horiz-adv-x="222" 
d="M14 0l104 596h107l-104 -596h-107zM22 648l148 166h76l90 -166h-92l-48 94l-82 -94h-92z" />
    <glyph glyph-name="idieresis.smcp" unicode="&#xe25b;" horiz-adv-x="222" 
d="M209 654l25 138h107l-24 -138h-108zM49 654l25 138h107l-25 -138h-107zM14 0l104 596h107l-104 -596h-107z" />
    <glyph glyph-name="idieresis.smcp" unicode="&#xf7ef;" horiz-adv-x="222" 
d="M209 654l25 138h107l-24 -138h-108zM49 654l25 138h107l-25 -138h-107zM14 0l104 596h107l-104 -596h-107z" />
    <glyph glyph-name="itilde.smcp" unicode="&#xe25c;" horiz-adv-x="222" 
d="M14 0l104 596h107l-104 -596h-107zM16 650q11 58 43.5 93t79.5 35q38 0 75 -25q38 -26 55 -26q31 0 40 47h71q-12 -60 -43.5 -94t-80.5 -34q-37 0 -85 32q-29 19 -46 19q-30 0 -39 -47h-70z" />
    <glyph glyph-name="itilde.smcp" unicode="&#xf632;" horiz-adv-x="222" 
d="M14 0l104 596h107l-104 -596h-107zM16 650q11 58 43.5 93t79.5 35q38 0 75 -25q38 -26 55 -26q31 0 40 47h71q-12 -60 -43.5 -94t-80.5 -34q-37 0 -85 32q-29 19 -46 19q-30 0 -39 -47h-70z" />
    <glyph glyph-name="imacron.smcp" unicode="&#xe25e;" horiz-adv-x="222" 
d="M52 650l15 77h264l-15 -77h-264zM14 0l104 596h107l-104 -596h-107z" />
    <glyph glyph-name="imacron.smcp" unicode="&#xf64d;" horiz-adv-x="222" 
d="M52 650l15 77h264l-15 -77h-264zM14 0l104 596h107l-104 -596h-107z" />
    <glyph glyph-name="ibreve.smcp" unicode="&#xe25f;" horiz-adv-x="222" 
d="M14 0l104 596h107l-104 -596h-107zM185 647q-78 0 -111.5 46.5t-20.5 119.5h76q-9 -47 9 -73t59 -27q83 2 102 100h77q-13 -72 -65 -119t-126 -47z" />
    <glyph glyph-name="ibreve.smcp" unicode="&#xf630;" horiz-adv-x="222" 
d="M14 0l104 596h107l-104 -596h-107zM185 647q-78 0 -111.5 46.5t-20.5 119.5h76q-9 -47 9 -73t59 -27q83 2 102 100h77q-13 -72 -65 -119t-126 -47z" />
    <glyph glyph-name="idotaccent.smcp" unicode="&#xe262;" horiz-adv-x="222" 
d="M14 0l104 596h107l-104 -596h-107zM130 654l24 138h107l-24 -138h-107z" />
    <glyph glyph-name="idotaccent.smcp" unicode="&#xf666;" horiz-adv-x="222" 
d="M14 0l104 596h107l-104 -596h-107zM130 654l24 138h107l-24 -138h-107z" />
    <glyph glyph-name="iogonek.smcp" unicode="&#xe264;" horiz-adv-x="222" 
d="M6 -223q-61 0 -94.5 31.5t-25.5 76.5q12 72 131 133l101 578h107l-104 -596h1q-90 -52 -116.5 -72t-29.5 -40q-4 -18 8.5 -27.5t33.5 -9.5q30 0 73 31l63 -48q-75 -57 -148 -57z" />
    <glyph glyph-name="iogonek.smcp" unicode="&#xf64e;" horiz-adv-x="222" 
d="M6 -223q-61 0 -94.5 31.5t-25.5 76.5q12 72 131 133l101 578h107l-104 -596h1q-90 -52 -116.5 -72t-29.5 -40q-4 -18 8.5 -27.5t33.5 -9.5q30 0 73 31l63 -48q-75 -57 -148 -57z" />
    <glyph glyph-name="jcircumflex.smcp" unicode="&#xe265;" horiz-adv-x="421" 
d="M167 -9q-70 0 -114.5 36.5t-59.5 100.5l105 32q16 -69 71 -69q32 0 53 22.5t28 57.5l74 425h108l-77 -433q-15 -82 -62.5 -127t-125.5 -45zM225 646l148 166h76l90 -166h-92l-48 94l-82 -94h-92z" />
    <glyph glyph-name="jcircumflex.smcp" unicode="&#xf633;" horiz-adv-x="421" 
d="M167 -9q-70 0 -114.5 36.5t-59.5 100.5l105 32q16 -69 71 -69q32 0 53 22.5t28 57.5l74 425h108l-77 -433q-15 -82 -62.5 -127t-125.5 -45zM225 646l148 166h76l90 -166h-92l-48 94l-82 -94h-92z" />
    <glyph glyph-name="kcommaaccent.smcp" unicode="&#xe268;" horiz-adv-x="538" 
d="M360 0l-119 290l-89 -86l-36 -204h-107l104 596h108l-44 -246l257 246h137l-246 -235l149 -361h-114zM122 -251l74 204h95l-102 -204h-67z" />
    <glyph glyph-name="kcommaaccent.smcp" unicode="&#xf64f;" horiz-adv-x="538" 
d="M360 0l-119 290l-89 -86l-36 -204h-107l104 596h108l-44 -246l257 246h137l-246 -235l149 -361h-114zM122 -251l74 204h95l-102 -204h-67z" />
    <glyph glyph-name="lacute.smcp" unicode="&#xe26b;" horiz-adv-x="419" 
d="M9 0l104 596h108l-87 -493h222l-18 -103h-329zM136 650l144 166h114l-176 -166h-82z" />
    <glyph glyph-name="lacute.smcp" unicode="&#xf650;" horiz-adv-x="419" 
d="M9 0l104 596h108l-87 -493h222l-18 -103h-329zM136 650l144 166h114l-176 -166h-82z" />
    <glyph glyph-name="lcaron.smcp" unicode="&#xe26c;" horiz-adv-x="419" 
d="M9 0l104 596h108l-87 -493h222l-18 -103h-329zM268 430l81 166h93l-103 -166h-71z" />
    <glyph glyph-name="lcaron.smcp" unicode="&#xf651;" horiz-adv-x="419" 
d="M9 0l104 596h108l-87 -493h222l-18 -103h-329zM268 430l81 166h93l-103 -166h-71z" />
    <glyph glyph-name="lcommaaccent.smcp" unicode="&#xe26d;" horiz-adv-x="419" 
d="M9 0l104 596h108l-87 -493h222l-18 -103h-329zM47 -251l74 204h95l-102 -204h-67z" />
    <glyph glyph-name="lcommaaccent.smcp" unicode="&#xf652;" horiz-adv-x="419" 
d="M9 0l104 596h108l-87 -493h222l-18 -103h-329zM47 -251l74 204h95l-102 -204h-67z" />
    <glyph glyph-name="ldot.smcp" unicode="&#xe271;" horiz-adv-x="424" 
d="M9 0l104 596h108l-87 -493h225l-18 -103h-332zM272 237l24 138h107l-24 -138h-107z" />
    <glyph glyph-name="ldot.smcp" unicode="&#xf634;" horiz-adv-x="424" 
d="M9 0l104 596h108l-87 -493h225l-18 -103h-332zM272 237l24 138h107l-24 -138h-107z" />
    <glyph glyph-name="lslash.smcp" unicode="&#xe272;" horiz-adv-x="444" 
d="M11 233l14 82l66 19l46 262h108l-41 -230l148 42l-14 -82l-148 -42l-32 -181h222l-18 -103h-329l44 252z" />
    <glyph glyph-name="lslash.smcp" unicode="&#xf6f9;" horiz-adv-x="444" 
d="M11 233l14 82l66 19l46 262h108l-41 -230l148 42l-14 -82l-148 -42l-32 -181h222l-18 -103h-329l44 252z" />
    <glyph glyph-name="nacute.smcp" unicode="&#xe276;" horiz-adv-x="586" 
d="M9 0l105 596h113l187 -409l72 409h108l-105 -596h-105l-194 423l-74 -423h-107zM314 641l144 166h114l-176 -166h-82z" />
    <glyph glyph-name="nacute.smcp" unicode="&#xf653;" horiz-adv-x="586" 
d="M9 0l105 596h113l187 -409l72 409h108l-105 -596h-105l-194 423l-74 -423h-107zM314 641l144 166h114l-176 -166h-82z" />
    <glyph glyph-name="ntilde.smcp" unicode="&#xe279;" horiz-adv-x="586" 
d="M9 0l105 596h113l187 -409l72 409h108l-105 -596h-105l-194 423l-74 -423h-107zM187 650q11 58 43.5 93t79.5 35q38 0 75 -25q38 -26 55 -26q31 0 40 47h71q-12 -60 -43.5 -94t-80.5 -34q-37 0 -85 32q-28 19 -46 19q-30 0 -39 -47h-70z" />
    <glyph glyph-name="ncaron.smcp" unicode="&#xe27a;" horiz-adv-x="586" 
d="M9 0l105 596h113l187 -409l72 409h108l-105 -596h-105l-194 423l-74 -423h-107zM319 641l-90 166h92l48 -94l82 94h92l-149 -166h-75z" />
    <glyph glyph-name="ncaron.smcp" unicode="&#xf654;" horiz-adv-x="586" 
d="M9 0l105 596h113l187 -409l72 409h108l-105 -596h-105l-194 423l-74 -423h-107zM319 641l-90 166h92l48 -94l82 94h92l-149 -166h-75z" />
    <glyph glyph-name="ncommaaccent.smcp" unicode="&#xe27d;" horiz-adv-x="586" 
d="M9 0l105 596h113l187 -409l72 409h108l-105 -596h-105l-194 423l-74 -423h-107zM131 -249l74 204h95l-102 -204h-67z" />
    <glyph glyph-name="ncommaaccent.smcp" unicode="&#xf655;" horiz-adv-x="586" 
d="M9 0l105 596h113l187 -409l72 409h108l-105 -596h-105l-194 423l-74 -423h-107zM131 -249l74 204h95l-102 -204h-67z" />
    <glyph glyph-name="oacute.smcp" unicode="&#xe281;" horiz-adv-x="683" 
d="M326 -9q-138 0 -219.5 100.5t-58.5 237.5q20 119 112.5 197.5t212.5 78.5q92 0 162 -48t101 -126t16 -165q-20 -119 -111.5 -197t-214.5 -78zM335 95q79 0 137.5 52t72.5 131q16 88 -35.5 155.5t-144.5 67.5q-79 0 -138 -51.5t-73 -130.5q-15 -91 37 -157.5t144 -66.5z
M348 650l144 166h114l-176 -166h-82z" />
    <glyph glyph-name="oacute.smcp" unicode="&#xf7f3;" horiz-adv-x="683" 
d="M326 -9q-138 0 -219.5 100.5t-58.5 237.5q20 119 112.5 197.5t212.5 78.5q92 0 162 -48t101 -126t16 -165q-20 -119 -111.5 -197t-214.5 -78zM335 95q79 0 137.5 52t72.5 131q16 88 -35.5 155.5t-144.5 67.5q-79 0 -138 -51.5t-73 -130.5q-15 -91 37 -157.5t144 -66.5z
M348 650l144 166h114l-176 -166h-82z" />
    <glyph glyph-name="ograve.smcp" unicode="&#xe282;" horiz-adv-x="683" 
d="M326 -9q-138 0 -219.5 100.5t-58.5 237.5q20 119 112.5 197.5t212.5 78.5q92 0 162 -48t101 -126t16 -165q-20 -119 -111.5 -197t-214.5 -78zM335 95q79 0 137.5 52t72.5 131q16 88 -35.5 155.5t-144.5 67.5q-79 0 -138 -51.5t-73 -130.5q-15 -91 37 -157.5t144 -66.5z
M358 650l-118 166h113l86 -166h-81z" />
    <glyph glyph-name="ograve.smcp" unicode="&#xf7f2;" horiz-adv-x="683" 
d="M326 -9q-138 0 -219.5 100.5t-58.5 237.5q20 119 112.5 197.5t212.5 78.5q92 0 162 -48t101 -126t16 -165q-20 -119 -111.5 -197t-214.5 -78zM335 95q79 0 137.5 52t72.5 131q16 88 -35.5 155.5t-144.5 67.5q-79 0 -138 -51.5t-73 -130.5q-15 -91 37 -157.5t144 -66.5z
M358 650l-118 166h113l86 -166h-81z" />
    <glyph glyph-name="ocircumflex.smcp" unicode="&#xe283;" horiz-adv-x="683" 
d="M326 -9q-138 0 -219.5 100.5t-58.5 237.5q20 119 112.5 197.5t212.5 78.5q92 0 162 -48t101 -126t16 -165q-20 -119 -111.5 -197t-214.5 -78zM335 95q79 0 137.5 52t72.5 131q16 88 -35.5 155.5t-144.5 67.5q-79 0 -138 -51.5t-73 -130.5q-15 -91 37 -157.5t144 -66.5z
M228 650l148 166h76l90 -166h-92l-48 94l-82 -94h-92z" />
    <glyph glyph-name="ocircumflex.smcp" unicode="&#xf7f4;" horiz-adv-x="683" 
d="M326 -9q-138 0 -219.5 100.5t-58.5 237.5q20 119 112.5 197.5t212.5 78.5q92 0 162 -48t101 -126t16 -165q-20 -119 -111.5 -197t-214.5 -78zM335 95q79 0 137.5 52t72.5 131q16 88 -35.5 155.5t-144.5 67.5q-79 0 -138 -51.5t-73 -130.5q-15 -91 37 -157.5t144 -66.5z
M228 650l148 166h76l90 -166h-92l-48 94l-82 -94h-92z" />
    <glyph glyph-name="odieresis.smcp" unicode="&#xe284;" horiz-adv-x="683" 
d="M326 -9q-138 0 -219.5 100.5t-58.5 237.5q20 119 112.5 197.5t212.5 78.5q92 0 162 -48t101 -126t16 -165q-20 -119 -111.5 -197t-214.5 -78zM335 95q79 0 137.5 52t72.5 131q16 88 -35.5 155.5t-144.5 67.5q-79 0 -138 -51.5t-73 -130.5q-15 -91 37 -157.5t144 -66.5z
M417 654l25 138h107l-24 -138h-108zM257 654l25 138h107l-25 -138h-107z" />
    <glyph glyph-name="odieresis.smcp" unicode="&#xf7f6;" horiz-adv-x="683" 
d="M326 -9q-138 0 -219.5 100.5t-58.5 237.5q20 119 112.5 197.5t212.5 78.5q92 0 162 -48t101 -126t16 -165q-20 -119 -111.5 -197t-214.5 -78zM335 95q79 0 137.5 52t72.5 131q16 88 -35.5 155.5t-144.5 67.5q-79 0 -138 -51.5t-73 -130.5q-15 -91 37 -157.5t144 -66.5z
M417 654l25 138h107l-24 -138h-108zM257 654l25 138h107l-25 -138h-107z" />
    <glyph glyph-name="otilde.smcp" unicode="&#xe285;" horiz-adv-x="683" 
d="M326 -9q-138 0 -219.5 100.5t-58.5 237.5q20 119 112.5 197.5t212.5 78.5q92 0 162 -48t101 -126t16 -165q-20 -119 -111.5 -197t-214.5 -78zM335 95q79 0 137.5 52t72.5 131q16 88 -35.5 155.5t-144.5 67.5q-79 0 -138 -51.5t-73 -130.5q-15 -91 37 -157.5t144 -66.5z
M232 650q11 58 43.5 93t79.5 35q38 0 75 -25q38 -26 55 -26q31 0 40 47h71q-12 -60 -43.5 -94t-80.5 -34q-37 0 -85 32q-29 19 -46 19q-30 0 -39 -47h-70z" />
    <glyph glyph-name="otilde.smcp" unicode="&#xf7f5;" horiz-adv-x="683" 
d="M326 -9q-138 0 -219.5 100.5t-58.5 237.5q20 119 112.5 197.5t212.5 78.5q92 0 162 -48t101 -126t16 -165q-20 -119 -111.5 -197t-214.5 -78zM335 95q79 0 137.5 52t72.5 131q16 88 -35.5 155.5t-144.5 67.5q-79 0 -138 -51.5t-73 -130.5q-15 -91 37 -157.5t144 -66.5z
M232 650q11 58 43.5 93t79.5 35q38 0 75 -25q38 -26 55 -26q31 0 40 47h71q-12 -60 -43.5 -94t-80.5 -34q-37 0 -85 32q-29 19 -46 19q-30 0 -39 -47h-70z" />
    <glyph glyph-name="omacron.smcp" unicode="&#xe287;" horiz-adv-x="683" 
d="M326 -9q-138 0 -219.5 100.5t-58.5 237.5q20 119 112.5 197.5t212.5 78.5q92 0 162 -48t101 -126t16 -165q-20 -119 -111.5 -197t-214.5 -78zM335 95q79 0 137.5 52t72.5 131q16 88 -35.5 155.5t-144.5 67.5q-79 0 -138 -51.5t-73 -130.5q-15 -91 37 -157.5t144 -66.5z
M263 650l15 77h264l-15 -77h-264z" />
    <glyph glyph-name="omacron.smcp" unicode="&#xf657;" horiz-adv-x="683" 
d="M326 -9q-138 0 -219.5 100.5t-58.5 237.5q20 119 112.5 197.5t212.5 78.5q92 0 162 -48t101 -126t16 -165q-20 -119 -111.5 -197t-214.5 -78zM335 95q79 0 137.5 52t72.5 131q16 88 -35.5 155.5t-144.5 67.5q-79 0 -138 -51.5t-73 -130.5q-15 -91 37 -157.5t144 -66.5z
M263 650l15 77h264l-15 -77h-264z" />
    <glyph glyph-name="obreve.smcp" unicode="&#xe288;" horiz-adv-x="683" 
d="M326 -9q-138 0 -219.5 100.5t-58.5 237.5q20 119 112.5 197.5t212.5 78.5q92 0 162 -48t101 -126t16 -165q-20 -119 -111.5 -197t-214.5 -78zM335 95q79 0 137.5 52t72.5 131q16 88 -35.5 155.5t-144.5 67.5q-79 0 -138 -51.5t-73 -130.5q-15 -91 37 -157.5t144 -66.5z
M388 652q-78 0 -111.5 46.5t-20.5 119.5h76q-9 -47 9 -73t59 -27q83 2 102 100h77q-13 -72 -65 -119t-126 -47z" />
    <glyph glyph-name="obreve.smcp" unicode="&#xf635;" horiz-adv-x="683" 
d="M326 -9q-138 0 -219.5 100.5t-58.5 237.5q20 119 112.5 197.5t212.5 78.5q92 0 162 -48t101 -126t16 -165q-20 -119 -111.5 -197t-214.5 -78zM335 95q79 0 137.5 52t72.5 131q16 88 -35.5 155.5t-144.5 67.5q-79 0 -138 -51.5t-73 -130.5q-15 -91 37 -157.5t144 -66.5z
M388 652q-78 0 -111.5 46.5t-20.5 119.5h76q-9 -47 9 -73t59 -27q83 2 102 100h77q-13 -72 -65 -119t-126 -47z" />
    <glyph glyph-name="ohungarumlaut.smcp" unicode="&#xe28a;" horiz-adv-x="683" 
d="M326 -9q-138 0 -219.5 100.5t-58.5 237.5q20 119 112.5 197.5t212.5 78.5q92 0 162 -48t101 -126t16 -165q-20 -119 -111.5 -197t-214.5 -78zM335 95q79 0 137.5 52t72.5 131q16 88 -35.5 155.5t-144.5 67.5q-79 0 -138 -51.5t-73 -130.5q-15 -91 37 -157.5t144 -66.5z
M268 649l145 166h108l-177 -166h-76zM425 649l144 166h108l-176 -166h-76z" />
    <glyph glyph-name="ohungarumlaut.smcp" unicode="&#xf656;" horiz-adv-x="683" 
d="M326 -9q-138 0 -219.5 100.5t-58.5 237.5q20 119 112.5 197.5t212.5 78.5q92 0 162 -48t101 -126t16 -165q-20 -119 -111.5 -197t-214.5 -78zM335 95q79 0 137.5 52t72.5 131q16 88 -35.5 155.5t-144.5 67.5q-79 0 -138 -51.5t-73 -130.5q-15 -91 37 -157.5t144 -66.5z
M268 649l145 166h108l-177 -166h-76zM425 649l144 166h108l-176 -166h-76z" />
    <glyph glyph-name="oslash.smcp" unicode="&#xe295;" horiz-adv-x="683" 
d="M326 -9q-93 0 -162 47l-37 -38h-124l96 100q-73 99 -51 229q20 119 112.5 197.5t212.5 78.5q91 0 164 -50l39 41h124l-99 -103q74 -99 51 -227q-20 -119 -111.5 -197t-214.5 -78zM154 319q-13 -76 23 -138l284 295q-42 25 -96 25q-79 0 -138 -51.5t-73 -130.5zM335 95
q79 0 137.5 52t72.5 131q14 73 -22 134l-282 -294q40 -23 94 -23z" />
    <glyph glyph-name="oslash.smcp" unicode="&#xf7f8;" horiz-adv-x="683" 
d="M326 -9q-93 0 -162 47l-37 -38h-124l96 100q-73 99 -51 229q20 119 112.5 197.5t212.5 78.5q91 0 164 -50l39 41h124l-99 -103q74 -99 51 -227q-20 -119 -111.5 -197t-214.5 -78zM154 319q-13 -76 23 -138l284 295q-42 25 -96 25q-79 0 -138 -51.5t-73 -130.5zM335 95
q79 0 137.5 52t72.5 131q14 73 -22 134l-282 -294q40 -23 94 -23z" />
    <glyph glyph-name="oslashacute.smcp" unicode="&#xe296;" horiz-adv-x="683" 
d="M326 -9q-93 0 -162 47l-37 -38h-124l96 100q-73 99 -51 229q20 119 112.5 197.5t212.5 78.5q91 0 164 -50l39 41h124l-99 -103q74 -99 51 -227q-20 -119 -111.5 -197t-214.5 -78zM154 319q-13 -76 23 -138l284 295q-42 25 -96 25q-79 0 -138 -51.5t-73 -130.5zM335 95
q79 0 137.5 52t72.5 131q14 73 -22 134l-282 -294q40 -23 94 -23zM342 650l144 166h114l-176 -166h-82z" />
    <glyph glyph-name="oslashacute.smcp" unicode="&#xf627;" horiz-adv-x="683" 
d="M326 -9q-93 0 -162 47l-37 -38h-124l96 100q-73 99 -51 229q20 119 112.5 197.5t212.5 78.5q91 0 164 -50l39 41h124l-99 -103q74 -99 51 -227q-20 -119 -111.5 -197t-214.5 -78zM154 319q-13 -76 23 -138l284 295q-42 25 -96 25q-79 0 -138 -51.5t-73 -130.5zM335 95
q79 0 137.5 52t72.5 131q14 73 -22 134l-282 -294q40 -23 94 -23zM342 650l144 166h114l-176 -166h-82z" />
    <glyph glyph-name="oe.smcp" unicode="&#xe298;" horiz-adv-x="940" 
d="M494 0l9 51q-76 -60 -177 -60q-138 0 -219.5 100.5t-58.5 237.5q20 119 112.5 197.5t212.5 78.5q140 0 210 -96l16 87h356l-17 -100h-250l-26 -147h250l-18 -101h-249l-26 -147h249l-18 -101h-356zM335 95q78 0 136 52t72 131q16 88 -34.5 155.5t-143.5 67.5
q-79 0 -138 -51.5t-73 -130.5q-15 -91 37 -157.5t144 -66.5z" />
    <glyph glyph-name="oe.smcp" unicode="&#xf6fa;" horiz-adv-x="940" 
d="M494 0l9 51q-76 -60 -177 -60q-138 0 -219.5 100.5t-58.5 237.5q20 119 112.5 197.5t212.5 78.5q140 0 210 -96l16 87h356l-17 -100h-250l-26 -147h250l-18 -101h-249l-26 -147h249l-18 -101h-356zM335 95q78 0 136 52t72 131q16 88 -34.5 155.5t-143.5 67.5
q-79 0 -138 -51.5t-73 -130.5q-15 -91 37 -157.5t144 -66.5z" />
    <glyph glyph-name="racute.smcp" unicode="&#xe29a;" horiz-adv-x="508" 
d="M9 0l104 596h181q102 0 158.5 -62t40.5 -154q-11 -62 -56.5 -107t-123.5 -57q13 -55 46.5 -85t80.5 -30h11l-18 -101h-12q-77 0 -130 44.5t-74.5 111.5t-17.5 147h50q117 0 135 93q8 45 -21 73.5t-86 29.5h-74l-87 -499h-107zM267 650l144 166h114l-176 -166h-82z" />
    <glyph glyph-name="racute.smcp" unicode="&#xf658;" horiz-adv-x="508" 
d="M9 0l104 596h181q102 0 158.5 -62t40.5 -154q-11 -62 -56.5 -107t-123.5 -57q13 -55 46.5 -85t80.5 -30h11l-18 -101h-12q-77 0 -130 44.5t-74.5 111.5t-17.5 147h50q117 0 135 93q8 45 -21 73.5t-86 29.5h-74l-87 -499h-107zM267 650l144 166h114l-176 -166h-82z" />
    <glyph glyph-name="rcaron.smcp" unicode="&#xe29b;" horiz-adv-x="508" 
d="M9 0l104 596h181q102 0 158.5 -62t40.5 -154q-11 -62 -56.5 -107t-123.5 -57q13 -55 46.5 -85t80.5 -30h11l-18 -101h-12q-77 0 -130 44.5t-74.5 111.5t-17.5 147h50q117 0 135 93q8 45 -21 73.5t-86 29.5h-74l-87 -499h-107zM273 650l-90 166h92l48 -94l82 94h92
l-149 -166h-75z" />
    <glyph glyph-name="rcaron.smcp" unicode="&#xf659;" horiz-adv-x="508" 
d="M9 0l104 596h181q102 0 158.5 -62t40.5 -154q-11 -62 -56.5 -107t-123.5 -57q13 -55 46.5 -85t80.5 -30h11l-18 -101h-12q-77 0 -130 44.5t-74.5 111.5t-17.5 147h50q117 0 135 93q8 45 -21 73.5t-86 29.5h-74l-87 -499h-107zM273 650l-90 166h92l48 -94l82 94h92
l-149 -166h-75z" />
    <glyph glyph-name="rcommaaccent.smcp" unicode="&#xe29e;" horiz-adv-x="508" 
d="M9 0l104 596h181q102 0 158.5 -62t40.5 -154q-11 -62 -56.5 -107t-123.5 -57q13 -55 46.5 -85t80.5 -30h11l-18 -101h-12q-77 0 -130 44.5t-74.5 111.5t-17.5 147h50q117 0 135 93q8 45 -21 73.5t-86 29.5h-74l-87 -499h-107zM108 -249l74 204h95l-102 -204h-67z" />
    <glyph glyph-name="rcommaaccent.smcp" unicode="&#xf65a;" horiz-adv-x="508" 
d="M9 0l104 596h181q102 0 158.5 -62t40.5 -154q-11 -62 -56.5 -107t-123.5 -57q13 -55 46.5 -85t80.5 -30h11l-18 -101h-12q-77 0 -130 44.5t-74.5 111.5t-17.5 147h50q117 0 135 93q8 45 -21 73.5t-86 29.5h-74l-87 -499h-107zM108 -249l74 204h95l-102 -204h-67z" />
    <glyph glyph-name="A.swsh" unicode="&#xe2e0;" horiz-adv-x="1109" 
d="M932 0l-31 177h-285l-102 -188q-52 -94 -116 -139t-158 -45q-124 0 -189.5 82.5t-46.5 190.5q16 91 86.5 146.5t176.5 55.5h287l192 350h-326q-42 0 -71 -19.5t-37 -53.5q-8 -35 14 -64.5t60 -29.5q44 0 67 37l93 -49q-55 -88 -167 -88q-91 0 -140.5 66t-27.5 148
q18 71 76 112t146 41h478l132 -730h-111zM246 -94q56 0 95.5 28.5t74.5 89.5l85 153h-244q-61 0 -100.5 -31.5t-45.5 -86.5q-10 -59 28 -106t107 -47zM832 582l-165 -302h217z" />
    <glyph glyph-name="B.swsh" unicode="&#xe2e1;" horiz-adv-x="880" 
d="M67 -83l-90 68q74 114 211 114h123l93 521h110l-32 -182h117q54 0 89 27t44 68q13 62 -43 102t-187 40q-76 0 -135 -14t-95 -38t-56.5 -53t-26.5 -62q-9 -49 14.5 -85t69.5 -57l-59 -91q-71 28 -109 95.5t-23 152.5q20 116 133 184t288 68q94 0 166 -21.5t111.5 -58
t56 -81t6.5 -92.5q-17 -88 -99 -133q114 -62 90 -194q-17 -92 -91 -143.5t-197 -51.5h-345q-95 0 -134 -83zM587 340h-122l-43 -241h133q148 0 169 112q10 56 -27.5 92.5t-109.5 36.5z" />
    <glyph glyph-name="C.swsh" unicode="&#xe2e2;" horiz-adv-x="794" 
d="M414 -127q-87 0 -160.5 34t-124 96t-70.5 156t-1 206q21 122 94 217t171 144t202 49q145 0 223.5 -83t53.5 -193q-11 -70 -68 -117t-135 -47q-119 0 -182 92l101 71q30 -56 85 -56q36 0 60.5 21t30.5 56q12 64 -36 109.5t-138 45.5q-121 0 -224.5 -91t-128.5 -230
q-31 -175 46 -275t212 -100q131 0 214 114l85 -70q-117 -149 -310 -149z" />
    <glyph glyph-name="D.swsh" unicode="&#xe2e3;" horiz-adv-x="958" 
d="M89 -83l-90 68q73 114 210 114h126l93 524h110l-93 -524h110q103 2 177.5 69t93.5 178q12 64 -3.5 122.5t-56 105t-113 74.5t-167.5 28q-140 0 -213.5 -50t-85.5 -123q-9 -48 16 -86t71 -59l-59 -91q-71 28 -111 97.5t-25 154.5q19 118 131.5 187t285.5 69
q115 0 207 -37.5t147 -100t77.5 -143.5t6.5 -169q-27 -149 -132.5 -237t-250.5 -88h-329q-94 0 -133 -83z" />
    <glyph glyph-name="E.swsh" unicode="&#xe2e4;" horiz-adv-x="659" 
d="M281 -155q-128 0 -198.5 79.5t-52.5 190.5q22 134 175 191q-63 42 -95.5 109.5t-18.5 149.5q20 121 119 192t228 71t197.5 -69.5t52.5 -163.5q-11 -60 -60 -100t-113 -40q-88 0 -144 55l78 81q30 -33 66 -33q26 0 43.5 18t22.5 44q8 42 -31.5 74.5t-116.5 32.5
q-89 0 -153.5 -50.5t-75.5 -127.5q-14 -84 45.5 -145.5t157.5 -61.5h2l-18 -104h-17q-96 0 -158 -34.5t-73 -103.5q-11 -62 31 -106.5t111 -44.5q116 0 191 112l92 -68q-104 -148 -287 -148z" />
    <glyph glyph-name="F.swsh" unicode="&#xe2e5;" horiz-adv-x="876" 
d="M271 -142q-102 0 -156 62t-39 154q10 61 61 110l90 -67q-33 -26 -39 -59q-7 -39 16.5 -67t63.5 -28q90 0 116 133l94 534h-119q-69 0 -114.5 -31t-55.5 -88q-15 -83 67 -136l-59 -91q-62 30 -96 96.5t-20 145.5q16 95 92 149.5t186 54.5h414q45 0 65.5 20.5t29.5 65.5
l10 54h110l-14 -81q-14 -76 -58 -118.5t-132 -42.5h-196l-41 -232h314l-18 -104h-314l-39 -223q-19 -97 -73 -154t-146 -57z" />
    <glyph glyph-name="G.swsh" unicode="&#xe2e6;" horiz-adv-x="833" 
d="M409 -301q-91 0 -153 38.5t-88 101.5l116 40q29 -77 139 -77q85 0 136 57.5t65 136.5l23 125q-79 -131 -253 -131q-111 0 -194.5 57t-120 152t-17.5 204q24 143 136 240t268 97q107 0 189.5 -51.5t124.5 -134.5l-106 -56q-62 137 -219 137q-109 0 -187.5 -70.5
t-97.5 -172.5q-21 -118 46.5 -206.5t191.5 -88.5q96 0 163.5 53.5t97.5 141.5h-266l19 102h380l-74 -416q-21 -120 -100.5 -199.5t-218.5 -79.5z" />
    <glyph glyph-name="H.swsh" unicode="&#xe2e7;" horiz-adv-x="1034" 
d="M277 -150q-108 0 -173.5 75t-46.5 180q14 77 75 138l85 -74q-42 -35 -49 -78q-11 -59 22.5 -98.5t95.5 -39.5q64 0 98.5 49.5t50.5 140.5l86 487h-230q-35 0 -65 -20.5t-36 -57.5q-6 -35 15 -61.5t57 -26.5t64 26l63 -78q-51 -48 -134 -48q-85 0 -134 60.5t-35 139.5
q13 72 71 119t135 47h357l-55 -312h303l52 292q15 93 67.5 144.5t140.5 51.5q113 0 169 -73l-86 -65q-26 40 -78 40q-44 0 -70.5 -29.5t-35.5 -76.5l-122 -702h-110l55 313h-303l-36 -204q-21 -122 -82.5 -190.5t-180.5 -68.5z" />
    <glyph glyph-name="I.swsh" unicode="&#xe2e8;" horiz-adv-x="851" 
d="M200 277q-63 31 -97.5 96t-20.5 143q16 98 92 156t186 58h357q45 0 66 21t29 65l10 54h111l-15 -81q-14 -76 -58 -118.5t-132 -42.5h-127l-92 -524h277l-18 -104h-508q-45 0 -65.5 -20.5t-29.5 -65.5l-10 -54h-110l14 81q30 163 190 163h150l92 524h-132
q-68 0 -113.5 -33.5t-55.5 -88.5q-8 -44 12 -79.5t57 -58.5z" />
    <glyph glyph-name="J.swsh" unicode="&#xe2e9;" horiz-adv-x="621" 
d="M270 -194q-110 0 -174.5 75.5t-45.5 180.5q13 77 75 137l84 -73q-40 -33 -49 -79q-11 -59 23 -98t95 -39q63 0 98.5 48t51.5 141l93 531h-230q-35 0 -65 -20.5t-36 -57.5q-6 -35 15 -61.5t57 -26.5t64 26l63 -78q-51 -48 -134 -48q-85 0 -134 60.5t-35 139.5
q13 72 71 119t135 47h357l-117 -665q-44 -259 -262 -259z" />
    <glyph glyph-name="K.swsh" unicode="&#xe2ea;" horiz-adv-x="1082" 
d="M277 -150q-108 0 -173.5 75t-46.5 180q14 77 75 138l85 -74q-42 -35 -49 -78q-11 -59 22.5 -98.5t95.5 -39.5q64 0 98.5 49.5t50.5 140.5l86 487h-230q-35 0 -65 -20.5t-36 -57.5q-6 -35 15 -61.5t57 -26.5t64 26l63 -78q-51 -48 -134 -48q-85 0 -134 60.5t-35 139.5
q13 72 71 119t135 47h357l-64 -362l377 362h141l-311 -299l93 -228q25 -65 44.5 -82t78.5 -17h16l-19 -104h-30q-83 0 -122 38.5t-76 142.5l-72 180l-145 -140l-20 -112q-21 -122 -82.5 -190.5t-180.5 -68.5z" />
    <glyph glyph-name="L.swsh" unicode="&#xe2eb;" horiz-adv-x="885" 
d="M135 -184q-78 0 -122 55t-32 125q10 60 59.5 95.5t119.5 35.5q34 0 67 -12l83 481q15 92 71 143t150 51q123 0 200 -104l-94 -67q-42 67 -111 67q-88 0 -106 -104l-90 -521q15 -10 49.5 -34t53.5 -36t48 -27.5t55 -22.5t52 -7q44 0 67.5 27t32.5 82l20 110h114l-22 -129
q-35 -195 -215 -195q-51 0 -106.5 22.5t-84 42t-84.5 60.5q-18 -66 -62 -102t-113 -36zM141 -79q52 0 64 68l5 28q-30 14 -56 14q-60 0 -66 -50q-4 -24 11.5 -42t41.5 -18z" />
    <glyph glyph-name="M.swsh" unicode="&#xe2ec;" horiz-adv-x="1103" 
d="M194 -141q-95 0 -150.5 65.5t-39.5 153.5q12 73 65 119l77 -74q-32 -25 -38 -56q-7 -42 19 -74t70 -32q42 0 67.5 26.5t33.5 72.5l114 645q-20 33 -41 51t-51 18q-61 0 -74 -63l-14 -79h-110l18 99q11 65 58 104t117 39t112.5 -28.5t73.5 -82.5l208 -372l325 339h97
l-128 -730h-110l94 540l-303 -315l-188 332l-88 -504q-16 -91 -71 -142.5t-143 -51.5z" />
    <glyph glyph-name="N.swsh" unicode="&#xe2ed;" horiz-adv-x="1084" 
d="M279 -149q-116 0 -181 75.5t-45 184.5q13 78 74 137l85 -73q-42 -34 -50 -79q-11 -61 23.5 -102t95.5 -41q125 0 153 180l88 497h-231q-35 0 -65 -20.5t-36 -57.5q-6 -35 15.5 -61t58.5 -26t60 23l65 -76q-51 -48 -134 -48q-85 0 -134 60.5t-35 139.5q13 72 71 119
t135 47h357l258 -543l92 523q16 93 68.5 144.5t139.5 51.5q114 0 169 -73l-85 -65q-28 40 -79 40q-45 0 -71 -29.5t-34 -76.5l-123 -702h-108l-260 546l-77 -443q-22 -118 -86 -185t-174 -67z" />
    <glyph glyph-name="O.swsh" unicode="&#xe2ee;" horiz-adv-x="878" 
d="M402 -108q-79 0 -149 27t-123.5 78.5t-76.5 136t-4 188.5q15 80 62 143l101 -51q-42 -52 -51 -116q-24 -133 46 -215.5t201 -82.5q132 0 222.5 99t113.5 231q25 151 -45.5 249t-191.5 98q-77 0 -123.5 -34.5t-55.5 -90.5q-8 -47 15.5 -77.5t70.5 -30.5q65 0 94 78
l107 -30q-27 -69 -78 -109t-122 -40q-98 0 -156 65.5t-40 162.5q17 94 95.5 151.5t194.5 56.5q122 0 209.5 -64.5t122 -169.5t12.5 -227q-19 -114 -75.5 -208.5t-155 -156t-220.5 -61.5z" />
    <glyph glyph-name="P.swsh" unicode="&#xe2ef;" horiz-adv-x="919" 
d="M234 -143q-99 0 -154 62.5t-40 153.5q10 60 65 113l85 -67q-32 -27 -38 -60q-7 -40 18 -68.5t68 -28.5q87 0 113 138l92 523h110l-58 -331q49 -13 109 -13q82 0 135.5 41t66.5 117q17 101 -64.5 170t-248.5 69q-140 0 -215.5 -47.5t-87.5 -118.5q-15 -83 68 -131l-59 -91
q-63 29 -97 94t-20 144q20 110 129 179.5t293 69.5q103 0 187 -29t136 -77.5t75.5 -111t12.5 -129.5q-20 -114 -103.5 -180.5t-212.5 -65.5q-61 -2 -121 14l-18 -108q-39 -231 -226 -231z" />
    <glyph glyph-name="Q.swsh" unicode="&#xe2f0;" horiz-adv-x="821" 
d="M397 -10q-111 0 -195 57t-121.5 152t-18.5 204q26 144 140 240.5t261 96.5q110 0 194.5 -58t122 -151.5t19.5 -198.5q-26 -143 -133 -239q31 -64 65 -99t84 -35h74l-19 -105h-68q-46 0 -83 16t-65 48t-46 62t-39 75q-1 3 -5.5 13t-5.5 12q-19 43 -31.5 66.5t-33 51.5
t-44 40.5t-52.5 12.5h-52l19 105h52q50 0 90.5 -24.5t63.5 -56t49 -81.5q55 63 70 145q21 117 -46.5 207t-189.5 90q-105 0 -184.5 -70t-98.5 -175q-21 -120 47 -208t190 -88q47 0 88 15q7 -15 22 -46.5t23 -47.5q-70 -26 -143 -26z" />
    <glyph glyph-name="R.swsh" unicode="&#xe2f1;" horiz-adv-x="918" 
d="M870 -134h-4q-60 0 -114 21.5t-102.5 67.5t-77 132t-28.5 202h53q81 0 137.5 40.5t69.5 115.5q7 43 -7.5 83t-50.5 74t-104.5 54.5t-160.5 20.5q-135 0 -207.5 -47.5t-84.5 -116.5q-14 -85 68 -131l-59 -91q-63 29 -96.5 94t-19.5 144q16 105 126 175.5t280 70.5
q111 0 199 -29.5t140.5 -79t75 -113t8.5 -132.5q-15 -91 -83 -152.5t-170 -71.5q15 -119 77 -173t143 -54h12zM224 -142q-98 0 -154 63t-41 154q10 60 60 110l90 -67q-33 -26 -39 -58q-7 -40 17 -69.5t67 -29.5q85 0 104 117l95 545h110l-98 -563q-17 -95 -69 -148.5
t-142 -53.5z" />
    <glyph glyph-name="S.swsh" unicode="&#xe2f2;" horiz-adv-x="692" 
d="M301 -184q-79 0 -142 26t-98.5 68t-49.5 93t-3 102q11 69 67 114.5t132 45.5q121 0 183 -96l-101 -70q-29 59 -87 59q-34 0 -57.5 -20.5t-28.5 -54.5q-12 -63 41.5 -113t149.5 -50q86 0 141 48.5t69 124.5q8 45 -5.5 88.5t-42 80t-64 73t-71 73.5t-63.5 74.5t-42 83
t-6 92.5q14 82 77.5 131t156.5 49q75 0 131.5 -34t90.5 -86l-95 -66q-46 84 -130 84q-46 0 -77.5 -25.5t-39.5 -66.5q-6 -31 9.5 -64.5t44 -66t64 -67.5t70 -75t61.5 -83t39 -97t2 -111q-20 -114 -106 -189t-220 -75z" />
    <glyph glyph-name="T.swsh" unicode="&#xe2f3;" horiz-adv-x="869" 
d="M312 -204q-93 0 -148 65.5t-40 153.5q13 73 65 118l77 -74q-32 -25 -37 -56q-7 -43 18.5 -74.5t69.5 -31.5q41 0 66.5 26.5t34.5 72.5l110 632h-170q-69 0 -115.5 -34t-56.5 -92q-8 -43 12 -79.5t57 -59.5l-59 -91q-63 30 -97.5 96.5t-20.5 145.5q17 97 94 156.5
t186 59.5h407q45 0 66 21t29 65l10 54h111l-15 -81q-14 -76 -58 -118.5t-132 -42.5h-137l-113 -640q-15 -93 -70 -142.5t-144 -49.5z" />
    <glyph glyph-name="U.swsh" unicode="&#xe2f4;" horiz-adv-x="922" 
d="M588 -10q-117 0 -179 69t-41 187l68 384h-77q-68 0 -115.5 -35.5t-58.5 -94.5q-14 -82 69 -135l-59 -91q-63 31 -97 96.5t-20 144.5q16 96 93.5 155.5t186.5 59.5h206l-87 -491q-11 -62 24 -105t100 -43q57 0 99.5 37.5t52.5 95.5l86 486q15 93 67.5 144.5t140.5 51.5
q113 0 169 -73l-86 -65q-26 40 -78 40q-85 0 -105 -106l-83 -472q-21 -117 -94 -178.5t-182 -61.5z" />
    <glyph glyph-name="V.swsh" unicode="&#xe2f5;" horiz-adv-x="923" 
d="M502 0l-102 630h-41q-68 0 -115.5 -35.5t-58.5 -94.5q-14 -82 69 -135l-59 -91q-63 31 -97 96.5t-20 144.5q16 96 93.5 155.5t186.5 59.5h136l88 -563l232 447q30 58 78 87t125 29h333l-19 -102h-318q-39 0 -63 -14.5t-41 -46.5l-301 -567h-106z" />
    <glyph glyph-name="W.swsh" unicode="&#xe2f6;" horiz-adv-x="1307" 
d="M463 0l-72 630h-32q-68 0 -115.5 -35.5t-58.5 -94.5q-14 -82 69 -135l-59 -91q-63 31 -97 96.5t-20 144.5q16 96 93.5 155.5t186.5 59.5h136l56 -552l269 552h107l77 -553l195 426q33 72 79 99.5t129 27.5h293l-19 -102h-278q-43 0 -67.5 -13.5t-40.5 -47.5l-265 -567
h-108l-76 560l-273 -560h-109z" />
    <glyph glyph-name="X.swsh" unicode="&#xe2f7;" horiz-adv-x="1045" 
d="M251 -174q-116 0 -177 78t-44 179q15 85 81.5 137t165.5 52h155l-18 -103h-147q-54 0 -89.5 -28t-40.5 -77q-9 -52 25 -94t95 -42q74 0 122 61l307 390l-128 276q-25 54 -47.5 77t-59.5 23q-28 0 -47.5 -17.5t-25.5 -47.5l-14 -79h-110l18 99q11 65 61.5 104.5
t120.5 39.5q71 0 114.5 -35t81.5 -114l111 -236l204 261h126l-281 -358l171 -372h-114l-132 281l-274 -350q-41 -54 -91 -79.5t-119 -25.5z" />
    <glyph glyph-name="Y.swsh" unicode="&#xe2f8;" horiz-adv-x="898" 
d="M383 -142q-102 0 -156 62t-39 154q10 61 61 110l90 -68q-33 -26 -39 -58q-7 -39 16.5 -67t63.5 -28q90 0 116 132l44 257l-133 303q-24 55 -47.5 79.5t-55.5 24.5q-60 0 -71 -64l-13 -79h-108l17 98q11 64 57.5 102.5t114.5 38.5q74 0 121 -40.5t80 -116.5l110 -251
l220 283h125l-308 -387l-49 -275q-40 -210 -217 -210z" />
    </font>
</defs>
</svg>
